<svg xmlns="http://www.w3.org/2000/svg" xmlns:xlink="http://www.w3.org/1999/xlink" viewBox="0 0 354.11 264.28"><defs><style>.cls-1{isolation:isolate;}.cls-2{fill:#f0a530;}.cls-3{fill:#f9c438;}.cls-10,.cls-31,.cls-4,.cls-6,.cls-9{fill:none;stroke-linecap:round;stroke-linejoin:round;}.cls-4{stroke:#f9c438;}.cls-4,.cls-6{stroke-width:4px;opacity:0.6;}.cls-10,.cls-27,.cls-31,.cls-4,.cls-6,.cls-9{mix-blend-mode:screen;}.cls-5{fill:#f8d440;}.cls-6{stroke:#f8d440;}.cls-7{fill:#c23637;}.cls-12,.cls-8{fill:#eb5850;}.cls-9{stroke:#eb5850;stroke-width:5.48px;}.cls-10{stroke:#c23637;stroke-width:1.83px;}.cls-11{fill:#ebedec;}.cls-12{opacity:0.39;}.cls-12,.cls-30{mix-blend-mode:multiply;}.cls-13{fill:#93dedb;}.cls-14{fill:#b1efea;}.cls-15{fill:#f56421;}.cls-16{fill:#ffd60b;}.cls-17{fill:#feae00;}.cls-18{fill:#e24000;}.cls-19{fill:#ffbf1f;}.cls-20{fill:url(#linear-gradient);}.cls-21{fill:url(#linear-gradient-2);}.cls-22{fill:#ffd108;}.cls-23{fill:#ffbf00;}.cls-24{fill:#fff;}.cls-25{fill:#ff7110;}.cls-26{fill:#e77a04;}.cls-27{fill:#ffcc0f;opacity:0.54;}.cls-28{fill:#679a3b;}.cls-29{fill:#86af35;}.cls-30{opacity:0.35;}.cls-31{stroke:#86af35;stroke-width:3.74px;opacity:0.61;}</style><linearGradient id="linear-gradient" x1="295.5" y1="-32.14" x2="308.33" y2="-32.14" gradientTransform="translate(36.98 5) rotate(22.04)" gradientUnits="userSpaceOnUse"><stop offset="0" stop-color="#fff" stop-opacity="0.7"/><stop offset="1" stop-color="#fff" stop-opacity="0"/></linearGradient><linearGradient id="linear-gradient-2" x1="293.84" y1="17.74" x2="304.73" y2="17.74" xlink:href="#linear-gradient"/></defs><title>자산 1</title><g class="cls-1"><g id="레이어_2" data-name="레이어 2"><g id="Objects"><path class="cls-2" d="M194,89.36c11.25,2.56,18.34,3.92,16.73,14.28-1.25,8-10.76,13.5-22,10.94s-17.92-11.22-16-19.59S182.74,86.8,194,89.36Z"/><path class="cls-3" d="M197.57,80.61c1.53-11.43,2.23-18.61,12.7-18,8.13.51,14.42,9.49,12.89,20.92s-9.55,18.86-18.06,17.72S196,92,197.57,80.61Z"/><path class="cls-4" d="M210.77,68.12s-7.7-2-7.18,11.77"/><path class="cls-5" d="M165.62,56.45c10.17,4.78,16.63,7.55,12.94,17.07-2.86,7.4-13.05,10.61-23.22,5.83s-14.71-14.41-11.15-22S155.45,51.67,165.62,56.45Z"/><path class="cls-6" d="M147.78,60.43s-1.59,10.09,11.58,15.24"/><path class="cls-7" d="M189.92,233.85s1.36,6,2,7.55c0,0,60.52-16.66,90.32-36.23l-2.88-5.89A662.75,662.75,0,0,1,189.92,233.85Z"/><path class="cls-8" d="M279.33,199.28c-28.75,14.23-57.86,27.57-89.41,34.57a275.35,275.35,0,0,1-41.2-106.56c29.3-15.48,57.15-29.37,89.4-34.57A275.37,275.37,0,0,1,279.33,199.28Z"/><path class="cls-7" d="M148.72,127.29s50.83-26.92,89.4-34.57c0,0,0-5.44-.9-7.7,0,0-64.55,15.62-91.21,35.27Z"/><path class="cls-9" d="M165.94,127.09s6.86-4.82,23.21-10.2"/><path class="cls-9" d="M175.47,190.66c-9.27-20.82-15.26-43.86-17.54-53.41"/><path class="cls-9" d="M183.41,206.27c-1.38-2.34-2.7-4.77-4-7.27"/><path class="cls-10" d="M151.78,120s16.66-11.51,51.63-22.43"/><path class="cls-10" d="M206.91,96.57s5.05-1.7,6.64-2"/><path class="cls-11" d="M242.32,149.23c-6.3-16.3-24-25.77-40.9-18.1-15.91,7.21-24.4,24.62-18.1,40.91s24.46,26.1,40.91,18.1C239.94,182.49,249.83,168.64,242.32,149.23Z"/><path class="cls-2" d="M217,174.12c11.26-2.51,18.24-4.33,21.23,5.73,2.33,7.8-3.92,16.8-15.18,19.31s-21-2.45-22.87-10.83S205.69,176.63,217,174.12Z"/><path class="cls-3" d="M220.88,156.21c4.92-10.43,7.77-17.06,17.54-13.26,7.59,2.94,10.87,13.4,6,23.84s-14.81,15.08-22.58,11.42S216,166.65,220.88,156.21Z"/><path class="cls-5" d="M218,146.25c7.83,8.05,12.91,12.92,6.1,20.54-5.29,5.91-16,5.32-23.78-2.73s-8.7-18.67-2.7-24.5S210.17,138.19,218,146.25Z"/><path class="cls-12" d="M182.91,222.47q3.36,5.75,7,11.38s1.36,6,2,7.55c0,0,60.52-16.66,90.32-36.23l-2.88-5.89A275.37,275.37,0,0,0,238.12,92.72s0-5.44-.9-7.7c0,0-3.43.83-9,2.35C228.19,87.37,277.36,198.32,182.91,222.47Z"/><path class="cls-2" d="M21.61,79.35c11.25,2.56,18.33,3.91,16.73,14.27-1.25,8-10.76,13.5-22,10.94S-1.58,93.35.32,85,10.36,76.79,21.61,79.35Z"/><path class="cls-2" d="M100.63,29.33c5.33,10.24,8.88,16.52-.06,22-6.95,4.25-17.26.52-22.58-9.71S75,20.7,82.58,16.74,95.31,19.1,100.63,29.33Z"/><path class="cls-2" d="M127.87,12.15c-1,7.66-1.76,12.42,5.13,13.8C138.34,27,144,22.29,144.93,14.63S142,.8,136.3.07,128.85,4.49,127.87,12.15Z"/><path class="cls-2" d="M68.55,129.44c5.58,10.09,9.29,16.28.49,22-6.84,4.43-17.24,1-22.82-9.13s-3.56-20.84,4-25S63,119.34,68.55,129.44Z"/><path class="cls-3" d="M111,71.37c11-3.37,17.86-5.72,21.62,4.07C135.54,83,130,92.5,119,95.87s-21.12-.82-23.64-9S100,74.74,111,71.37Z"/><path class="cls-4" d="M127.87,78.17s-1.41-7.83-13.69-1.63"/><path class="cls-5" d="M76.57,107.44c10.17,4.78,16.63,7.55,12.94,17.08-2.86,7.39-13.05,10.6-23.22,5.82s-14.71-14.41-11.15-22S66.4,102.66,76.57,107.44Z"/><path class="cls-6" d="M58.73,111.42s-1.59,10.1,11.58,15.24"/><path class="cls-5" d="M84.31,59.86C85.75,71,86.9,77.94,76.88,80c-7.78,1.56-16-5.29-17.4-16.44S63.7,43.37,72,42.29,82.86,48.72,84.31,59.86Z"/><path class="cls-6" d="M71.35,47s-9.37,4.09-6.61,18"/><path class="cls-13" d="M349.08,105c4.51-6.07,2-14.29.26-19.29s-1-11-.19-11.4c2.72-1.65,1.22-3.45,1.22-3.45l-11-4.68-1.93-.55s-2.33.26-1.52,3.33c.36.83-3.33,5.69-8.06,8.06s-12.26,6.54-13.23,14,6.1,9.5,1.64,15.42-8.1,3.93-12,12.65-14.74,36.42-14.74,36.42-1.8,6.13,2.5,8.22,6.35,1.71,6.35,1.71a5.65,5.65,0,0,0,1.93,4.53,6.35,6.35,0,0,0,1.87,1.13h0l0,0a6.28,6.28,0,0,0,2.13.48,5.66,5.66,0,0,0,4.54-1.9s1.21,1.69,5.75,3.18,7.52-4.16,7.52-4.16S333.69,141.3,337,132.34s-.72-10.08.19-17.43S344.56,111,349.08,105Z"/><path class="cls-14" d="M303,169a4.17,4.17,0,0,1-1.15-.69,3.49,3.49,0,0,1-1.21-2.64l.33-3.25-2.93.8a9.63,9.63,0,0,1-3.63-.89c-.42-.18-.88-.38-1.37-.62-2.34-1.13-1.5-4.92-1.35-5.5.77-2,11-27.91,14.66-36.21,2-4.52,3.76-5.66,6-7.09a20,20,0,0,0,5.74-5.12c3.31-4.41,1.65-7.63.31-10.22-1-1.86-1.88-3.62-1.53-6.26.77-5.94,6.51-9.56,12-12.32,3.87-1.94,10.06-7.52,9.22-10.66v0c0-.1,0-.18-.06-.26l.59.17,9.45,4c-.68.33-1.91,1.25-2.06,5.88a23.81,23.81,0,0,0,1.19,8.25c2,5.81,3.63,12.4.06,17.21-1.59,2.14-3.47,2.77-5.46,3.43-2.76.93-6.2,2.09-6.88,7.56a19.72,19.72,0,0,0,.56,7.67c.6,2.58,1.07,4.62-.63,9.26-3.13,8.53-13.85,34.27-14.66,36.21-.3.52-2.32,3.83-4.8,3-.52-.17-1-.34-1.41-.51h0a9.61,9.61,0,0,1-3.23-1.88l-1.64-2.77-1.92,2.72a3.45,3.45,0,0,1-2.66,1.06,4.16,4.16,0,0,1-1.37-.31Z"/><path class="cls-15" d="M337,65.41s3.74-8.18,3.22-8,13.93,5.63,13.93,5.63l-3.23,8A22,22,0,0,1,337,65.41Z"/><ellipse class="cls-16" cx="333.74" cy="93.36" rx="3.58" ry="17.27" transform="translate(121.58 367.38) rotate(-67.88)"/><path class="cls-17" d="M341.82,107.07c2-.66,3.87-1.29,5.46-3.43a10.22,10.22,0,0,0,1.57-3.15c-2.38.69-9-.8-16.46-3.81s-13.2-6.59-14.44-8.75a10.26,10.26,0,0,0-1.08,3.4c-.35,2.64.56,4.4,1.53,6.26,1.34,2.59,3,5.81-.31,10.22a20,20,0,0,1-5.74,5.12c-2.23,1.43-4,2.57-6,7.09-3.69,8.3-13.89,34.25-14.66,36.21-.15.58-1,4.37,1.35,5.5.49.24.95.44,1.37.62a9.63,9.63,0,0,0,3.63.89l2.93-.8-.33,3.25a3.49,3.49,0,0,0,1.21,2.64A4.17,4.17,0,0,0,303,169l.17.07a4.16,4.16,0,0,0,1.37.31,3.45,3.45,0,0,0,2.66-1.06l1.92-2.72,1.64,2.77a9.61,9.61,0,0,0,3.23,1.88h0c.43.17.89.34,1.41.51,2.48.82,4.5-2.49,4.8-3,.81-1.94,11.53-27.68,14.66-36.21,1.7-4.64,1.23-6.68.63-9.26a19.72,19.72,0,0,1-.56-7.67C335.62,109.16,339.06,108,341.82,107.07Z"/><path class="cls-15" d="M325.52,160a64.21,64.21,0,0,1-32.14-13l12.23-30.23c-1.27,3.15,30.87,16.16,32.14,13Z"/><path class="cls-18" d="M326.47,157.6a49.75,49.75,0,0,1-6.44-2.09c-10.23-4.14-18-11.28-22.3-19.32l-1.25,3.1c4.25,8,12.07,15.17,22.3,19.31l1.35.52c1.77.35,3.57.64,5.39.84Z"/><path class="cls-18" d="M327.91,154.06l1.25-3.09a48.46,48.46,0,0,1-6.45-2.1c-10.22-4.14-18-11.27-22.29-19.32l-1.25,3.1c4.24,8,12.07,15.18,22.29,19.32A49.89,49.89,0,0,0,327.91,154.06Z"/><path class="cls-18" d="M327.07,138.11a49.89,49.89,0,0,0,6.45,2.09l1.25-3.09a47.86,47.86,0,0,1-6.44-2.1,44.7,44.7,0,0,1-19.86-15.35c-2-1.24-3.12-2.3-2.86-2.94l-.83,2.07C309,126.84,316.85,134,327.07,138.11Z"/><path class="cls-19" d="M353.74,64c-.35.86-3.75.3-7.59-1.26s-6.68-3.51-6.33-4.37,3.75-.3,7.59,1.26S354.09,63.11,353.74,64Z"/><path class="cls-20" d="M330.27,86.83c3.31-3,9.92-5.42,10.11-10.54,0-.57-.47-1.3-1.15-1.11-2.68.73-5,2.62-7.35,4-3.07,1.79-6.31,3.58-8.44,6.52-3.65,5-1.75,11.23-.37,16.76.74,3,5.86,3.55,5.88-.09C329,96.45,324.86,91.65,330.27,86.83Z"/><path class="cls-21" d="M322,113a1.58,1.58,0,0,0-2.71-1.55c-2.55,2.82-6.38,3.63-8.85,6.75-2.74,3.45-4.48,7.6-6.28,11.57-1.86,4.12-3.74,8.22-5.5,12.38-1.67,4-3.86,8-4.35,12.31a2.67,2.67,0,0,0,4.73,1.92c2.51-3.22,3.77-7.32,5.38-11,1.82-4.16,3.63-8.32,5.46-12.47,1.73-3.93,3.27-8.12,5.84-11.6C317.81,118.43,320.94,116.51,322,113Z"/><path class="cls-22" d="M143.64,242.47c-6.81.57-64.23-39.14-63.35-40.45l10.43-16.09c1.52-2.49,59.53,36.09,62.69,41.47C153.64,226.72,143.73,242.32,143.64,242.47Z"/><polygon class="cls-23" points="90.83 185.76 88.14 180.94 74.57 201.86 80.16 202.22 90.83 185.76"/><polygon class="cls-24" points="142.59 223.26 143.22 225.09 145.05 225.72 144.88 227.65 146.3 228.97 145.37 230.67 146.13 232.45 144.58 233.62 144.54 235.56 142.66 236 141.84 237.76 139.93 237.39 138.47 238.66 136.88 237.55 135.03 238.12 134.03 236.46 132.1 236.22 131.87 234.3 130.2 233.3 130.77 231.44 129.65 229.86 130.93 228.39 130.55 226.49 132.31 225.67 132.75 223.78 134.68 223.74 135.85 222.19 137.63 222.95 139.33 222.01 140.65 223.43 142.59 223.26"/><polygon class="cls-22" points="83.68 177.87 70.12 198.79 74.65 201.74 88.14 180.94 83.68 177.87"/><polygon class="cls-23" points="153.46 226.37 158.96 226.85 145.39 247.78 142.79 242.82 153.46 226.37"/><polygon class="cls-22" points="163.58 229.67 150.01 250.59 145.48 247.65 158.96 226.85 163.58 229.67"/><path class="cls-25" d="M102.09,204.62a32.93,32.93,0,0,1,7.8-8.4c-6-3.78-11.29-6.94-14.79-8.76a32.76,32.76,0,0,0-8.4,8.84,33.11,33.11,0,0,0-3.85,8.16c.71.56,1.55,1.21,2.5,1.93.5-1,1-1.91,1.63-2.83a32.52,32.52,0,0,1,9.19-9.38,32.8,32.8,0,0,0-1.92,2.66,32.46,32.46,0,0,0-4.87,12.52l1.86,1.33a33.31,33.31,0,0,1,3.29-6.6,32.52,32.52,0,0,1,9.19-9.38,32.8,32.8,0,0,0-1.92,2.66,31.81,31.81,0,0,0-5.24,17.07l1,.73A32.65,32.65,0,0,1,102.09,204.62Z"/><path class="cls-25" d="M119.57,202.47q-1.84-1.22-3.66-2.39a30.73,30.73,0,0,0-3.85,20.31,32.29,32.29,0,0,1,5.13-14.71A35.09,35.09,0,0,1,119.57,202.47Z"/><path class="cls-25" d="M110.32,196.49c-.33.46-.66.93-1,1.41a31,31,0,0,0-4.85,22,32.31,32.31,0,0,1,5.14-14.71,33.37,33.37,0,0,1,4.92-5.94Z"/><path class="cls-25" d="M124.74,206.22l.15-.21L121.8,204a30.14,30.14,0,0,0-2.19,17A32.25,32.25,0,0,1,124.74,206.22Z"/><path class="cls-25" d="M142.27,222.52a31.82,31.82,0,0,1,.6-3.94l-1-.73A26.76,26.76,0,0,0,142.27,222.52Z"/><path class="cls-25" d="M127.16,221.45a31.8,31.8,0,0,1,3.37-11.61c-.82-.57-1.66-1.13-2.5-1.7A29.59,29.59,0,0,0,127.16,221.45Z"/><path class="cls-25" d="M134.71,222a31.33,31.33,0,0,1,1.8-8l-1.83-1.28A28.81,28.81,0,0,0,134.71,222Z"/><path class="cls-26" d="M143.63,230.62s-11-.05-7.82,4.69S143.63,230.62,143.63,230.62Z"/><path class="cls-26" d="M129.42,227.22s10.31-3.08,9,1.87S129.42,227.22,129.42,227.22Z"/><path class="cls-27" d="M95.58,191.57c-8.34-1.87-12.6,5.34-8.85,11.1s18.37,2.76,27.15,9.08,18.53,15.34,21.89,9.2S103.93,193.45,95.58,191.57Z"/><path class="cls-28" d="M125.17,244l5.55.18s-1.07,12.35-2.62,20l-5.48-.72Z"/><path class="cls-28" d="M55.91,254.85l-5.51-.51s1.1-12.56,2.65-20.25l5.42,1.18Z"/><path class="cls-29" d="M122.62,263.49c-22.46-.8-44.56-4.39-66.7-8.7l2.55-19.52c22.45.8,44.42,4.37,66.7,8.71Z"/><path class="cls-11" d="M74.24,258.24s6.26-6.14,13.7-20.47c0,0,6.86.8,18.89,2.84,0,0-3.65,9.07-12.53,20.53C94.3,261.14,85.78,260.36,74.24,258.24Z"/><g class="cls-30"><path class="cls-29" d="M122.61,263.56c-22.46-.8-44.56-4.39-66.7-8.71l.48-3.65c63,14.81,66.41-3.59,66.44-7.6l2.33.44,5.55.18s-1.39,13.37-2.62,20.06Z"/></g><path class="cls-31" d="M72.38,241a238.49,238.49,0,0,1,32.37,4.11"/><path class="cls-31" d="M61.6,240.74s1.8-.06,5.07,0"/></g></g></g></svg>