<svg xmlns="http://www.w3.org/2000/svg" viewBox="0 0 99.96 96.33"><defs><style>.cls-1{fill:#cef4f0;}.cls-2{fill:#f998bb;}.cls-3{fill:#af4119;opacity:0.2;}.cls-4,.cls-6{fill:#fdfadb;}.cls-4{opacity:0.4;}.cls-5{fill:#f7a4b4;opacity:0.3;}</style></defs><title>자산 2</title><g id="레이어_2" data-name="레이어 2"><g id="OBJECTS"><ellipse class="cls-1" cx="49.96" cy="47.95" rx="49.96" ry="47.82"/><path class="cls-2" d="M50,48s-12.82-26.3-2-47.78c0,0,14.32-1.63,24.73,5.17C72.65,5.34,53.65,23.41,50,48Z"/><path class="cls-2" d="M50,48.13S68.91,24.6,92.91,23.51c0,0,7.84,13.4,7,25.81C99.9,49.32,73.2,39.36,50,48.13Z"/><path class="cls-2" d="M50,48s30.16.43,44.47,19.74c0,0-4.19,12.62-15,18.84C79.47,86.53,70.19,62.31,50,48Z"/><path class="cls-2" d="M50,48S37.05,75.4,13.63,80.77c0,0-10-6.93-12.62-23.22C1,57.55,28.69,60.72,50,48Z"/><path class="cls-2" d="M50,48.13S19.28,51.81,1.75,35.37c0,0,2-12.35,14.43-22.65C16.18,12.72,27.51,37.62,50,48.13Z"/><path class="cls-2" d="M50,48s15,25.57,6,47.82c0,0-13.53,2.59-24.43-3.38C31.49,92.39,48.18,72.7,50,48Z"/><path class="cls-3" d="M4.38,37.41s-9.72,29.91,24.94,51.1c18.59,11.37,47.41,2,57.84-9.63S61.78,106.14,29,83.34C-.2,63,6.2,35.67,4.38,37.41Z"/><path class="cls-4" d="M96.07,55.49S86.08,8.13,56.9,5.64,20.14,9.09,27.37,21,97.12,74.7,96.07,55.49Z"/><path class="cls-5" d="M13.81,25s-19,21-4,47.52c19.72,35,64.39,15.92,77.39,2.26,5.18-5.44-21.93-9.2-34.42-21.16C33.86,35.52,23.73,10.37,13.81,25Z"/><path class="cls-6" d="M32.06,3.73s16.86-4.16,32.77,0S91.68,29,90,30.34,80,16.14,66.06,9.87C58,6.23,18.37,5.5,32.06,3.73Z"/><path class="cls-6" d="M96.08,45.66s-1.44-7.39-3.49-7.37-1.19,14.74.8,14.4S96.78,48.45,96.08,45.66Z"/></g></g></svg>