<svg xmlns="http://www.w3.org/2000/svg" viewBox="0 0 247.48 162.33"><defs><style>.cls-1{fill:#dcd8c6;}.cls-2{fill:#f4efd7;}.cls-3{fill:#c0b1bc;}.cls-24,.cls-3{opacity:0.5;}.cls-4{fill:#24ed4f;}.cls-5{fill:#2fb264;}.cls-30,.cls-5,.cls-9{opacity:0.2;}.cls-6{fill:#29ef66;}.cls-7{fill:#2af46d;}.cls-8{fill:#fffaef;}.cls-9{fill:#2fb267;}.cls-10{fill:#f9ca80;}.cls-11{fill:#fce47e;}.cls-12{fill:#f79a54;}.cls-13{fill:#f3eac7;}.cls-14{fill:#f58981;}.cls-15{fill:#f4aa89;}.cls-16{fill:#f6bc9f;}.cls-17{fill:#e57373;}.cls-18{fill:#45ddd2;}.cls-19{fill:#41d6c8;}.cls-20{fill:#acdbcf;}.cls-21{fill:#00a585;}.cls-21,.cls-29{opacity:0.3;}.cls-22{fill:#9e5a9c;}.cls-23{fill:#7c4677;}.cls-24{fill:#a28294;}.cls-25{fill:#683254;}.cls-26,.cls-30,.cls-31{fill:#fdfadb;}.cls-26{opacity:0.1;}.cls-27{fill:#f0ddb2;}.cls-28{fill:#ee3a3d;}.cls-29{fill:#b32d2f;}</style></defs><title>자산 4</title><g id="레이어_2" data-name="레이어 2"><g id="OBJECTS"><polygon class="cls-1" points="80 23.85 95.25 60.1 92.95 60.98 77.73 24.72 80 23.85"/><polygon class="cls-2" points="81.72 31.4 94.48 60.48 95.25 60.1 82.89 30.73 81.72 31.4"/><polygon class="cls-3" points="82.4 35.84 84.13 34.05 82.89 30.73 80.66 31.7 82.4 35.84"/><path class="cls-4" d="M92.09,11.52A16.07,16.07,0,1,1,62,22.73,16.07,16.07,0,1,1,92.09,11.52Z"/><path class="cls-5" d="M92.69,15.36s-12.16,8-16.47,9.18-6,4.36-3.09,5.77,17.2-3.66,17.2-3.66-2.63,5.88-11.69,6.87a15.36,15.36,0,0,1-15-7.4S90.39,15.06,92.69,15.36Z"/><path class="cls-6" d="M94.05,11c.69,1.85.08,3.79-1.36,4.33L64,26c-1.44.54-3.17-.53-3.86-2.38L60,23.22c-.69-1.85-.08-3.79,1.37-4.33L90,8.23c1.45-.54,3.18.53,3.87,2.38Z"/><path class="cls-5" d="M70.54,2s-5.05,6.23-2.36,8.34S86.67,8.79,86.9,9.4s-25.85,9.65-25.85,9.65S58.91,7.18,70.54,2Z"/><path class="cls-7" d="M77,2.66s5.28,1,8.53,3.94-15.33.72-14-1S74,2.55,77,2.66Z"/><path class="cls-8" d="M77.53,1s7.8,1.4,8.64,3.49S73.57,1,77.53,1Z"/><path class="cls-7" d="M82.49,23.8s9.92-7.26,9.51-5.32-2.43,6.74-4.11,7.36S81.22,24.72,82.49,23.8Z"/><path class="cls-9" d="M62.82,24.52s-3.33-3.27-.74-5,14-5.37,15.24-4.71,2.41,3.67-1,5.28S62.5,25.7,62.82,24.52Z"/><path class="cls-8" d="M74.72,16.24S85.58,12,87,11.66s1.16,1.82-2.53,3.44S69.46,18.29,74.72,16.24Z"/><path class="cls-8" d="M88.39,13.2s1-3.51,1.82-3.14a2.07,2.07,0,0,1,.52,2.79C90.11,13.83,88.16,13.93,88.39,13.2Z"/><path class="cls-10" d="M168.32,14.33c2,4.9,7.23,6.54,12.18,5.35,7.06-1.69,3.88-5,4.69-7.43.7-2.13-4.63-.31-5.57-2.59s3.17-6.33,1.2-7.35c-2.32-1.2-3-4.33-7.64-.37C169.29,5.24,166.3,9.43,168.32,14.33Z"/><path class="cls-11" d="M170.23,8.74s3.64-7.41,5.59-6.61.63,7.54,2.46,8.55,2.67.45,3.35,1.57.58,2.73.91,4.3-7.68,1.31-9,.23S166.82,14.15,170.23,8.74Z"/><path class="cls-10" d="M169,13.85A18.52,18.52,0,1,1,144.74,3.67,18.58,18.58,0,0,1,169,13.85Z"/><path class="cls-10" d="M135.41,27.51c-2-4.9-7.24-6.54-12.19-5.35-7,1.69-3.87,5-4.68,7.43-.7,2.12,5.52,1.36,4.13,3.39-3,4.32-1.73,5.53.24,6.54,2.32,1.21,3,4.34,7.64.37C134.43,36.6,137.43,32.4,135.41,27.51Z"/><path class="cls-11" d="M164.58,15.57c-1.08,5.36-6.47,4.28-12.53,3.06s-10.49-2.12-9.42-7.48,6.87-8.71,12.93-7.49S165.66,10.21,164.58,15.57Z"/><path class="cls-12" d="M136.35,12s-1.21,9.28,4,14.2,13.43-2.4,14.2,1.21,11.79-2.49,14.15-5.85.18,13.29-12.88,16.26C140.26,41.35,129.81,22.35,136.35,12Z"/><path class="cls-13" d="M160.55,7.57s-3.44-5.2-9-2.81S163.51,10.2,160.55,7.57Z"/><path class="cls-12" d="M127.8,23.05s4.08.25,6.94,4.94c1,1.69-2.55,9-4.3,10.06s-2.5-1.56-3.26-3.41,1.56-3,1.34-4.08-4.31.55-3.67-.26,5-2.26,4-3.37S124.58,21.9,127.8,23.05Z"/><path class="cls-12" d="M168.09,11.68s.71-5.32,3.37-5.72c1.53-.23,1.09,5.27,1.62,5.76s3-1.19,3.54.92.26,4.6,1.13,4.35,2.45.5,1.12,1.05S167.67,18.78,168.09,11.68Z"/><path class="cls-10" d="M121.34,124.59c-2.48,4.68-.42,9.74,3.65,12.79,5.81,4.35,6.3-.19,8.71-1.13,2.09-.82-2.71-3.77-1.56-5.94s6.9-1.6,6.43-3.77C138,124,140,121.49,134,120.42,129,119.54,123.82,119.9,121.34,124.59Z"/><path class="cls-11" d="M126.86,122.49s8-1.92,8.66.09-5.41,5.3-5,7.35,1.36,2.34.93,3.58-1.73,2.19-2.73,3.44-5.91-5.08-5.91-6.78S120.51,123.32,126.86,122.49Z"/><path class="cls-10" d="M122.14,124.79a18.52,18.52,0,1,1-7.64-25.16A18.6,18.6,0,0,1,122.14,124.79Z"/><path class="cls-10" d="M90.19,107.65c2.48-4.68.42-9.74-3.65-12.8-5.81-4.35-6.3.19-8.71,1.14-2.09.81,2.47,5.12,0,5.34-5.23.47-5.37,2.2-4.9,4.36.56,2.56-1.44,5,4.6,6.12C82.57,112.7,87.71,112.33,90.19,107.65Z"/><path class="cls-11" d="M118,122.5c-4.82,2.59-7.43-2.26-10.35-7.7s-5.07-9.43-.25-12,11.09-.27,14,5.17S122.81,119.91,118,122.5Z"/><path class="cls-12" d="M102.74,98.48s-7.92,5-8.38,12.13,10.41,8.81,8.12,11.7,9.44,7.49,13.53,7.17-10.11,8.61-20.73.45C82.63,120.22,90.59,100.05,102.74,98.48Z"/><path class="cls-13" d="M121.59,114.29s1.8-6-3.54-8.68S121.45,118.24,121.59,114.29Z"/><path class="cls-12" d="M88.77,99s2.42,3.3.63,8.5c-.65,1.87-8.57,3.78-10.49,3.1s-.39-2.92.54-4.69,3.33-.74,4-1.56-3.18-3-2.15-3,4.91,2.37,5.14.91S87.6,95.74,88.77,99Z"/><path class="cls-12" d="M123.23,122.72s4.55-2.84,6.55-1c1.16,1-3.35,4.2-3.39,4.92s2.83,1.55,1.54,3.31-3.38,3.13-2.63,3.64,1.19,2.21-.09,1.54S117.5,126.92,123.23,122.72Z"/><path class="cls-14" d="M230.08,64c-2,4.92.63,9.73,5,12.33,6.23,3.7,6.24-.87,8.54-2.06,2-1-3.1-3.45-2.19-5.74s6.68-2.33,6-4.43c-.83-2.48.89-5.18-5.23-5.59C237.12,58.11,232.05,59,230.08,64Z"/><path class="cls-15" d="M235.35,61.27s7.78-2.77,8.62-.84-4.81,5.85-4.21,7.85,1.61,2.18,1.31,3.46-1.48,2.36-2.34,3.71-6.42-4.41-6.6-6.1S229.13,62.77,235.35,61.27Z"/><path class="cls-14" d="M230.9,64.06a18.53,18.53,0,1,1-10.29-24.19A18.58,18.58,0,0,1,230.9,64.06Z"/><path class="cls-14" d="M197.31,50.44c2-4.92-.63-9.73-5-12.33-6.23-3.71-6.24.86-8.54,2.06-2,1,3,4.83.6,5.31-5.14,1-5.09,2.76-4.39,4.86.82,2.48-.9,5.18,5.22,5.59C190.27,56.28,195.34,55.36,197.31,50.44Z"/><path class="cls-16" d="M226.54,62.23c-4.51,3.09-7.62-1.45-11.12-6.55s-6-8.83-1.53-11.92,11-1.46,14.49,3.64S231.05,59.14,226.54,62.23Z"/><path class="cls-17" d="M208.8,40s-7.34,5.8-7,13,11.3,7.64,9.34,10.76,10.18,6.44,14.21,5.68-9.13,9.65-20.56,2.67C191.13,63.74,196.89,42.84,208.8,40Z"/><path class="cls-13" d="M229.23,53.69s1.16-6.13-4.45-8.26S229.52,57.63,229.23,53.69Z"/><path class="cls-17" d="M195,41.94s2.76,3,1.53,8.38c-.44,1.93-8.11,4.68-10.09,4.21s-.71-2.86,0-4.72,3.23-1.09,3.8-2-3.47-2.62-2.45-2.75,5.13,1.83,5.21.36S193.46,38.88,195,41.94Z"/><path class="cls-17" d="M231.77,61.89s4.22-3.32,6.4-1.75c1.26.9-2.89,4.54-2.85,5.26s3,1.24,1.89,3.12-3,3.48-2.22,3.91,1.41,2.07.07,1.54S226.52,66.68,231.77,61.89Z"/><path class="cls-18" d="M165.4,73.71c.12,5.3,4.38,8.71,9.43,9.39,7.18,1,5.41-3.23,7-5.23,1.42-1.73-4.2-2-4.25-4.43s5.24-4.75,3.77-6.41c-1.73-2-1.2-5.12-7-3.11C169.6,65.59,165.29,68.41,165.4,73.71Z"/><path class="cls-19" d="M169.2,69.19s6.08-5.59,7.61-4.14-2.14,7.26-.81,8.86,2.33,1.38,2.56,2.67-.44,2.76-.7,4.34-7.64-1.55-8.47-3S164.06,73,169.2,69.19Z"/><path class="cls-18" d="M166.2,73.5a18.52,18.52,0,1,1-18.93-18.25A18.59,18.59,0,0,1,166.2,73.5Z"/><path class="cls-18" d="M130,74.09c-.11-5.3-4.38-8.71-9.42-9.39-7.19-1-5.41,3.23-7.06,5.23-1.42,1.73,4.66,3.27,2.63,4.65-4.34,3-3.61,4.53-2.15,6.19,1.73,2,1.2,5.12,7,3.11C125.75,82.21,130.07,79.39,130,74.09Z"/><path class="cls-20" d="M161.47,73.51c-2.94,4.61-7.59,1.65-12.8-1.68s-9-5.77-6.07-10.37,9.56-5.64,14.77-2.32S164.41,68.91,161.47,73.51Z"/><path class="cls-21" d="M136.44,60S132,68.17,135,74.65s13.39,2.62,12.8,6.26,11.89,1.94,15.3-.33S158.5,93,145.25,91.08C129.47,88.75,126.6,67.25,136.44,60Z"/><path class="cls-13" d="M160.61,64.6s-1.34-6.09-7.33-5.86S162.41,68.11,160.61,64.6Z"/><path class="cls-21" d="M124.47,67.18s3.72,1.71,4.69,7.12c.34,2-5.64,7.48-7.65,7.82s-1.77-2.36-1.81-4.36,2.55-2.27,2.73-3.31-4.22-1-3.34-1.57,5.44-.32,4.94-1.71S121.89,65,124.47,67.18Z"/><path class="cls-21" d="M166.49,71.16s2.59-4.7,5.21-4.12c1.52.34-.88,5.31-.57,6s3.23,0,3,2.13-1.42,4.39-.52,4.47,2.12,1.35.67,1.39S163.53,77.62,166.49,71.16Z"/><polygon class="cls-1" points="167.76 127.96 144.45 160.9 142.44 159.37 165.77 126.46 167.76 127.96"/><polygon class="cls-2" points="162.12 133.56 143.71 160.43 144.45 160.9 163.34 134.21 162.12 133.56"/><polygon class="cls-3" points="158.62 136.55 161.11 137.09 163.34 134.21 161.28 132.79 158.62 136.55"/><path class="cls-22" d="M168.81,130.29s.84,6.43,0,6.71c-2.18.7-3.78-2.11-4.59-1.75s-4.3.52-4.78-.38-.2-3.7-1.12-4-3.31-1.41-2.48-2.32,5.55-3.92,7.94-2.8S168.81,130.29,168.81,130.29Z"/><path class="cls-22" d="M188.11,124.34a16.69,16.69,0,1,1-4.1-23.13A16.61,16.61,0,0,1,188.11,124.34Z"/><path class="cls-23" d="M180.74,99.41s-16.35-2.5-19.13,13.28c-1.33,7.58,5.63,2.09,6.73,3.43s-1.83,7.36.87,8.31,7-4.63,7.74-2.23-4.33,4.81-2.79,5.8,5.35-1,6,.56-7.05,4.95-15.18-.34A16,16,0,0,1,160,106.38C164.12,99.88,170.84,95.38,180.74,99.41Z"/><path class="cls-24" d="M179.93,102.3s7.46,1.93,8.47,6c1.41,5.6-.07,13.9-3,13.27C176.13,119.54,177.07,100.55,179.93,102.3Z"/><path class="cls-23" d="M169.15,134h0a3,3,0,0,1-1.39-2c-.24-1.36-3.49,1-4.47.56s.1-2.81-.27-3.28-5.82-1.32-4.14-2.69,4.58-1.12,4.58-1.12,5.36,3.52,5.43,3.83"/><path class="cls-8" d="M187.56,107.22s2.63,5.86,2,9.91-2.08,6-2.22,5.54,1.92-5.81.92-9.65S186.53,106.43,187.56,107.22Z"/><path class="cls-8" d="M187.17,124.16s-1.76,2.45-2.09,1.68S187.6,122.52,187.17,124.16Z"/><path class="cls-25" d="M160.48,123.35s-.16-4.33.39-3.52l.55.81s.9,4.28,2.38,5.23,2.43-1,2.73-.69.51,2.46.64,2.46a4,4,0,0,0,.63-.16s3.64-.52,3.74.2-3.93,1-4.07,1.08.17.47.17.47,3.17.16,3,.85-2.89-.26-4.73-1.17S160.5,125.18,160.48,123.35Z"/><path class="cls-26" d="M178.24,101.76s-10.33-2.19-13.85,7.94,8.62,20.78,15.79,16.88S192.75,108,178.24,101.76Z"/><path class="cls-14" d="M42.76,49.05c3.61,3.88,9.07,3.59,13.29.75,6-4.06,1.89-6,1.78-8.6-.08-2.24-4.44,1.32-6.11-.48s.74-7-1.45-7.3c-2.6-.31-4.31-3-7.29,2.33C40.49,40.19,39.15,45.17,42.76,49.05Z"/><path class="cls-15" d="M42.6,43.15s.81-8.22,2.92-8.16,3.23,6.85,5.29,7.16,2.66-.52,3.69.3,1.51,2.35,2.36,3.7-6.73,3.92-8.34,3.36S41.29,49.41,42.6,43.15Z"/><path class="cls-14" d="M43.22,48.36a18.53,18.53,0,1,1-26.27-1A18.6,18.6,0,0,1,43.22,48.36Z"/><path class="cls-14" d="M16.55,72.92C12.94,69,7.48,69.33,3.26,72.17c-6,4.06-1.89,6-1.78,8.6.08,2.24,5.65-.65,5.05,1.73-1.27,5.09.32,5.79,2.51,6,2.6.31,4.31,3,7.29-2.33C18.82,81.77,20.16,76.79,16.55,72.92Z"/><path class="cls-16" d="M39.7,51.52c.86,5.4-4.57,6.27-10.68,7.25s-10.56,1.7-11.43-3.7S21,44.5,27.08,43.52,38.83,46.12,39.7,51.52Z"/><path class="cls-17" d="M12,58.06S14.11,67.17,20.71,70,32.45,63,34.43,66.12,44.6,59.66,45.64,55.69s4.82,12.38-6.37,19.73C25.94,84.18,9.49,70,12,58.06Z"/><path class="cls-13" d="M33.12,45.44s-5-3.66-9.37.5S36.81,46.86,33.12,45.44Z"/><path class="cls-17" d="M7.86,71.4s3.91-1.19,8.23,2.2c1.56,1.23.77,9.34-.5,10.93s-2.89-.59-4.25-2,.39-3.39-.17-4.29-3.86,2-3.54,1,3.85-3.85,2.55-4.55S4.45,71.46,7.86,71.4Z"/><path class="cls-17" d="M41.62,46.65s-1.19-5.23,1.16-6.54c1.35-.75,2.86,4.55,3.53,4.83s2.4-2.17,3.63-.38,1.86,4.22,2.59,3.68,2.47-.39,1.42.59S43.71,53.44,41.62,46.65Z"/><path class="cls-27" d="M83.8,161.58l0,0a4.18,4.18,0,0,1-5.81-1.11c-.92-1.35-22.58-33.29-31.08-47.32-3.27-5.4-6.89-8.48-10.21-8.66s-5.89,2.49-7.14,4.1c-3.35,4.33.66,13,2.33,15.64a4.19,4.19,0,0,1-7.09,4.45c-.39-.63-9.49-15.35-1.85-25.21,3.9-5,9-7.64,14.23-7.34,4.35.25,10.81,2.65,16.88,12.68,8.39,13.85,30.63,46.63,30.85,47A4.18,4.18,0,0,1,83.8,161.58Z"/><path class="cls-28" d="M22.64,124.64s6,1.59,9.81,1.44c0,0,.37,5.23-4.69,4.55C27.76,130.63,24.52,129.9,22.64,124.64Z"/><path class="cls-28" d="M20.09,116.16s4.2,3.74,9.57,3.58a19.28,19.28,0,0,1-1.39-5.54s-3.51-.14-7.92-5.43A17.59,17.59,0,0,0,20.09,116.16Z"/><path class="cls-28" d="M24.14,102s.53,3.18,5.37,6.6c0,0,3.28-3.3,4.52-3.66,0,0-4.3-4.78-2.79-7.9A14.44,14.44,0,0,0,24.14,102Z"/><path class="cls-28" d="M39.11,105.16s-1.69-5.8.89-8.54A18.15,18.15,0,0,1,46.52,100a14.25,14.25,0,0,0-4.27,7.34A18.6,18.6,0,0,0,39.11,105.16Z"/><path class="cls-28" d="M46.51,112.81s.59-4.1,5.24-7.35l4,6.41s-4.18-.51-5.45,7Z"/><path class="cls-28" d="M65.42,127s-3.85,1.06-4.59,7.85l3,4.33a8.66,8.66,0,0,1,4.77-7.63Z"/><path class="cls-28" d="M58.87,116.6s-4.41.66-5.16,7.45l3.65,5.6s-.24-5.67,4.69-8.13Z"/><path class="cls-28" d="M72.24,137s-4.29.74-5,7.54l3.6,5.39a9,9,0,0,1,4.85-7.81Z"/><path class="cls-28" d="M79.69,148.31s-3.85,1.06-4.6,7.85l3,4.33a8.66,8.66,0,0,1,4.77-7.63Z"/><path class="cls-29" d="M79.89,158.24s-30.38-46.83-32.7-50.75S37.83,98.37,30.62,102s-7.13,12.14-5.89,16.86,3.33,8.93,4.56,9.43,1-1.55-2.05-8.73,1-12.58,5.57-14.75,9.7-.4,13,5,26.09,40.81,27.88,42.55S82,164.23,79.89,158.24Z"/><path class="cls-30" d="M24.5,104.6a14.66,14.66,0,0,1,13.1-7.22c5.31.06,12.31,6.71,16.8,14.7s22.49,32.78,21.65,34.19-11.26-12.35-17.13-22S42.74,99.59,39.05,99.47C31,99.2,22.26,106.57,24.5,104.6Z"/><path class="cls-31" d="M23.13,105.56a13.1,13.1,0,0,1,11.34-7.92c9.21-.42,13,4.23,16.69,9.47,4.4,6.25,1.45,4.29.2,2.3S47.06,101.29,41,99.29c-4.64-1.54-7.56-1.13-11.15.69S22.79,108.33,23.13,105.56Z"/><path class="cls-31" d="M54.54,112.31s2.36,2.9,1.7,3.47S53.12,112,54.54,112.31Z"/></g></g></svg>