<svg xmlns="http://www.w3.org/2000/svg" viewBox="0 0 422.46 289.85"><defs><style>.cls-1{fill:#ffbbe5;}.cls-2{fill:#ffccec;}.cls-3{fill:#ffdbf2;}.cls-4{fill:#c73c3a;}.cls-5{fill:#e05c5a;}.cls-6{fill:#fff1de;}.cls-7{fill:#fff;}.cls-8{fill:#8cd9de;}.cls-9{fill:#6fccd1;}.cls-10{fill:#46cece;}.cls-11{fill:#5faeb3;}.cls-12{fill:#c3f29c;}.cls-13{fill:#9bdd80;}.cls-14{fill:#5bba60;}.cls-15{fill:#8eefc8;}.cls-16{fill:#3a8a8e;}.cls-17{fill:#606060;}.cls-18{fill:#ffbd66;}.cls-19{fill:#db8411;}.cls-20{fill:#ff9a14;}.cls-21{fill:#d697f2;}.cls-22{fill:#be79e2;}.cls-23{fill:#ac57f7;}.cls-24{fill:#6eb9ba;}.cls-25{fill:#7ccece;}.cls-26{fill:#a8edea;}.cls-27{fill:#f9bbe7;}.cls-28{fill:#e288d1;}.cls-29{fill:#ef54a6;}.cls-30{fill:#ed4076;opacity:0.56;isolation:isolate;}.cls-31{fill:#fc88b8;}.cls-32{fill:#9dcbf4;}.cls-33{fill:#ea6ea6;}.cls-34{fill:#ffbce7;}.cls-35{fill:#ff90c8;}.cls-36{fill:#e36baa;}.cls-37{fill:#ffdff3;}</style></defs><title>자산 60</title><g id="레이어_2" data-name="레이어 2"><g id="레이어_1-2" data-name="레이어 1"><path class="cls-1" d="M156.94,19.67a47.21,47.21,0,0,0-28,12.92l-12.63,5.86,6.18,13.38c4,8.68,19.2,10.2,33.92,3.4s23.39-19.35,19.38-28l-6.18-13.39Z"/><path class="cls-2" d="M130.45,31.21l12.9,27.92a47.89,47.89,0,0,0,24.18-11.05L154.53,20A47.71,47.71,0,0,0,130.45,31.21Z"/><ellipse class="cls-3" cx="142.96" cy="26.13" rx="29.36" ry="17.32" transform="translate(2.22 62.38) rotate(-24.8)"/><path class="cls-1" d="M146.19,8.39a31.82,31.82,0,0,0-18.83,8.71l-8.11,1.83,1,10a9.47,9.47,0,0,0,6,8c5.27,2,13.07,1.31,20.7-2.22,7.43-3.43,12.87-8.74,14.94-13.89a9.58,9.58,0,0,0-2-10.18l-7-7.2Z"/><path class="cls-2" d="M130.91,14.14l10.45,22.61a38.94,38.94,0,0,0,5.55-2.07A36.78,36.78,0,0,0,151.75,32L141.25,9.27a32.78,32.78,0,0,0-5.18,1.9A31.82,31.82,0,0,0,130.91,14.14Z"/><ellipse class="cls-3" cx="136.77" cy="12.74" rx="18.73" ry="11.05" transform="translate(7.27 58.54) rotate(-24.8)"/><path class="cls-4" d="M280.9,34.47c-4.6-4-10.51-5.76-16.37-6.07h0a37,37,0,0,0-8.92.6c-14.43,1.09-42.34,3.64-53.83,7.81l23,46.34s36.89-.33,56.88-8.06a9.18,9.18,0,0,0,4.08-2.67C291.36,66,292.81,44.79,280.9,34.47Z"/><path class="cls-5" d="M233.91,79.81c-5.58,6.45-19.77,3.31-31.68-7s-17-23.91-11.46-30.35,26.34-10.91,38.26-.6S239.5,73.36,233.91,79.81Z"/><path class="cls-6" d="M225.93,71.88C222.37,76,213.32,74,205.72,67.41S194.84,52.16,198.41,48s16.8-7,24.4-.37S229.49,67.73,225.93,71.88Z"/><path class="cls-7" d="M209.08,64.58c-7.16-6.2-10.48-14.26-7.85-18.61A9.27,9.27,0,0,0,198.41,48c-3.57,4.12-.29,12.79,7.31,19.37s16.65,8.58,20.21,4.47a7.19,7.19,0,0,0,.78-1.14C222.34,72.24,215.22,69.91,209.08,64.58Z"/><rect class="cls-8" x="189.23" y="82.32" width="56.22" height="98.84" rx="26.47" ry="26.47" transform="translate(40.05 313.85) rotate(-76.99)"/><path class="cls-9" d="M261.25,131.24a.57.57,0,0,1-.07.33l-.23,1c-3,13.12-15,21.66-26.66,19l-39.86-9.21c-11.63-2.68-18.67-15.61-15.64-28.73l.23-1a28.16,28.16,0,0,1,1-3.36,27.37,27.37,0,0,0-5,10.61h0c-3.09,13.39,4.09,26.58,16,29.33L233.4,159c11.88,2.75,24.12-6,27.22-19.35h0A27.73,27.73,0,0,0,261.25,131.24Z"/><path class="cls-10" d="M223.56,133.17c2.55-11,7.94-20.15,14.34-25.56-2.66-6-7.64-7.11-13-8.36-12.28-2.84-23.44,8-28,27.75s.71,34.39,13,37.22c5.41,1.25,10.34,2.48,15.39-1.79C221.86,154.76,221,144.19,223.56,133.17Z"/><path class="cls-7" d="M216.94,115.15c-4.33,6-8,10.81-10,9s-1.78-9.48,2.55-15.51,11.06-8.12,13.13-6.32S221.27,109.12,216.94,115.15Z"/><path class="cls-11" d="M195.29,142c.46,11.9,5.66,20.18,14.56,22.23,5.41,1.25,10.34,2.48,15.39-1.79-3.38-7.67-4.22-18.24-1.68-29.26a58.5,58.5,0,0,1,3.32-10.07c-12.28,15.74-3.62,33.44-16.88,32.55C201.65,155.09,197.45,148.31,195.29,142Z"/><path class="cls-12" d="M344.6,227.92l.64,17.8a2.75,2.75,0,0,0,1.29,2.24l15,9.56a2.78,2.78,0,0,1,.89,3.84,2.82,2.82,0,0,1-1.43,1.16l-16.74,6.07a2.74,2.74,0,0,0-1.7,1.88l-4.44,17.25a2.78,2.78,0,0,1-3.4,2,2.71,2.71,0,0,1-1.48-1l-11-14a2.76,2.76,0,0,0-2.36-1.06l-17.78,1.1a2.78,2.78,0,0,1-2.95-2.6,2.72,2.72,0,0,1,.47-1.73l9.94-14.78a2.8,2.8,0,0,0,.28-2.57l-6.54-16.57a2.77,2.77,0,0,1,3.35-3.69l17.13,4.88a2.79,2.79,0,0,0,2.53-.53l13.75-11.3a2.77,2.77,0,0,1,3.92.4A2.8,2.8,0,0,1,344.6,227.92Z"/><path class="cls-13" d="M304.35,233.21a2.76,2.76,0,0,0-1.05,3.34l2,5.09a171,171,0,0,0,50.58,22.71l5.13-1.87a2.79,2.79,0,0,0,1.8-3,168.91,168.91,0,0,1-58.47-26.26Z"/><path class="cls-13" d="M308.25,249.11l1.58,4a2.8,2.8,0,0,1-.28,2.57l-.83,1.23a175.48,175.48,0,0,0,33.45,15l.37-1.44a2.77,2.77,0,0,1,1.74-1.92l4-1.47a173.45,173.45,0,0,1-40.07-18Z"/><path class="cls-13" d="M333.25,288.78a2.78,2.78,0,0,0,3.9.48,2.85,2.85,0,0,0,1-1.48l.1-.41q-4.1-1.26-8.3-2.81Z"/><path class="cls-13" d="M306.1,260.85l-3.61,5.36c4.48,2.69,9.28,5.27,14.34,7.68l3.05-.19a2.76,2.76,0,0,1,2.36,1.06l1.89,2.41c5.16,2.18,10.27,4,15.26,5.61l1.61-6.26a174.11,174.11,0,0,1-34.9-15.67Z"/><path class="cls-13" d="M299.86,270.12l-.24.35a2.78,2.78,0,0,0,.74,3.86,2.81,2.81,0,0,0,1.74.47l5.37-.33C304.83,273.06,302.3,271.61,299.86,270.12Z"/><path class="cls-13" d="M338.44,227.2l-5.5,4.54c1.94,1,3.92,1.89,5.94,2.81s4,1.76,6.05,2.57l-.26-7.13c-1-.44-2.08-.9-3.13-1.37S339.47,227.68,338.44,227.2Z"/><path class="cls-13" d="M328.94,235l-2.63,2.17a2.79,2.79,0,0,1-2.53.53l-6.94-2a175.16,175.16,0,0,0,17.44,9,170.7,170.7,0,0,0,18.3,7l-6.05-3.85a2.75,2.75,0,0,1-1.29-2.24l-.12-3.42c-2.71-1.06-5.44-2.19-8.18-3.42S331.54,236.36,328.94,235Z"/><path class="cls-14" d="M343.25,261.6a2.77,2.77,0,0,0-1.74,1.92l-4.45,17.25a2.78,2.78,0,0,1-3.4,2,2.71,2.71,0,0,1-1.48-1l-7.78-11.94a2.78,2.78,0,0,0-2.36-1.06L300,269.9l-.38.55a2.78,2.78,0,0,0,.74,3.86,2.81,2.81,0,0,0,1.74.47l17.78-1.1a2.76,2.76,0,0,1,2.36,1.06l11,14a2.78,2.78,0,0,0,3.9.48,2.85,2.85,0,0,0,1-1.48l4.47-17.27a2.77,2.77,0,0,1,1.74-1.92L361,262.47a2.8,2.8,0,0,0,1.82-2.8Z"/><path class="cls-7" d="M340.89,228.88c-.74-.81-3.41,1.52-8.38,6-1.82,1.63-3.32,2.82-5,4.17a4,4,0,0,1-3.34.78c-2-.45-4.48-1.05-7.59-1.91-4.85-1.35-8.87-2.28-9.25-1.25s3.73,2,8.46,3.72,9.2,3.76,14.21,1.36h0a32,32,0,0,0,5.19-3.93C338.91,234.38,341.63,229.69,340.89,228.88Z"/><path class="cls-12" d="M276.24,226.58l5.87,9.09a1.68,1.68,0,0,0,1.32.79l10.27.62a1.77,1.77,0,0,1,1.63,1.74,1.63,1.63,0,0,1-.33,1l-6.24,8a1.62,1.62,0,0,0-.24,1.47l3.22,10.28a1.53,1.53,0,0,1-2.06,1.94l-9.71-4.1a1.53,1.53,0,0,0-1.48.14l-8.29,5.74a1.62,1.62,0,0,1-2.25-.5,1.76,1.76,0,0,1-.31-1l.22-10.59a1.77,1.77,0,0,0-.66-1.42l-8.35-6.73a1.72,1.72,0,0,1-.36-2.33,1.54,1.54,0,0,1,.84-.57l9.84-2.43a1.51,1.51,0,0,0,1.07-1l3.15-9.88a1.51,1.51,0,0,1,2-.93A1.76,1.76,0,0,1,276.24,226.58Z"/><path class="cls-13" d="M258.34,241a1.75,1.75,0,0,0,.53,2.05l2.56,2.07a93.87,93.87,0,0,0,31.65-2.87l1.91-2.47a1.7,1.7,0,0,0-.06-2.09,92.51,92.51,0,0,1-36.59,3.32Z"/><path class="cls-13" d="M265.19,248.19l2,1.63a1.78,1.78,0,0,1,.66,1.42l0,.88a95.67,95.67,0,0,0,20.93-1.91l-.27-.86a1.65,1.65,0,0,1,.25-1.5l1.48-1.93a95.18,95.18,0,0,1-25.08,2.27Z"/><path class="cls-13" d="M289.71,261.59a1.5,1.5,0,0,0,2-.88,1.74,1.74,0,0,0,0-1.06l-.08-.24c-1.59.36-3.23.67-4.91.95Z"/><path class="cls-13" d="M267.81,254.94l-.08,3.84a92.39,92.39,0,0,0,9.36-.17l1.42-1a1.55,1.55,0,0,1,1.48-.13l1.67.71c3.18-.37,6.23-.91,9.16-1.52L289.65,253a95.46,95.46,0,0,1-21.84,2Z"/><path class="cls-13" d="M267.67,261.58v.25a1.78,1.78,0,0,0,1.57,1.8,1.51,1.51,0,0,0,1-.26l2.5-1.74C271,261.67,269.32,261.65,267.67,261.58Z"/><path class="cls-13" d="M270.86,234.85l-.61,1.89a1.45,1.45,0,0,1-1.06,1l-4,1a96.17,96.17,0,0,0,11.27-.38,93.42,93.42,0,0,0,11.08-1.68l-4.14-.24a1.74,1.74,0,0,1-1.33-.79L281,233.89c-1.65.23-3.33.44-5,.6S272.53,234.78,270.86,234.85Z"/><path class="cls-14" d="M286.09,244.52a1.68,1.68,0,0,0-.25,1.51l3.22,10.28a1.57,1.57,0,0,1-1,2,1.59,1.59,0,0,1-1-.08l-7.5-4a1.53,1.53,0,0,0-1.48.14l-10.37,7,0,.39a1.78,1.78,0,0,0,1.57,1.8,1.5,1.5,0,0,0,1-.26l8.29-5.74a1.53,1.53,0,0,1,1.48-.14l9.71,4.1a1.51,1.51,0,0,0,2.05-.89,1.71,1.71,0,0,0,0-1.05l-3.21-10.3a1.65,1.65,0,0,1,.24-1.51l6.23-8a1.69,1.69,0,0,0,0-2Z"/><path class="cls-7" d="M274.74,228.16c-.61-.2-1.18,1.79-2.2,5.57-.38,1.37-.73,2.43-1.13,3.62a2.07,2.07,0,0,1-1.38,1.38c-1.11.35-2.5.76-4.28,1.21-2.78.71-5,1.39-4.88,2s2.43,0,5.27-.52,5.64-.72,7.32-3.43h0a17.31,17.31,0,0,0,1.3-3.55C275.49,231.6,275.35,228.37,274.74,228.16Z"/><path class="cls-15" d="M316.62,158.47c-7.13-8.79-18.07-11.73-24.43-6.56a10.41,10.41,0,0,0-1.84,1.91L263.25,183l27,30.84,27.8-30.18C324.39,178.54,323.76,167.23,316.62,158.47Z"/><ellipse class="cls-16" cx="276.74" cy="198.47" rx="14.83" ry="20.5" transform="translate(-63.2 218.81) rotate(-39.07)"/><path class="cls-16" d="M309.25,193.21a33.8,33.8,0,0,0-7.66-17.88c-5.67-7-13.13-11.21-20-12.06l-5.45,5.89c6.81.94,14.12,5.14,19.7,12a33.54,33.54,0,0,1,7.67,18.31Z"/><path class="cls-16" d="M312,164.83c-5.86-7.22-13.64-11.49-20.75-12.13a9.81,9.81,0,0,0-.94,1.09l-1.84,2c7.47.17,15.89,4.52,22.13,12.21A34.54,34.54,0,0,1,318,183.72h0a13.6,13.6,0,0,0,1.61-1.61A34,34,0,0,0,312,164.83Z"/><ellipse class="cls-6" cx="276.74" cy="198.47" rx="9.88" ry="13.65" transform="translate(-63.2 218.81) rotate(-39.07)"/><path class="cls-17" d="M272,202.76c-4.45-5.48-5.1-12.42-1.7-16.11a7.26,7.26,0,0,0-2.18,1.2c-4.24,3.44-3.82,11,.93,16.83s12,7.81,16.28,4.37a10.14,10.14,0,0,0,.76-.71C281.85,209.85,276,207.7,272,202.76Z"/><ellipse class="cls-18" cx="390.04" cy="160.57" rx="32.42" ry="32.27"/><ellipse class="cls-19" cx="390.04" cy="160.57" rx="13.46" ry="13.4"/><ellipse class="cls-20" cx="390.04" cy="160.57" rx="10.34" ry="10.29"/><ellipse class="cls-7" cx="376.26" cy="145.28" rx="14.87" ry="8.5" transform="translate(-3.99 279.76) rotate(-40.59)"/><path class="cls-20" d="M416.45,146.17c.08.92.13,1.85.13,2.79a29.52,29.52,0,0,1-53.06,17.67,1,1,0,0,0-1.82.9,29.49,29.49,0,1,0,54.75-21.36Z"/><ellipse class="cls-21" cx="123.09" cy="141.37" rx="21.38" ry="21.28" transform="translate(-32.56 36.92) rotate(-15.09)"/><ellipse class="cls-22" cx="123.09" cy="141.37" rx="8.88" ry="8.84" transform="translate(-32.55 36.91) rotate(-15.09)"/><ellipse class="cls-23" cx="123.09" cy="141.37" rx="6.82" ry="6.79" transform="translate(-32.56 36.92) rotate(-15.09)"/><ellipse class="cls-7" cx="111.69" cy="134" rx="9.81" ry="5.61" transform="translate(-61.95 150.69) rotate(-55.68)"/><path class="cls-22" d="M137.44,127.66c.21.58.4,1.16.56,1.76a19.47,19.47,0,0,1-30.75,20.36.67.67,0,0,0-1,.88,19.45,19.45,0,1,0,33.15-20.35A20.31,20.31,0,0,0,137.44,127.66Z"/><path class="cls-24" d="M64.52,79.61a70.36,70.36,0,0,0-23.34,6.26,70.34,70.34,0,0,0-20,13.5L1.49,108.32l11.1,24.39c6.13,13.52,29.62,15.95,52.45,5.55s36.38-29.74,30.24-43.2L84.18,70.65Z"/><path class="cls-25" d="M67.47,85.58l17.78,39.05a43.7,43.7,0,0,0,9.17-12.77L79.81,79.72a9.57,9.57,0,0,0-12.28,5.67Z"/><path class="cls-25" d="M18.38,112.35,33,144.48c9.41.92,20.8-1.1,32-6.22a73.81,73.81,0,0,0,7.68-4L55.06,95.45a72.72,72.72,0,0,0-36.69,17Z"/><ellipse class="cls-26" cx="42.82" cy="89.5" rx="45.43" ry="26.8" transform="translate(-33.24 25.8) rotate(-24.48)"/><ellipse class="cls-6" cx="42.82" cy="89.5" rx="27.66" ry="16.31" transform="translate(-33.24 25.8) rotate(-24.48)"/><path class="cls-11" d="M37.63,78.07c12.89-5.89,26.17-5,31,1.75A9.33,9.33,0,0,0,68,78c-3.73-8.21-18-9.72-32-3.39S13.88,92.75,17.58,101a9.5,9.5,0,0,0,1,1.63C16.69,94.52,24.71,83.92,37.63,78.07Z"/><path class="cls-27" d="M161.12,244.33a127.59,127.59,0,0,0,22.26-11A9.89,9.89,0,0,0,186.63,220C176.09,201.69,157,187.39,145,179.7a9.65,9.65,0,0,0-13.35,2.9,9.52,9.52,0,0,0-1.17,2.6c-3.89,13.71-8.77,37.11-4.51,57.82a9.85,9.85,0,0,0,11.25,7.81A127.27,127.27,0,0,0,161.12,244.33Z"/><path class="cls-28" d="M166.17,195.72a211.44,211.44,0,0,1-20.11,8.85,210.24,210.24,0,0,1-20.92,6.69c-1.18,10.26-1.37,21.33.82,31.76a9.85,9.85,0,0,0,11.25,7.81,128.37,128.37,0,0,0,46.22-17.5A9.89,9.89,0,0,0,186.68,220C181.32,210.79,173.83,202.58,166.17,195.72Z"/><path class="cls-7" d="M137.88,187.42c3,1,4.06,8.8,2.42,17.52s-5.37,15-8.35,14.06-4.06-8.8-2.42-17.52S134.9,186.46,137.88,187.42Z"/><path class="cls-29" d="M181.54,212.31a205.63,205.63,0,0,1-27.67,12.88,207.32,207.32,0,0,1-29.26,8.69A74.32,74.32,0,0,0,126,243a9.85,9.85,0,0,0,11.25,7.81,128.37,128.37,0,0,0,46.22-17.5A9.89,9.89,0,0,0,186.68,220,78.25,78.25,0,0,0,181.54,212.31Z"/><path class="cls-30" d="M182.65,220c-9.34-16.24-26.31-28.91-36.94-35.73A8.27,8.27,0,0,0,142.1,183c10,8.3,22.77,21,29.65,35.88a8.94,8.94,0,0,1-4,11.74,115.88,115.88,0,0,1-38.32,11.62,8.72,8.72,0,0,0,9.37,5.09,113.53,113.53,0,0,0,41-15.52A8.75,8.75,0,0,0,182.65,220Z"/><path class="cls-27" d="M184.38,256.22a127.34,127.34,0,0,0,22.92,9.55,9.87,9.87,0,0,0,12.16-6.25c6.9-20,5.09-43.82,3-57.92a9.67,9.67,0,0,0-11-8.16,9.53,9.53,0,0,0-2.72.83c-12.89,6.08-33.73,17.78-46.55,34.6a9.87,9.87,0,0,0,1.51,13.61A127.43,127.43,0,0,0,184.38,256.22Z"/><path class="cls-28" d="M224.33,228.08a209.87,209.87,0,0,1-38.67-20.71c-8.49,5.81-17,13-23.44,21.45a9.87,9.87,0,0,0,1.51,13.61,128.22,128.22,0,0,0,43.57,23.34,9.87,9.87,0,0,0,12.16-6.25C223,249.4,224.2,238.36,224.33,228.08Z"/><path class="cls-7" d="M229.25,216.25c1.23,2.87-4,8.85-11.61,13.35s-14.85,5.81-16.09,2.94,4-8.84,11.61-13.34S228.05,213.38,229.25,216.25Z"/><path class="cls-29" d="M222,250.57a207.47,207.47,0,0,1-53.68-28.74,76.9,76.9,0,0,0-6,7,9.87,9.87,0,0,0,1.51,13.61,128.22,128.22,0,0,0,43.57,23.34,9.88,9.88,0,0,0,12.1-6.26A81.91,81.91,0,0,0,222,250.57Z"/><path class="cls-30" d="M216.88,256.45c6.11-17.72,4.5-38.83,2.66-51.33a8.7,8.7,0,0,0-1.4-3.57c.28,13-.87,31-7.56,45.93a8.94,8.94,0,0,1-11.47,4.71,116.07,116.07,0,0,1-34-21.24,8.7,8.7,0,0,0,2.33,10.4A113.69,113.69,0,0,0,206.05,262,8.75,8.75,0,0,0,216.88,256.45Z"/><path class="cls-26" d="M369.54,112.63h0a9.54,9.54,0,0,0,1-.86,21.36,21.36,0,0,0-19.45-36.68A21.37,21.37,0,0,0,317.35,51c-.34.3-.68.61-1,.93h0l-.44.46a20.81,20.81,0,0,0-1.55,1.83c-4.78,6.12-16,24.63-8.58,56.91a5.9,5.9,0,0,0,3.68,4.2c31,11.63,50.85,3,57.54-1a20,20,0,0,0,2-1.29A4.77,4.77,0,0,0,369.54,112.63Z"/><path class="cls-7" d="M330.76,59.11c-6.63-.32-12-.73-11.64-3.15s6.26-6,12.89-5.63,11.47,4.37,11.12,6.79S337.39,59.47,330.76,59.11Z"/><path class="cls-31" d="M372.49,81.74A21.32,21.32,0,0,0,351.43,75a163.54,163.54,0,0,0-20.38,15.24,159.32,159.32,0,0,0-22.73,24.42,6.56,6.56,0,0,0,1.15.59c31,11.63,50.85,3,57.54-1a20,20,0,0,0,2-1.29c.34-.24.51-.38.51-.38h0a9.54,9.54,0,0,0,1-.86A21.28,21.28,0,0,0,372.49,81.74Z"/><path class="cls-32" d="M367.37,109.92a19.28,19.28,0,0,0,6.56-13.54l-.11.12h0l-.4.42c-.52.52-1.06,1-1.62,1.48-4.43,3.74-16.26,11.7-36.67,11.4a24.62,24.62,0,0,1-23.58-19.08A62.75,62.75,0,0,1,310.43,67c-3.77,8.86-6.71,22.83-2.24,42.28a5.38,5.38,0,0,0,3.36,3.84c28.31,10.62,46.43,2.71,52.54-.88a20,20,0,0,0,1.85-1.19l.46-.34h0A10.45,10.45,0,0,0,367.37,109.92Z"/><path class="cls-33" d="M373.93,96.38l-.11.12h0l-.4.42c-.52.52-1.06,1-1.62,1.48-4.43,3.74-16.26,11.7-36.67,11.4a24.6,24.6,0,0,1-16.88-7.08c-2.89,3.14-5.61,6.35-8.14,9.59a5.24,5.24,0,0,0,1.42.81c28.31,10.62,46.43,2.71,52.54-.88a20,20,0,0,0,1.85-1.19l.46-.34h0c.33-.25.65-.51,1-.79A19.27,19.27,0,0,0,373.93,96.38Z"/><path class="cls-7" d="M360.61,88.09c-6-2.85-10.78-5.29-9.53-7.39s8.07-3.08,14.06-.23S374,88.92,372.79,91,366.6,90.94,360.61,88.09Z"/><path class="cls-26" d="M340.5,31.9h0a4.21,4.21,0,0,0,.3-.55,10.12,10.12,0,0,0-14.7-13.07,10.13,10.13,0,0,0-19-5.14c-.1.18-.2.38-.29.57h0l-.12.28a8.53,8.53,0,0,0-.38,1.07c-1.12,3.51-3,13.59,5.59,26.7A2.81,2.81,0,0,0,314.25,43c15.7,0,23.09-7.07,25.4-9.95a10.16,10.16,0,0,0,.67-.91A2,2,0,0,0,340.5,31.9Z"/><path class="cls-7" d="M314.43,14.54c-3,1-5.45,1.66-5.69.53s1.79-3.68,4.79-4.63,5.82,0,6.06,1.17S317.43,13.61,314.43,14.54Z"/><path class="cls-31" d="M336.7,17.69a10.12,10.12,0,0,0-10.46.5,77.79,77.79,0,0,0-6.53,10.14,75.81,75.81,0,0,0-6.06,14.61,3.08,3.08,0,0,0,.61.07c15.69,0,23.08-7.08,25.39-10a9.54,9.54,0,0,0,.67-.9l.17-.26h0a4.21,4.21,0,0,0,.3-.55A10.08,10.08,0,0,0,336.7,17.69Z"/><path class="cls-32" d="M339.09,31.06a9.11,9.11,0,0,0,.67-7.1l0,.07h0l-.11.25a8.17,8.17,0,0,1-.48.93c-1.35,2.39-5.29,7.88-14.4,11.12a11.67,11.67,0,0,1-13.63-4.57,29.9,29.9,0,0,1-4.42-10.35c-.21,4.56.8,11.25,6,19.15a2.56,2.56,0,0,0,2.12,1.15c14.34,0,21.08-6.48,23.2-9.08a9.94,9.94,0,0,0,.62-.83l.15-.23h0A5.24,5.24,0,0,0,339.09,31.06Z"/><path class="cls-33" d="M339.76,24l0,.07h0l-.11.25a8.17,8.17,0,0,1-.48.93c-1.35,2.39-5.29,7.88-14.4,11.12a11.62,11.62,0,0,1-8.67-.35c-.76,1.87-1.44,3.75-2,5.61a2.53,2.53,0,0,0,.77.12c14.33,0,21.07-6.47,23.19-9.08a8.53,8.53,0,0,0,.62-.83,1.82,1.82,0,0,0,.15-.23h0c.11-.16.2-.33.31-.51A9.11,9.11,0,0,0,339.76,24Z"/><path class="cls-7" d="M332.48,22.48c-3.14-.27-5.67-.57-5.46-1.71s3.08-2.7,6.21-2.42,5.35,2.28,5.14,3.42S335.61,22.75,332.48,22.48Z"/><path class="cls-34" d="M77.34,190.23A36.6,36.6,0,1,0,78.56,242,36.6,36.6,0,0,0,77.34,190.23ZM42.12,227.16a16.48,16.48,0,0,1-1.8-21.81A16.48,16.48,0,0,1,64,227.93,16.48,16.48,0,0,1,42.12,227.16Z"/><path class="cls-35" d="M59.83,204.33,71.18,185.5a35.69,35.69,0,0,0-6-3l-8,20.4A16.54,16.54,0,0,1,59.83,204.33Z"/><path class="cls-35" d="M46,202.34l-8.5-19.19a35.4,35.4,0,0,0-5.87,3.23L43,203.55A17.1,17.1,0,0,1,46,202.34Z"/><path class="cls-35" d="M55.52,202.32,60.25,181a36.4,36.4,0,0,0-6.64-.88l-1,21.56A15.86,15.86,0,0,1,55.52,202.32Z"/><path class="cls-35" d="M50.92,201.63l-2-21.37a36.26,36.26,0,0,0-6.6,1.18l5.51,20.45A16.78,16.78,0,0,1,50.92,201.63Z"/><path class="cls-35" d="M65.43,225.6l17.29,11.13a36.53,36.53,0,0,0,3.14-5.92l-19.25-8.18A17.17,17.17,0,0,1,65.43,225.6Z"/><path class="cls-35" d="M40.32,205.35A16.43,16.43,0,0,1,42.23,204L29.41,188a36.4,36.4,0,0,0-3.81,3.46c-.36.38-.7.76-1,1.15l15.23,13.52C40,205.86,40.13,205.6,40.32,205.35Z"/><path class="cls-35" d="M67,221l20.37,5.5a36.15,36.15,0,0,0,1.18-6.59l-21.3-2A16.88,16.88,0,0,1,67,221Z"/><path class="cls-35" d="M65.74,211.21l20.15-8.52a35.71,35.71,0,0,0-3.13-5.92L64.25,208.63A15.84,15.84,0,0,1,65.74,211.21Z"/><path class="cls-35" d="M62.14,206.17a14.68,14.68,0,0,1,1,1.07l16.5-14.58c-.73-.83-1.5-1.65-2.32-2.43s-1.66-1.5-2.53-2.19L61,205.2A14.26,14.26,0,0,1,62.14,206.17Z"/><path class="cls-35" d="M67.1,216.05l21.52-1.3a37.21,37.21,0,0,0-1-6.63l-21.19,5A16.51,16.51,0,0,1,67.1,216.05Z"/><path class="cls-35" d="M38.77,207.86,21.44,196.7a36.53,36.53,0,0,0-3.14,5.92l19.33,8.21A16.24,16.24,0,0,1,38.77,207.86Z"/><path class="cls-35" d="M48.67,231l-4.76,21.4a36.4,36.4,0,0,0,6.64.88l1.05-21.68A16.38,16.38,0,0,1,48.67,231Z"/><path class="cls-35" d="M44.41,229,33,247.94a36.71,36.71,0,0,0,6,3l8-20.53A16.26,16.26,0,0,1,44.41,229Z"/><path class="cls-35" d="M58.15,231l8.53,19.26a35.4,35.4,0,0,0,5.87-3.23L61.09,229.83A15.88,15.88,0,0,1,58.15,231Z"/><path class="cls-35" d="M79.6,240.83l-15.21-13.5-.4.6a16.27,16.27,0,0,1-2.09,1.45l12.85,16.07A37.65,37.65,0,0,0,78.56,242C78.92,241.6,79.26,241.22,79.6,240.83Z"/><path class="cls-35" d="M53.23,231.69l2,21.48a36.26,36.26,0,0,0,6.6-1.18L56.3,231.45A16.65,16.65,0,0,1,53.23,231.69Z"/><path class="cls-35" d="M37.18,217.37l-21.64,1.31a36.32,36.32,0,0,0,1,6.63l21.32-5A15.33,15.33,0,0,1,37.18,217.37Z"/><path class="cls-35" d="M42.12,227.16c-.36-.35-.69-.7-1-1.07L24.5,240.77c.73.83,1.5,1.65,2.32,2.43s1.66,1.5,2.53,2.19l13.88-17.27C42.85,227.81,42.48,227.5,42.12,227.16Z"/><path class="cls-35" d="M37.27,212.47l-20.46-5.53a36.15,36.15,0,0,0-1.18,6.59l21.41,2A16.64,16.64,0,0,1,37.27,212.47Z"/><path class="cls-35" d="M38.55,222.17l-20.28,8.57a35.71,35.71,0,0,0,3.13,5.92L40,224.73A16,16,0,0,1,38.55,222.17Z"/><path class="cls-36" d="M31.81,238c-12.91-12.32-13.63-32.7-2-46.54-.56.53-1.12,1.06-1.66,1.63-13.19,13.82-13,35.43.49,48.27s35.06,12.05,48.25-1.77c.54-.57,1.05-1.15,1.54-1.74C65.11,250,44.72,250.27,31.81,238Z"/><path class="cls-36" d="M62.14,206.17a16.49,16.49,0,0,1,1.19,22.61c.24-.22.47-.44.69-.67a16.5,16.5,0,0,0-23.88-22.79c-.22.24-.44.48-.64.72A16.49,16.49,0,0,1,62.14,206.17Z"/><path class="cls-37" d="M42.12,227.16a16.51,16.51,0,0,1-1.24-22.56c-.25.23-.5.47-.74.72A16.5,16.5,0,1,0,64,228.11q.36-.37.69-.78A16.5,16.5,0,0,1,42.12,227.16Z"/><path class="cls-37" d="M36.34,190.6a1,1,0,0,1-1.07-1.74,26.59,26.59,0,0,1,3.92-2.5,27.86,27.86,0,0,1,24.34-.58,26.67,26.67,0,0,1,4.09,2.36,1,1,0,0,1-1,1.77,36.42,36.42,0,0,0-4.07-1.53,35.34,35.34,0,0,0-11.15-1.57,34.84,34.84,0,0,0-11.07,2.09A35.36,35.36,0,0,0,36.34,190.6Z"/></g></g></svg>