<svg xmlns="http://www.w3.org/2000/svg" viewBox="0 0 508.84 314.78"><defs><style>.cls-1{isolation:isolate;}.cls-2{fill:#f5d7ae;}.cls-10,.cls-12,.cls-14,.cls-17,.cls-18,.cls-2,.cls-24,.cls-8{opacity:0.5;}.cls-10,.cls-17,.cls-18,.cls-19,.cls-2,.cls-22,.cls-24,.cls-4,.cls-6,.cls-8{mix-blend-mode:multiply;}.cls-3,.cls-4,.cls-5,.cls-6{fill:#f5e4b0;}.cls-22,.cls-4{opacity:0.2;}.cls-23,.cls-5{opacity:0.26;}.cls-12,.cls-14,.cls-16,.cls-20,.cls-23,.cls-5{mix-blend-mode:screen;}.cls-6{opacity:0.63;}.cls-19,.cls-7,.cls-8{fill:#974c33;}.cls-9{fill:#82412c;}.cls-10,.cls-12{fill:#803d26;}.cls-11{opacity:0.31;}.cls-13,.cls-17,.cls-22,.cls-23{fill:#a8553a;}.cls-14{fill:#db6e4b;}.cls-15,.cls-16,.cls-20{fill:#b55b3e;}.cls-16{opacity:0.18;}.cls-18{fill:#f5c88c;}.cls-19{opacity:0.13;}.cls-20{opacity:0.38;}.cls-21{fill:#fcd79f;}.cls-24{fill:#edd488;}</style></defs><title>자산 3</title><g class="cls-1"><g id="레이어_2" data-name="레이어 2"><g id="OBJECTS"><path class="cls-2" d="M119.14,79.37c-3.61-16,2.41-32.86,11.69-46.39C138,22.56,147.18,13.4,158.27,7.36s24.15-8.8,36.59-6.62A32,32,0,0,1,205.5,4.39a27.38,27.38,0,0,1,12.11,16.24,38.57,38.57,0,0,1-.28,20.5c-4,14.57-19.28,23.2-31.15,32.52-8.24,6.47-17.57,12.3-28,13.2-11.2,1-22-3.88-32.58-7.55A13.45,13.45,0,0,0,119.14,79.37Z"/><path class="cls-3" d="M212.72,59.39a87,87,0,0,1-50.35,43.25A56.63,56.63,0,0,1,152.11,105c-1.2.16-2.4.26-3.6.31a28.74,28.74,0,0,1-12.38-2c-7.23-3-12.47-9.53-15.13-17a34.6,34.6,0,0,1-1.77-7.69l-.09-1c-.83-10.77,3-21.46,8.46-30.77A90,90,0,0,1,183.3,5.51c6.23-1.5,13.81-2.23,19.91.07a22.77,22.77,0,0,1,11.41,10.33C222.41,29.69,219.5,45.86,212.72,59.39Z"/><path class="cls-4" d="M183.12,92.6c-1.36.92-2.76,1.78-4.18,2.61l-1.24.71c-.74.43-1.5.83-2.25,1.23s-1.55.79-2.32,1.16l-.09,0c-.78.4-1.59.76-2.39,1.1-1,.47-2,.91-3.08,1.31-.79.33-1.6.63-2.43.93s-1.82.65-2.76,1c-8.5,2.76-18,4.11-26.24.66-10-4.19-16.16-14.94-17-25.71s3-21.46,8.46-30.78a88.91,88.91,0,0,1,6.64-9.7c.72-.92,1.46-1.82,2.22-2.71s1.75-2,2.66-3c.44-.47.88-.92,1.33-1.38a88.13,88.13,0,0,1,7.27-6.66c.39-.34.82-.68,1.24-1,.88-.71,1.77-1.39,2.67-2.06.49-.35,1-.7,1.45-1,1.55-1.09,3.11-2.12,4.71-3.11l1.3-.79,2-1.16c1.06-.59,2.14-1.17,3.22-1.71s2.29-1.13,3.45-1.66l1.66-.73,1.73-.72c.58-.24,1.16-.46,1.75-.69l.43-.15a89.1,89.1,0,0,0-27.48,28.87c-5.47,9.32-9.28,20-8.45,30.77s7,21.54,17,25.71c8.26,3.46,17.74,2.1,26.25-.65l1.07-.36Z"/><path class="cls-4" d="M183.14,92.6a85.26,85.26,0,0,1-20.76,10c-8.5,2.76-18,4.11-26.24.66-10-4.19-16.16-14.94-17-25.71s3-21.46,8.46-30.78A90,90,0,0,1,181.86,5.88a89.71,89.71,0,0,0-28.31,29.44c-5.48,9.31-9.29,20-8.45,30.77s7,21.53,17,25.72C168.68,94.57,176.09,94.25,183.14,92.6Z"/><path class="cls-5" d="M210.72,53a46.5,46.5,0,0,0,2.64-22.35,22.76,22.76,0,0,0-4.24-10.83c-1.53-1.93-3.68-3.58-6.15-3.71-2.16-.11-4.2.95-6,2.14-5,3.26-9.25,8-10.41,13.86-.74,3.68-.18,7.48-.15,11.23A39.31,39.31,0,0,1,183.67,58c-2.35,6-6.14,11.29-8.17,17.36A7.22,7.22,0,0,0,175,78c.11,2.12,1.89,3.84,3.86,4.61a11.84,11.84,0,0,0,9-.58,35.15,35.15,0,0,0,7.65-5.12,25.66,25.66,0,0,0,4.7-4.17c1.48-2,2.76-4.19,4-6.3A64.23,64.23,0,0,0,210.72,53Z"/><path class="cls-5" d="M209,41.86c.31-3.72.44-7.61-1.06-11-1.17-2.66-3.74-5.05-6.62-4.72-3,.35-5,3.51-5.59,6.52-.79,4,0,8.14.44,12.21a70.7,70.7,0,0,1,.23,12.6c-.11,1.54-.11,3.41,1.21,4.21s2.88,0,4-1C206.8,56.26,208.5,48.28,209,41.86Z"/><path class="cls-6" d="M213.89,56.93a5.76,5.76,0,0,1-.94-.3,16,16,0,0,1-5.18-4.05,72.36,72.36,0,0,1-15.25-24,55,55,0,0,1-3.45-24.1c.24,0,.5-.06.75-.07,1,8.1,2.71,16.18,6.51,23.39a88.21,88.21,0,0,0,5.91,9.28c3.95,5.68,8,11.49,13.35,15.82C215.07,54.24,214.5,55.61,213.89,56.93Z"/><path class="cls-6" d="M204.85,72.11c-1.22,1.63-2.51,3.22-3.85,4.77a20,20,0,0,1-8.09-4c-9.3-7-16.39-16.62-21.76-27a63,63,0,0,1-5.88-15.3,17.21,17.21,0,0,1-.79,2.18,5.38,5.38,0,0,1-2.12,2.75,3.89,3.89,0,0,1-2.88.26,7.56,7.56,0,0,1-2.61-1.35,20.45,20.45,0,0,1-5.59-6.72,49.9,49.9,0,0,1-2.4-5.26c.72-.57,1.46-1.14,2.19-1.68.89,1.83,1.85,3.63,2.85,5.39A11.29,11.29,0,0,0,156,29a4.09,4.09,0,0,0,3.19,1.17,4,4,0,0,0,2.91-2.23,9.76,9.76,0,0,0,.94-3.67,39,39,0,0,0,0-8.64c-.08-.76-.18-1.52-.2-2.28.88-.46,1.74-.91,2.63-1.34l.21,1.47a18.39,18.39,0,0,1,.74-1.91c.47-.24,1-.47,1.46-.68a39.45,39.45,0,0,0,2.16,16,73.17,73.17,0,0,0,4.89,10.32c4.12,7.61,8.4,15.19,14,21.83A51.87,51.87,0,0,0,204.85,72.11Z"/><path class="cls-6" d="M187.84,89.23c-1.26,1-2.56,1.91-3.87,2.8a23.13,23.13,0,0,1-2.53-1.51c-11.37-7.4-22.26-16.34-28.53-28.38a65.38,65.38,0,0,1-5.14-14,13.23,13.23,0,0,1-1.05,2.3,5.84,5.84,0,0,1-2.28,2.39,4.7,4.7,0,0,1-2.54.37,9,9,0,0,1-5.62-3.12,20.88,20.88,0,0,1-3.37-5.59,18.09,18.09,0,0,1-1.34-3.87c.69-1,1.4-1.91,2.12-2.85a31.06,31.06,0,0,1,2.63,4.2c1,2,1.86,4.1,3.44,5.67A3.73,3.73,0,0,0,143.27,49c1.45-.42,2.13-2.08,2.42-3.57a22.65,22.65,0,0,0,.42-4.86q-.8-4.2-1.3-8.45c-.43-1.63-.94-3.26-1.49-4.87.94-.86,1.89-1.71,2.84-2.54,2.28,13.58,6.41,27,13.62,38.66C166.56,74.33,176.2,83.78,187.84,89.23Z"/><path class="cls-6" d="M164.67,101.86c-.76.28-1.52.54-2.29.78-.35.1-.69.23-1.06.32a44.78,44.78,0,0,1-23.09-17,56.43,56.43,0,0,1-7.62-15.37c0,.36-.05.71-.1,1.06a10.43,10.43,0,0,1-1,3.63,5.2,5.2,0,0,1-2.65,2.56,5.44,5.44,0,0,1-5.06-.89A10.8,10.8,0,0,1,119,73.79a41.31,41.31,0,0,1,.49-5.66A21.07,21.07,0,0,1,121.06,70a15,15,0,0,0,2.62,3.22,3.5,3.5,0,0,0,3.88.53c1.14-.73,1.49-2.22,1.63-3.57a27.65,27.65,0,0,0,.14-4.07,73,73,0,0,1-1.91-11.84q-.65-2.35-1.38-4.7c.12-.23.26-.46.38-.7.32.48.6,1,.87,1.46a23.79,23.79,0,0,1,.46-3.79c.53-.9,1.08-1.8,1.65-2.67,1.34,15.09,6.2,30,15,42.34a43.13,43.13,0,0,0,6.24,7.24A48.67,48.67,0,0,0,164.67,101.86Z"/><path class="cls-6" d="M184.42,21.65a6.25,6.25,0,0,1-3.32,2.43c-2.14.56-4.41-.41-6.14-1.78a15.33,15.33,0,0,1-5.54-12,.66.66,0,0,1,0-.14c1-.43,2-.84,3-1.22A17.41,17.41,0,0,0,176,16.67,5,5,0,0,0,179,18.52a4.44,4.44,0,0,0,4.08-2.45,13.11,13.11,0,0,0,1.24-4.84q.39-3.06.75-6.12c.83-.18,1.68-.32,2.55-.46a15.36,15.36,0,0,1,.27,2.16,20.64,20.64,0,0,1,0,5.09,21.55,21.55,0,0,1-.71,2.82c-.32,1.06-.64,2.12-1,3.15A15,15,0,0,1,184.42,21.65Z"/><path class="cls-7" d="M216.52,53.89a1.24,1.24,0,0,1-1.6.14A60.78,60.78,0,0,1,207,46.87c-.88-.95-1.72-1.92-2.55-2.9a71,71,0,0,1-8-12.15,71.53,71.53,0,0,1-5.33-13.5A64.53,64.53,0,0,1,188.82,4a1.2,1.2,0,0,1,2.38-.24,83.77,83.77,0,0,0,3.15,13.57,79.65,79.65,0,0,0,5.38,12.78,79.73,79.73,0,0,0,7.46,11.68c.76,1,1.56,2,2.37,3a87.83,87.83,0,0,0,6.92,7.4A1.2,1.2,0,0,1,216.52,53.89Z"/><path class="cls-7" d="M205.25,73.77a1.23,1.23,0,0,1-1.53.28,63.24,63.24,0,0,1-15.05-11.87c-.73-.74-1.42-1.49-2.09-2.27-1.42-1.65-2.76-3.39-4.09-5.12a94.1,94.1,0,0,1-5.25-8,99.83,99.83,0,0,1-7.9-17.41,54.19,54.19,0,0,1-2.5-9.36,27.35,27.35,0,0,1,0-9.84,1.2,1.2,0,0,1,2.37.31c-.32,6,1.7,11.75,4,17.43a132.81,132.81,0,0,0,8.07,16.52,98.19,98.19,0,0,0,9.21,13.43q.63.8,1.29,1.56A78.79,78.79,0,0,0,198.07,66a83.08,83.08,0,0,0,7,6l.05,0A1.19,1.19,0,0,1,205.25,73.77Z"/><path class="cls-7" d="M174,7.79a37.66,37.66,0,0,0,3.48,5.6,10.72,10.72,0,0,0,1.84,2,1,1,0,0,0,.55.23c.15,0,.2,0,.12,0s.05,0,.26-.36.52-.93.76-1.4c.48-1,.94-2,1.36-3a53.58,53.58,0,0,0,2.07-6.46v0a1.22,1.22,0,0,1,2.39.15,21.7,21.7,0,0,1-.42,7.57,23.77,23.77,0,0,1-1.15,3.68c-.25.61-.46,1.14-.8,1.82a5.53,5.53,0,0,1-2.07,2.27,5.38,5.38,0,0,1-6-.66,7.72,7.72,0,0,1-1.63-1.74c-.41-.58-.74-1.12-1.08-1.7a15.78,15.78,0,0,1-2-7.51,1.24,1.24,0,0,1,1.25-1.22,1.22,1.22,0,0,1,1.07.65Z"/><path class="cls-7" d="M151.65,20.08A28.6,28.6,0,0,0,155.79,27a14,14,0,0,0,1.34,1.33,9,9,0,0,0,1.43,1,1.6,1.6,0,0,0,1,.27c.11,0,.2-.08.47-.47a9.16,9.16,0,0,0,.66-1.61,16.49,16.49,0,0,0,.47-1.87,24.13,24.13,0,0,0,.35-3.93,67.55,67.55,0,0,0-.67-8.26,1.2,1.2,0,0,1,2.36-.44,42.71,42.71,0,0,1,1.41,8.64,20.65,20.65,0,0,1-.26,4.56,18.15,18.15,0,0,1-.52,2.27,11.25,11.25,0,0,1-.94,2.33,4.43,4.43,0,0,1-1,1.26,3.64,3.64,0,0,1-1.74.78,4.83,4.83,0,0,1-3.09-.66,12,12,0,0,1-2-1.49A12,12,0,0,1,153.38,29a24.2,24.2,0,0,1-4-8,1.21,1.21,0,0,1,2.24-.87Z"/><path class="cls-7" d="M188.4,90.38a1.19,1.19,0,0,1-1.55.39h0a70,70,0,0,1-16.45-12,72,72,0,0,1-7.56-8.61,75.1,75.1,0,0,1-5-7.55,92.7,92.7,0,0,1-7.95-18.77,180.66,180.66,0,0,1-4.68-19.57,1.18,1.18,0,0,1,1-1.39,1.2,1.2,0,0,1,1.36.8c2,6.35,4,12.7,6.17,18.9a114.26,114.26,0,0,0,8,17.82A80.28,80.28,0,0,0,167,68.61,86,86,0,0,0,173.22,76a90.48,90.48,0,0,0,14.86,12.69A1.2,1.2,0,0,1,188.4,90.38Z"/><path class="cls-7" d="M134.51,37a48.61,48.61,0,0,0,4.78,8.55,20.43,20.43,0,0,0,1.41,1.84,2.43,2.43,0,0,0,1.24.85.83.83,0,0,0,.79-.32,4.2,4.2,0,0,0,.83-1.57,23.73,23.73,0,0,0,.23-9.38c-.48-3.24-1.26-6.56-1.87-9.89h0a1.2,1.2,0,0,1,2.34-.53c.89,3.26,1.83,6.5,2.46,10a24.5,24.5,0,0,1-.1,10.77,7.16,7.16,0,0,1-1.54,2.87,4.1,4.1,0,0,1-1.67,1.12,4,4,0,0,1-2.11.14,5.65,5.65,0,0,1-2.94-1.87,20.26,20.26,0,0,1-1.64-2.22,37.16,37.16,0,0,1-4.46-9.48,1.2,1.2,0,0,1,2.25-.82Z"/><path class="cls-7" d="M165.89,102.81A35.73,35.73,0,0,1,157,99.6a40.43,40.43,0,0,1-7.75-5.4A52.66,52.66,0,0,1,138,79.26c-.12-.22-.22-.44-.32-.64A94.12,94.12,0,0,1,131.42,62c-.82-3-1.54-6-2.14-9s-1-6.06-1.37-9.11A1.22,1.22,0,0,1,129,42.56a1.2,1.2,0,0,1,1.33,1c.5,3,1.09,5.92,1.8,8.84s1.45,5.81,2.34,8.69a96,96,0,0,0,6.48,16.5.61.61,0,0,0,.07.14,51,51,0,0,0,10.38,14.16,36.31,36.31,0,0,0,15.08,8.58h0a1.2,1.2,0,0,1-.56,2.33Z"/><path class="cls-7" d="M120.13,66.51a22.07,22.07,0,0,0,2.28,3.94,12.38,12.38,0,0,0,2.94,3.1,1.48,1.48,0,0,0,1.22.28c.26-.09.5-.39.68-1a14.67,14.67,0,0,0,.32-2.15c.06-.77.12-1.54.13-2.31.18-6.21-1.28-12.42-3.12-18.48a1.2,1.2,0,1,1,2.29-.7c1.89,6.15,3.46,12.6,3.3,19.24,0,.83-.07,1.66-.14,2.48a14.86,14.86,0,0,1-.4,2.6A4.82,4.82,0,0,1,129,75a3.27,3.27,0,0,1-1.49,1.16,3.86,3.86,0,0,1-3.36-.47A8.89,8.89,0,0,1,122,73.84a24.09,24.09,0,0,1-4.08-6.35,1.2,1.2,0,1,1,2.19-1Z"/><path class="cls-8" d="M167.28,101.94a1.18,1.18,0,0,1-1.39.87A35.73,35.73,0,0,1,157,99.6a40.43,40.43,0,0,1-7.75-5.4A52.66,52.66,0,0,1,138,79.26c-.12-.22-.22-.44-.32-.64l3.22-1a.61.61,0,0,0,.07.14,51,51,0,0,0,10.38,14.16,36.31,36.31,0,0,0,15.08,8.58h0A1.18,1.18,0,0,1,167.28,101.94Z"/><path class="cls-8" d="M188.4,90.38a1.19,1.19,0,0,1-1.55.39h0a70,70,0,0,1-16.45-12,72,72,0,0,1-7.56-8.61c1.42-.51,2.8-1,4.2-1.58A86,86,0,0,0,173.22,76a90.48,90.48,0,0,0,14.86,12.69A1.2,1.2,0,0,1,188.4,90.38Z"/><path class="cls-8" d="M214.92,54A60.78,60.78,0,0,1,207,46.87c.77-.61,1.51-1.22,2.26-1.85l.26-.22a87.83,87.83,0,0,0,6.92,7.4,1.2,1.2,0,0,1,0,1.69A1.24,1.24,0,0,1,214.92,54Z"/><path class="cls-8" d="M205.25,73.77a1.23,1.23,0,0,1-1.53.28,63.24,63.24,0,0,1-15.05-11.87c-.73-.74-1.42-1.49-2.09-2.27,1.32-.67,2.63-1.37,3.92-2.09q.63.8,1.29,1.56A78.79,78.79,0,0,0,198.07,66a83.08,83.08,0,0,0,7,6l.05,0A1.19,1.19,0,0,1,205.25,73.77Z"/><path class="cls-6" d="M152.11,105c-1.2.16-2.4.26-3.6.31a50.49,50.49,0,0,0-27.51-19,34.6,34.6,0,0,1-1.77-7.69c11,1.84,21.1,8.64,27.74,17.72A53.14,53.14,0,0,1,152.11,105Z"/><polygon class="cls-9" points="425.8 248.84 419.65 257.88 380.94 314.76 380.93 314.77 380.93 314.78 380.89 314.75 377.47 312.37 347.91 291.79 304.25 261.39 300.94 259.09 346.34 193.56 349.02 195.43 423.35 247.13 425.8 248.84"/><polygon class="cls-10" points="346.33 193.56 349.41 207.2 314.24 256.93 300.94 259.09 346.33 193.56"/><polygon class="cls-10" points="425.8 248.84 412.43 251.65 378.38 300.92 380.93 314.77 425.8 248.84"/><g class="cls-11"><polygon class="cls-12" points="377.47 312.37 304.24 261.39 311.81 260.01 376 304.37 377.47 312.37"/><polygon class="cls-12" points="423.34 247.13 414.84 248.69 350.64 204.33 349.02 195.43 423.34 247.13"/></g><path class="cls-13" d="M347.89,204.82,312,256.23a.8.8,0,0,0,.2,1.11l66.17,46.06a.78.78,0,0,0,1.11-.2l35.43-51.75a.79.79,0,0,0-.2-1.1L349,204.62A.8.8,0,0,0,347.89,204.82Z"/><path class="cls-14" d="M347.78,208.41c-.33.25-31.74,47.22-31.14,48.59s42.15,29.12,42.15,29.12-37.59-29-36.19-31.66S347.78,208.41,347.78,208.41Z"/><path class="cls-15" d="M399.11,268.34a37.44,37.44,0,0,0,4.05-8.79,15.77,15.77,0,0,0-.06-9.54,19.29,19.29,0,0,0-3.42-5.59c-7.18-8.83-17.33-15-28.21-18.35a19.54,19.54,0,0,0-5.69-1.07,8.06,8.06,0,0,0-5.38,1.85c-2.12,1.92-2.64,5.15-1.93,7.91a18.49,18.49,0,0,0,4.32,7.28c4.39,5.05,9.72,9.35,13.14,15.09,4.32,7.25,5.14,16.1,4.43,24.5-.16,1.8-.24,3.93,1.19,5,3.64,2.77,7.64-3.75,9.31-6A125.76,125.76,0,0,0,399.11,268.34Z"/><path class="cls-16" d="M387.88,237.6a11.07,11.07,0,0,0-4.3-1.31,3.89,3.89,0,0,0-3.74,2.06,5.35,5.35,0,0,0,.48,4.06,32.34,32.34,0,0,0,4,6.8,12.51,12.51,0,0,0,3.35,3.22,5.6,5.6,0,0,0,4.48.68,5.37,5.37,0,0,0,3.4-4.54C396.13,243.22,392.27,239.65,387.88,237.6Z"/><path class="cls-16" d="M390.8,255.81a3.42,3.42,0,0,0-2.05,2.63,7,7,0,0,0,.35,3.42,5.07,5.07,0,0,0,1.1,2.12,3.77,3.77,0,0,0,4.4.43,6.55,6.55,0,0,0,2.82-3.67c.55-1.58.79-4.44-1.18-5.2C395.15,255.12,391.88,255.43,390.8,255.81Z"/><path class="cls-17" d="M419.65,257.88l-38.71,56.88h-.05l-3.42-2.38-29.56-20.58C360.35,286,385.08,274.3,402.49,266h0c7.75-3.67,14-6.67,17.14-8.15Z"/><polygon class="cls-9" points="0 189.13 3.38 183.38 24.67 147.17 24.67 147.16 24.67 147.16 24.7 147.17 26.88 148.49 45.71 159.83 73.53 176.59 75.64 177.85 50.63 219.6 48.92 218.57 1.56 190.07 0 189.13"/><polygon class="cls-10" points="50.63 219.6 48.21 211.41 67.63 179.71 75.64 177.85 50.63 219.6"/><polygon class="cls-10" points="0 189.13 8.03 186.88 26.78 155.49 24.67 147.16 0 189.13"/><g class="cls-11"><polygon class="cls-12" points="26.88 148.48 73.54 176.59 68.99 177.73 28.09 153.3 26.88 148.48"/><polygon class="cls-12" points="1.56 190.07 6.68 188.78 47.58 213.21 48.92 218.57 1.56 190.07"/></g><path class="cls-13" d="M49.23,212.8,69,180a.49.49,0,0,0-.17-.67L26.68,154a.49.49,0,0,0-.67.17L6.51,187.1a.48.48,0,0,0,.17.66L48.57,213A.48.48,0,0,0,49.23,212.8Z"/><path class="cls-14" d="M49.16,210.61c.19-.16,17.42-30,17-30.85s-26.85-16-26.85-16,24.07,16.14,23.32,17.83S49.16,210.61,49.16,210.61Z"/><path class="cls-15" d="M15.47,176.18a23.32,23.32,0,0,0-2.11,5.51,9.6,9.6,0,0,0,.42,5.81,11.84,11.84,0,0,0,2.31,3.27,35.6,35.6,0,0,0,17.92,10,11.93,11.93,0,0,0,3.51.42,4.88,4.88,0,0,0,3.2-1.34,4.93,4.93,0,0,0,.86-4.9,11.28,11.28,0,0,0-2.93-4.26c-2.87-2.89-6.29-5.3-8.6-8.66-2.93-4.24-3.79-9.6-3.69-14.75,0-1.09,0-2.4-.93-3-2.33-1.54-4.5,2.59-5.43,4A76.6,76.6,0,0,0,15.47,176.18Z"/><path class="cls-16" d="M23.55,194.45a7,7,0,0,0,2.68.63,2.39,2.39,0,0,0,2.19-1.41,3.3,3.3,0,0,0-.46-2.46,19.13,19.13,0,0,0-2.69-4,7.46,7.46,0,0,0-2.17-1.83,3.42,3.42,0,0,0-2.76-.24,3.25,3.25,0,0,0-1.88,2.9C18.3,191.36,20.79,193.38,23.55,194.45Z"/><path class="cls-16" d="M21,183.47a2.08,2.08,0,0,0,1.14-1.68,4.24,4.24,0,0,0-.35-2.07,2.94,2.94,0,0,0-.76-1.24,2.28,2.28,0,0,0-2.69-.09,3.93,3.93,0,0,0-1.57,2.35c-.28,1-.31,2.74.93,3.12A7.6,7.6,0,0,0,21,183.47Z"/><polygon class="cls-18" points="139.31 234.67 196.73 99.67 325.01 159.41 258.66 290.45 139.31 234.67"/><polygon class="cls-9" points="199.98 104.88 169.65 169.78 229.39 197.7 249.19 155.35 259.61 132.75 199.98 104.88"/><polygon class="cls-10" points="199.98 104.88 169.65 169.78 169.72 169.81 179.02 165.07 202.85 115.14 200.32 105.04 199.98 104.88"/><polygon class="cls-10" points="259.45 132.67 250.1 137.97 227.06 187.27 229.23 197.62 229.39 197.7 249.3 155.1 259.61 132.75 259.45 132.67"/><g class="cls-11"><polygon class="cls-12" points="226.64 196.41 225.45 190.71 177.35 168.23 172.21 170.97 226.64 196.41"/><polygon class="cls-12" points="202.3 105.96 203.65 112.44 251.75 134.92 257.59 131.8 202.3 105.96"/></g><path class="cls-13" d="M201.67,113.49,177.38,165a.66.66,0,0,0,.18.89l49.59,23.46a.65.65,0,0,0,.8-.43l24-51.69a.65.65,0,0,0-.18-.88l-49.26-23.28A.65.65,0,0,0,201.67,113.49Z"/><path class="cls-14" d="M201.71,116.54c-.23.28-21.43,47-21,48s31.58,14.76,31.58,14.76-28.26-15.7-27.34-18.27S201.71,116.54,201.71,116.54Z"/><path class="cls-15" d="M241,155.08a45.13,45.13,0,0,0,2.64-8.32,15,15,0,0,0-.37-8,12,12,0,0,0-2.66-3.91c-5.52-5.76-13.1-8.6-21.1-8.91a11.69,11.69,0,0,0-4.17.41,7.52,7.52,0,0,0-3.84,2.8,8.75,8.75,0,0,0-1.14,7.09,11.51,11.51,0,0,0,3.39,5.13c3.35,3.23,7.37,5.62,10,9.65,3.38,5.1,4.28,12.35,4.05,19.59-.05,1.54,0,3.35,1,3.94,2.73,1.49,5.41-4.92,6.55-7.16C237.46,163.36,239.33,159.25,241,155.08Z"/><path class="cls-16" d="M231.81,131.83a6.4,6.4,0,0,0-3.17-.12,4,4,0,0,0-2.64,2.6,4.67,4.67,0,0,0,.48,3.3,19.94,19.94,0,0,0,3.12,4.8,6.5,6.5,0,0,0,2.53,1.94,3.58,3.58,0,0,0,3.28-.46,6.29,6.29,0,0,0,2.31-4.6C238,134.64,235.06,132.53,231.81,131.83Z"/><path class="cls-16" d="M234.54,146.47a4,4,0,0,0-1.4,2.67,6.51,6.51,0,0,0,.37,2.81,3.28,3.28,0,0,0,.88,1.52c.84.69,2.22.31,3.2-.65a7.85,7.85,0,0,0,1.93-3.74c.34-1.46.42-3.92-1-4.1A9.39,9.39,0,0,0,234.54,146.47Z"/><polygon class="cls-9" points="259.58 132.73 229.25 197.63 288.99 225.56 308.79 183.2 319.21 160.6 259.58 132.73"/><polygon class="cls-10" points="319.05 160.53 309.7 165.83 286.66 215.12 288.83 225.48 288.99 225.56 308.91 182.95 319.21 160.6 319.05 160.53"/><g class="cls-11"><polygon class="cls-12" points="286.24 224.27 285.05 218.57 236.95 196.09 231.81 198.83 286.24 224.27"/><polygon class="cls-12" points="261.9 133.82 263.25 140.3 311.35 162.78 317.19 159.66 261.9 133.82"/></g><path class="cls-13" d="M261.27,141.35,237,192.86a.66.66,0,0,0,.18.89l49.59,23.46c.27.13.63-.07.8-.43l24-51.69a.65.65,0,0,0-.18-.88l-49.26-23.29A.66.66,0,0,0,261.27,141.35Z"/><path class="cls-14" d="M261.31,144.39c-.23.29-21.43,47-20.95,48.05s31.58,14.76,31.58,14.76-28.26-15.7-27.34-18.28S261.31,144.39,261.31,144.39Z"/><path class="cls-15" d="M300.6,182.94a45.47,45.47,0,0,0,2.64-8.33,15.12,15.12,0,0,0-.36-8,12.06,12.06,0,0,0-2.67-3.91c-5.52-5.77-13.09-8.61-21.1-8.92a11.93,11.93,0,0,0-4.17.42,7.47,7.47,0,0,0-3.84,2.8,8.7,8.7,0,0,0-1.13,7.09,11.41,11.41,0,0,0,3.38,5.13c3.35,3.23,7.37,5.62,10,9.65,3.38,5.1,4.28,12.35,4.05,19.59-.05,1.54,0,3.35,1,3.94,2.73,1.49,5.41-4.92,6.55-7.16C297.07,191.22,298.93,187.11,300.6,182.94Z"/><path class="cls-16" d="M291.41,159.68a6.28,6.28,0,0,0-3.17-.11,4,4,0,0,0-2.64,2.6,4.67,4.67,0,0,0,.48,3.3,20.14,20.14,0,0,0,3.12,4.8,6.54,6.54,0,0,0,2.53,1.93,3.55,3.55,0,0,0,3.28-.46,6.22,6.22,0,0,0,2.31-4.59C297.59,162.5,294.66,160.39,291.41,159.68Z"/><path class="cls-16" d="M294.14,174.32a4,4,0,0,0-1.4,2.68,6.44,6.44,0,0,0,.37,2.8,3.36,3.36,0,0,0,.88,1.53c.84.69,2.22.31,3.2-.65a7.84,7.84,0,0,0,1.93-3.75c.34-1.45.42-3.91-1-4.1A9.39,9.39,0,0,0,294.14,174.32Z"/><polygon class="cls-9" points="169.65 169.78 139.31 234.67 199.06 262.6 218.85 220.25 229.27 197.64 169.65 169.78"/><polygon class="cls-10" points="169.65 169.78 139.31 234.67 139.39 234.71 148.68 229.97 172.52 180.04 169.99 169.94 169.65 169.78"/><polygon class="cls-10" points="229.12 197.57 219.76 202.87 196.73 252.16 198.9 262.52 199.06 262.6 218.97 220 229.27 197.64 229.12 197.57"/><g class="cls-11"><polygon class="cls-12" points="196.31 261.31 195.12 255.61 147.02 233.13 141.88 235.87 196.31 261.31"/><polygon class="cls-15" points="171.97 170.86 173.32 177.34 221.42 199.82 227.26 196.7 171.97 170.86"/></g><path class="cls-13" d="M171.34,178.39,147.05,229.9a.66.66,0,0,0,.18.89l49.59,23.46a.65.65,0,0,0,.8-.43l24-51.69a.65.65,0,0,0-.19-.88L172.13,178A.66.66,0,0,0,171.34,178.39Z"/><path class="cls-14" d="M171.38,181.43c-.23.29-21.43,47-21,48S182,244.24,182,244.24s-28.27-15.7-27.34-18.28S171.38,181.43,171.38,181.43Z"/><path class="cls-15" d="M210.67,220a45.62,45.62,0,0,0,2.64-8.32,15.15,15.15,0,0,0-.37-8,11.91,11.91,0,0,0-2.67-3.91c-5.51-5.76-13.09-8.61-21.1-8.91a11.73,11.73,0,0,0-4.17.41,7.51,7.51,0,0,0-3.84,2.8,8.7,8.7,0,0,0-1.13,7.09,11.51,11.51,0,0,0,3.39,5.13c3.35,3.23,7.36,5.62,10,9.65,3.38,5.1,4.28,12.35,4,19.59-.05,1.54,0,3.35,1,3.94,2.74,1.49,5.42-4.92,6.56-7.16C207.13,228.26,209,224.15,210.67,220Z"/><path class="cls-16" d="M201.47,196.72a6.36,6.36,0,0,0-3.16-.11,4,4,0,0,0-2.64,2.6,4.67,4.67,0,0,0,.48,3.3,19.62,19.62,0,0,0,3.11,4.8,6.63,6.63,0,0,0,2.54,1.94,3.56,3.56,0,0,0,3.27-.46,6.3,6.3,0,0,0,2.32-4.6C207.65,199.54,204.73,197.43,201.47,196.72Z"/><path class="cls-16" d="M204.21,211.37a4,4,0,0,0-1.4,2.67,6.36,6.36,0,0,0,.37,2.81,3.4,3.4,0,0,0,.87,1.52c.84.69,2.23.31,3.21-.65a7.74,7.74,0,0,0,1.92-3.75c.35-1.45.43-3.91-1-4.09A9.13,9.13,0,0,0,204.21,211.37Z"/><polygon class="cls-9" points="229.25 197.63 198.92 262.53 258.66 290.45 278.46 248.1 288.87 225.5 229.25 197.63"/><polygon class="cls-10" points="288.72 225.43 279.37 230.73 256.33 280.02 258.5 290.38 258.66 290.45 278.57 247.85 288.88 225.5 288.72 225.43"/><g class="cls-11"><polygon class="cls-12" points="255.91 289.17 254.72 283.47 206.62 260.99 201.48 263.73 255.91 289.17"/><polygon class="cls-15" points="231.57 198.72 232.92 205.2 281.02 227.68 286.86 224.56 231.57 198.72"/></g><path class="cls-13" d="M230.94,206.24l-24.29,51.52a.66.66,0,0,0,.18.89l49.59,23.46c.27.13.63-.07.8-.43l24-51.7a.65.65,0,0,0-.18-.88l-49.26-23.28A.65.65,0,0,0,230.94,206.24Z"/><path class="cls-14" d="M231,209.29c-.23.29-21.43,47-20.95,48s31.58,14.77,31.58,14.77-28.27-15.7-27.34-18.28S231,209.29,231,209.29Z"/><path class="cls-15" d="M270.27,247.83a45.13,45.13,0,0,0,2.64-8.32,15.11,15.11,0,0,0-.37-8,11.91,11.91,0,0,0-2.67-3.91c-5.51-5.77-13.09-8.61-21.1-8.92a12,12,0,0,0-4.17.42,7.49,7.49,0,0,0-3.83,2.8,8.74,8.74,0,0,0-1.14,7.09,11.51,11.51,0,0,0,3.39,5.13c3.35,3.22,7.36,5.61,10,9.65,3.38,5.1,4.28,12.35,4.05,19.59-.05,1.54,0,3.35,1,3.94,2.73,1.49,5.41-4.92,6.55-7.16Q267.75,254.1,270.27,247.83Z"/><path class="cls-16" d="M261.07,224.58a6.24,6.24,0,0,0-3.16-.11,4,4,0,0,0-2.64,2.6,4.68,4.68,0,0,0,.48,3.3,19.84,19.84,0,0,0,3.12,4.8,6.4,6.4,0,0,0,2.53,1.93,3.55,3.55,0,0,0,3.28-.46A6.29,6.29,0,0,0,267,232C267.26,227.4,264.33,225.29,261.07,224.58Z"/><path class="cls-16" d="M263.81,239.22a4,4,0,0,0-1.4,2.68,6.3,6.3,0,0,0,.37,2.8,3.35,3.35,0,0,0,.87,1.52c.85.7,2.23.32,3.21-.64a7.74,7.74,0,0,0,1.92-3.75c.35-1.45.43-3.91-1-4.1A9.39,9.39,0,0,0,263.81,239.22Z"/><ellipse class="cls-18" cx="66.31" cy="250.89" rx="15.97" ry="15.08" transform="translate(-163.27 129.9) rotate(-47.41)"/><path class="cls-7" d="M79.07,258.74a15.23,15.23,0,0,1-1.55,1.46,14.65,14.65,0,0,1-19.12-.6A14.62,14.62,0,0,1,64,234.84a14.3,14.3,0,0,1,4.15-.63,14.63,14.63,0,0,1,10.9,24.53Z"/><path class="cls-19" d="M77.52,260.2a14.65,14.65,0,0,1-19.12-.6A14.62,14.62,0,0,1,64,234.84a14.3,14.3,0,0,1,4.15-.63,18.45,18.45,0,0,0-5.23,7.93,13.81,13.81,0,0,0,1.82,12.35,15.11,15.11,0,0,0,9.42,5.37A22,22,0,0,0,77.52,260.2Z"/><path class="cls-19" d="M72,263a14.63,14.63,0,0,1-8-28.14c-.28.28-.55.59-.82.9a24.41,24.41,0,0,0-4.44,7,14.66,14.66,0,0,0-.85,8.17,15.12,15.12,0,0,0,7.62,9.71A23,23,0,0,0,72,263Z"/><path class="cls-20" d="M75.79,239.73c-1.1.12-1.83,1.19-2.24,2.21a10.92,10.92,0,0,0,.06,8.18c.59,1.4,1.76,2.83,3.28,2.75a3.62,3.62,0,0,0,2.62-1.8,9.45,9.45,0,0,0,1.28-7.36C80.31,241.89,77.72,239.51,75.79,239.73Z"/><path class="cls-18" d="M154.56,266.79a9.12,9.12,0,1,1,1.9-13.12A9.39,9.39,0,0,1,154.56,266.79Z"/><path class="cls-7" d="M155.77,265.54a9,9,0,0,1-1.06.72,8.66,8.66,0,0,1-3.55,1.14,8.83,8.83,0,0,1-6.36-15.71,8.71,8.71,0,0,1,4.27-1.82,8.26,8.26,0,0,1,2.53,0,8.73,8.73,0,0,1,5.61,3.24A8.84,8.84,0,0,1,155.77,265.54Z"/><path class="cls-19" d="M154.71,266.26a8.66,8.66,0,0,1-3.55,1.14,8.83,8.83,0,0,1-6.36-15.71,8.71,8.71,0,0,1,4.27-1.82,8.26,8.26,0,0,1,2.53,0,11.13,11.13,0,0,0-3.87,4.22,8.35,8.35,0,0,0-.09,7.54,9.12,9.12,0,0,0,5.11,4.1A13.12,13.12,0,0,0,154.71,266.26Z"/><path class="cls-19" d="M151.16,267.4a8.83,8.83,0,0,1-6.36-15.71,8.71,8.71,0,0,1,4.27-1.82c-.2.14-.39.3-.58.45a14.62,14.62,0,0,0-3.31,3.75,8.84,8.84,0,0,0-1.28,4.79,9.11,9.11,0,0,0,3.62,6.51A13.85,13.85,0,0,0,151.16,267.4Z"/><path class="cls-20" d="M155.61,253.9a1.88,1.88,0,0,0-1.54,1.1,6.56,6.56,0,0,0-.74,4.88c.22.9.78,1.86,1.7,2a2.2,2.2,0,0,0,1.73-.83,5.75,5.75,0,0,0,1.46-4.27C158.11,255.61,156.79,254,155.61,253.9Z"/><path class="cls-18" d="M354.18,183.18a6.67,6.67,0,1,1-3.8,8.93A6.85,6.85,0,0,1,354.18,183.18Z"/><path class="cls-7" d="M353.09,183.84a5.81,5.81,0,0,1,.88-.32,6.47,6.47,0,0,1,4.29,12.16,6.36,6.36,0,0,1-3.36.49,6.16,6.16,0,0,1-1.79-.48,6.46,6.46,0,0,1,0-11.85Z"/><path class="cls-19" d="M354,183.52a6.47,6.47,0,0,1,4.29,12.16,6.36,6.36,0,0,1-3.36.49,6.16,6.16,0,0,1-1.79-.48,8.13,8.13,0,0,0,3.53-2.27,6.11,6.11,0,0,0,1.47-5.31,6.69,6.69,0,0,0-2.85-3.86A11.6,11.6,0,0,0,354,183.52Z"/><path class="cls-19" d="M356.69,183.38a6.46,6.46,0,0,1,1.57,12.3,6.36,6.36,0,0,1-3.36.49,5.16,5.16,0,0,0,.49-.21,10.78,10.78,0,0,0,3-2,6.46,6.46,0,0,0,1.8-3.15,6.65,6.65,0,0,0-1.34-5.28A10.06,10.06,0,0,0,356.69,183.38Z"/><path class="cls-20" d="M351,192.1a1.38,1.38,0,0,0,1.3-.49,4.83,4.83,0,0,0,1.43-3.32,1.69,1.69,0,0,0-.83-1.7,1.61,1.61,0,0,0-1.38.27,4.16,4.16,0,0,0-1.83,2.74A2.62,2.62,0,0,0,351,192.1Z"/><path class="cls-21" d="M349.56,139a.89.89,0,0,1-.76-.78,14.4,14.4,0,0,1,.45-5.39,5.27,5.27,0,0,1,1.12-2.27,2.37,2.37,0,0,1,2.31-.73,2.26,2.26,0,0,1,1.43,1.76,4.11,4.11,0,0,1-.34,2.31,6.1,6.1,0,0,1,2.66.09,2.14,2.14,0,0,1,1.47,2,2.43,2.43,0,0,1-.39,1.07,3.68,3.68,0,0,1-1,1.05A7.74,7.74,0,0,1,353,139.1,14.35,14.35,0,0,1,349.56,139Z"/><path class="cls-21" d="M61.2,72.09a.82.82,0,0,1-1-.34,13.36,13.36,0,0,1-1.87-4.67,4.79,4.79,0,0,1,0-2.35A2.17,2.17,0,0,1,60,63.16a2.1,2.1,0,0,1,1.92.86,3.81,3.81,0,0,1,.68,2.07,5.67,5.67,0,0,1,2.25-1,2,2,0,0,1,2,1,2.09,2.09,0,0,1,.12,1,3.16,3.16,0,0,1-.42,1.3,7,7,0,0,1-2.44,2.33A13.25,13.25,0,0,1,61.2,72.09Z"/><path class="cls-13" d="M298,32a84.62,84.62,0,0,0,16.74,63.08c6.24,8,14.26,15.08,24,18.09s21.27,1.35,28.39-5.91c5.89-6,8-14.78,8.55-23.18A81.89,81.89,0,0,0,355.32,25C345.85,14.41,332.72,6.24,318,8.26a21.45,21.45,0,0,0-13,6.38C300.83,19.18,298.83,26.06,298,32Z"/><path class="cls-22" d="M374.07,62.48c.33,1.5.6,3,.83,4.56.06.45.12.89.19,1.33.11.8.2,1.6.29,2.4s.15,1.63.21,2.43v.09c.07.83.11,1.65.13,2.48,0,1,.08,2.09.07,3.14,0,.81,0,1.63,0,2.45s-.06,1.82-.12,2.75c-.55,8.39-2.67,17.17-8.55,23.17-7.13,7.27-18.69,8.94-28.4,5.93s-17.73-10.07-24-18.11a81.32,81.32,0,0,1-6.17-9.18C308,85,307.46,84,307,83s-1.13-2.22-1.67-3.36c-.25-.55-.5-1.09-.75-1.65a85.27,85.27,0,0,1-3.3-8.66c-.15-.47-.31-1-.44-1.44-.31-1-.6-2-.87-3.05-.14-.55-.28-1.09-.4-1.63q-.61-2.58-1.08-5.19c-.07-.47-.16-1-.24-1.42-.11-.73-.21-1.46-.31-2.17-.15-1.13-.28-2.27-.38-3.4s-.19-2.4-.25-3.6c0-.56,0-1.13-.05-1.7s0-1.18,0-1.77,0-1.17,0-1.77c0-.13,0-.28,0-.43a83.92,83.92,0,0,0,15.69,34.07c6.24,8,14.27,15.08,24,18.09s21.27,1.35,28.39-5.9c5.9-6,8-14.79,8.55-23.18,0-.35.05-.71.06-1.07S374,62.92,374.07,62.48Z"/><path class="cls-22" d="M374.08,62.46a80.29,80.29,0,0,1,1.56,21.65c-.55,8.39-2.67,17.17-8.55,23.17-7.13,7.27-18.69,8.94-28.4,5.93s-17.73-10.07-24-18.11A84.58,84.58,0,0,1,297.8,33.42a84.28,84.28,0,0,0,15.9,35c6.23,8,14.26,15.08,24,18.1s21.28,1.35,28.4-5.92C370.77,75.79,373.07,69.2,374.08,62.46Z"/><path class="cls-23" d="M349,24.57a43.91,43.91,0,0,0-18.63-10.08,21.36,21.36,0,0,0-10.94-.05,8.29,8.29,0,0,0-5.38,4.08,9.74,9.74,0,0,0-.22,6c1.12,5.47,3.81,10.88,8.5,13.92,3,1.93,6.48,2.76,9.77,4A37.08,37.08,0,0,1,344,50c4.39,4.13,7.74,9.29,12.34,13.18a6.63,6.63,0,0,0,2.16,1.36c1.89.64,4-.31,5.38-1.77a11.15,11.15,0,0,0,2.61-8.06,33.11,33.11,0,0,0-1.81-8.47,23.84,23.84,0,0,0-2-5.56,69.84,69.84,0,0,0-4.1-5.71A60.93,60.93,0,0,0,349,24.57Z"/><path class="cls-23" d="M338.71,22.17c-3.14-1.56-6.5-3-10-2.9-2.73.09-5.71,1.51-6.42,4.15S323.61,29,326,30.57c3.24,2.09,7.12,2.83,10.83,3.86A67,67,0,0,1,348,38.62c1.31.63,3,1.28,4.1.4s1-2.52.54-3.83C350.53,29.13,344.14,24.87,338.71,22.17Z"/><path class="cls-13" d="M474.81,189.89a61.37,61.37,0,0,0-22,41.87c-.61,7.35.21,15,3.91,21.42s10.68,11.15,18.05,10.77c6.09-.31,11.52-4,15.93-8.17a59.32,59.32,0,0,0,18.14-41.48C509,204,506,193.18,497.13,187a15.5,15.5,0,0,0-10.06-3C482.64,184.44,478.19,187.13,474.81,189.89Z"/><path class="cls-22" d="M500.47,243.47c-.57,1-1.17,1.91-1.8,2.84l-.55.81c-.33.48-.68.95-1,1.42l-1.08,1.4,0,.05c-.37.48-.76.94-1.15,1.39s-1,1.15-1.5,1.71-.8.86-1.22,1.29-.93.94-1.42,1.4c-4.41,4.21-9.84,7.85-15.93,8.17-7.37.38-14.36-4.4-18.06-10.77s-4.52-14.07-3.9-21.42a59.09,59.09,0,0,1,1.21-7.93c.17-.78.36-1.55.56-2.32s.48-1.74.76-2.61c.13-.42.26-.83.41-1.25a58.76,58.76,0,0,1,2.49-6.24c.14-.33.3-.66.47-1,.33-.7.67-1.38,1-2.06.19-.36.39-.71.59-1.06.63-1.12,1.28-2.22,2-3.3l.57-.87q.45-.67.9-1.32c.47-.67,1-1.35,1.47-2s1.07-1.37,1.63-2l.8-.94.85-1,.88-.95.21-.22a60.76,60.76,0,0,0-8.34,25.88c-.61,7.34.21,15,3.91,21.41s10.68,11.16,18,10.78c6.1-.31,11.53-4,15.94-8.17.18-.17.37-.35.55-.54S500.22,243.68,500.47,243.47Z"/><path class="cls-22" d="M500.48,243.47a58.48,58.48,0,0,1-9.79,12.31c-4.41,4.21-9.84,7.85-15.93,8.17-7.37.38-14.36-4.4-18.06-10.77s-4.52-14.07-3.9-21.42A61.28,61.28,0,0,1,474,190.55,61.1,61.1,0,0,0,465.35,217c-.61,7.34.21,15,3.91,21.41s10.68,11.16,18.05,10.78C492.18,249,496.63,246.57,500.48,243.47Z"/><path class="cls-23" d="M505.71,211a31.76,31.76,0,0,0-5-14.52,15.44,15.44,0,0,0-5.81-5.4,6,6,0,0,0-4.87-.46,7.08,7.08,0,0,0-3.06,3.09c-2.09,3.47-3.31,7.68-2.3,11.6.63,2.48,2.1,4.65,3.23,6.95a27,27,0,0,1,2.65,9.79c.31,4.36-.43,8.76.11,13.09a5,5,0,0,0,.49,1.78,3.89,3.89,0,0,0,3.74,1.7,8.08,8.08,0,0,0,5.34-3,23.49,23.49,0,0,0,3.19-5.41,17,17,0,0,0,1.65-3.95,50.84,50.84,0,0,0,.62-5.07A43.79,43.79,0,0,0,505.71,211Z"/><path class="cls-23" d="M501.38,204.62c-.91-2.38-2-4.8-3.91-6.46-1.51-1.29-3.79-2-5.47-.94s-2,3.64-1.5,5.66c.7,2.7,2.4,5,3.88,7.37a48,48,0,0,1,3.86,7.68c.39,1,.95,2.13,2,2.23s1.76-.87,2.16-1.78C504.27,214.13,503,208.72,501.38,204.62Z"/><path class="cls-13" d="M153.36,170.66c-3.1,10.21-11.66,18.61-20.39,22.09s-17.54,2.67-25.28,0a49.69,49.69,0,0,1-14.12-7.68c-10-7.68-17.49-19.23-21.15-33.09-1.41-5.34-2.23-12.12-.55-18.31a29.76,29.76,0,0,1,8-13.08c11-10.63,24.21-12,35.41-9.2l.66.18a50.49,50.49,0,0,1,27.51,19A60.36,60.36,0,0,1,152,146.72l.39,1.14C154.67,154.73,155.78,162.67,153.36,170.66Z"/><path class="cls-22" d="M143.24,130.19c.78,1,1.53,2.09,2.25,3.19.2.32.4.64.61,1,.37.58.72,1.17,1.06,1.76s.7,1.22,1,1.84l0,.06c.34.63.66,1.27,1,1.93.41.81.79,1.63,1.15,2.5.29.64.56,1.31.83,2s.59,1.51.86,2.3c2.5,7.12,3.88,15.5,1.33,23.94A36.23,36.23,0,0,1,133,192.75c-8.74,3.48-17.54,2.67-25.29,0a50.75,50.75,0,0,1-8.09-3.66c-.76-.43-1.52-.88-2.27-1.35s-1.67-1.11-2.49-1.7c-.39-.29-.78-.57-1.17-.88a50.88,50.88,0,0,1-5.63-5c-.29-.28-.58-.58-.85-.89-.61-.63-1.18-1.28-1.76-1.94-.3-.35-.6-.71-.88-1.07-.93-1.15-1.82-2.32-2.67-3.54l-.68-1-1-1.56c-.51-.83-1-1.67-1.48-2.53s-1-1.81-1.46-2.75c-.21-.44-.43-.88-.64-1.34s-.43-.93-.64-1.41-.41-1-.61-1.44l-.14-.35a52,52,0,0,0,24.31,18c7.74,2.68,16.55,3.49,25.28,0s17.3-11.86,20.39-22.07c2.56-8.45,1.17-16.82-1.33-23.94-.1-.3-.2-.6-.32-.9Z"/><path class="cls-22" d="M143.24,130.18A60.65,60.65,0,0,1,152,146.72c2.5,7.12,3.88,15.5,1.33,23.94A36.23,36.23,0,0,1,133,192.75c-8.74,3.48-17.54,2.67-25.29,0C91,187,78.2,172.4,72.76,153.19a52.42,52.42,0,0,0,24.79,18.59c7.74,2.69,16.55,3.5,25.28,0a36.17,36.17,0,0,0,20.4-22.08A36.1,36.1,0,0,0,143.24,130.18Z"/><path class="cls-23" d="M110.2,114.81A34.5,34.5,0,0,0,92,118a24.64,24.64,0,0,0-8.68,6.62,11.48,11.48,0,0,0-2.83,6.58,8.1,8.1,0,0,0,1.92,5c2.8,3.74,6.82,6.48,11.59,6.08,3-.25,6.08-1.72,9.14-2.69a27.57,27.57,0,0,1,12-1.18c4.91.66,9.36,2.8,14.36,3.14a5.13,5.13,0,0,0,2.18-.22c1.72-.64,3.07-2.7,3.64-4.71a11.54,11.54,0,0,0-.75-8.1,22.37,22.37,0,0,0-4.39-5.74,15.18,15.18,0,0,0-3.54-3.27,41.85,41.85,0,0,0-5.24-2.11A38.47,38.47,0,0,0,110.2,114.81Z"/><path class="cls-23" d="M101.2,119.17c-3,.65-6.2,1.52-8.93,3.75-2.13,1.74-4,4.71-3.64,7.27.38,2.71,3,3.71,5.47,3.49,3.29-.28,6.62-2.05,9.91-3.47a58.43,58.43,0,0,1,10.24-3.38c1.26-.29,2.78-.76,3.39-2.18a3.1,3.1,0,0,0-.92-3.42C113,117.59,106.43,118,101.2,119.17Z"/><path class="cls-3" d="M138.42,159.32a21.06,21.06,0,0,1-1,4.55,17.67,17.67,0,0,1-1.87,3.93A21.89,21.89,0,0,1,112,176.41a22.54,22.54,0,0,1-7.83-3.88,25.22,25.22,0,0,1-9.25-14.23,23.12,23.12,0,0,1-.41-8.62,19.62,19.62,0,0,1,2.67-7.4q.23-.39.48-.75a17.79,17.79,0,0,1,6.54-5.84,15.08,15.08,0,0,1,8.69-1.56,13.9,13.9,0,0,1,8,3.63,15.4,15.4,0,0,1,4.25,7.5,18.1,18.1,0,0,1,.51,4.21,11.52,11.52,0,0,1-.77,4.33,8.39,8.39,0,0,1-6.88,5.26,7.18,7.18,0,0,1-7.22-4.32,6.13,6.13,0,0,1,2.75-7.49.46.46,0,0,1,.61.2.45.45,0,0,1-.17.58h0a4.9,4.9,0,0,0-1.73,6.09,5.35,5.35,0,0,0,5.52,2.81,6.14,6.14,0,0,0,4.67-4.06,11.78,11.78,0,0,0-.26-6.81,12.34,12.34,0,0,0-3.6-5.74,10.31,10.31,0,0,0-6-2.4,11.6,11.6,0,0,0-6.4,1.41,13.44,13.44,0,0,0-4.81,4.61,14.51,14.51,0,0,0-2.06,5.49,18.49,18.49,0,0,0,.35,7.72,20.31,20.31,0,0,0,7.64,11.26A17,17,0,0,0,120,171.69a17.2,17.2,0,0,0,6.3-2.3,16.38,16.38,0,0,0,2.19-1.6,13.89,13.89,0,0,0,2.53-2.91c2.32-3.54,2.6-8.47,1.86-13.23a34.14,34.14,0,0,0-5-13.44,28.86,28.86,0,0,0-10.28-9.79A20.35,20.35,0,0,0,104,126a23.13,23.13,0,0,0-7.91,3,24.38,24.38,0,0,0-4.62,3.55,33,33,0,0,0-7.87,12.4,42.64,42.64,0,0,0,.27,29.78.44.44,0,0,1-.26.58.46.46,0,0,1-.56-.22,42.62,42.62,0,0,1-2.39-31.14,36.38,36.38,0,0,1,8.07-14.11A27.81,27.81,0,0,1,96.58,124a26,26,0,0,1,6.63-2.34,23.89,23.89,0,0,1,8.56-.24,26.82,26.82,0,0,1,8.07,2.73,34.13,34.13,0,0,1,12.32,11.24,38.69,38.69,0,0,1,6,15.47A31.84,31.84,0,0,1,138.42,159.32Z"/><path class="cls-24" d="M83.64,144.92a42.64,42.64,0,0,0,.27,29.78.44.44,0,0,1-.26.58.46.46,0,0,1-.56-.22,42.62,42.62,0,0,1-2.39-31.14,36.38,36.38,0,0,1,8.07-14.11A27.81,27.81,0,0,1,96.58,124q-.35,2.48-.45,5a24.38,24.38,0,0,0-4.62,3.55A33,33,0,0,0,83.64,144.92Z"/><path class="cls-24" d="M137.43,163.87a17.67,17.67,0,0,1-1.87,3.93A21.89,21.89,0,0,1,112,176.41a22.54,22.54,0,0,1-7.83-3.88,25.22,25.22,0,0,1-9.25-14.23,23.12,23.12,0,0,1-.41-8.62,19.62,19.62,0,0,1,2.67-7.4c0,.17.07.34.11.51a46.57,46.57,0,0,0,2,6.65,18.49,18.49,0,0,0,.35,7.72,20.31,20.31,0,0,0,7.64,11.26A17,17,0,0,0,120,171.69a17.2,17.2,0,0,0,6.3-2.3,16.38,16.38,0,0,0,2.19-1.6A29.27,29.27,0,0,0,137.43,163.87Z"/><path class="cls-13" d="M413.71,192.55c-10.58-1.38-20.27-8.45-25.13-16.49s-5.51-16.87-4.12-24.94a49.67,49.67,0,0,1,5.26-15.19c5.94-11.12,16.11-20.4,29.18-26.29,5-2.26,11.59-4.18,18-3.54a29.83,29.83,0,0,1,14.23,5.8c12.28,9.08,15.83,21.92,14.87,33.43,0,.22,0,.45-.07.68a50.44,50.44,0,0,1-14.26,30.25,60.25,60.25,0,0,1-14.53,11.06l-1.06.57C429.64,191.24,422,193.63,413.71,192.55Z"/><path class="cls-22" d="M452,175.94c-.87.94-1.8,1.85-2.77,2.74l-.85.76c-.51.46-1,.9-1.56,1.34s-1.09.89-1.64,1.31l-.07,0c-.56.45-1.14.87-1.74,1.27s-1.48,1.06-2.27,1.55c-.59.4-1.21.77-1.84,1.15s-1.39.82-2.12,1.22c-6.61,3.63-14.66,6.37-23.4,5.23a36.19,36.19,0,0,1-25.13-16.5c-4.86-8.05-5.51-16.86-4.12-24.94a49.78,49.78,0,0,1,2.28-8.58c.3-.83.62-1.65,1-2.46s.81-1.83,1.26-2.74c.22-.43.44-.86.68-1.29a51.91,51.91,0,0,1,4-6.38c.23-.33.48-.67.74-1,.52-.69,1.07-1.37,1.62-2,.3-.36.61-.71.92-1q1.45-1.65,3.05-3.21l.87-.84,1.38-1.25c.74-.64,1.48-1.27,2.25-1.88s1.63-1.27,2.48-1.88l1.21-.85,1.29-.87,1.32-.84.32-.19a52,52,0,0,0-13.74,26.92c-1.38,8.08-.74,16.9,4.12,24.94s14.54,15.12,25.11,16.5c8.77,1.15,16.79-1.6,23.41-5.23.28-.15.56-.3.83-.46Z"/><path class="cls-22" d="M452,175.94a60.69,60.69,0,0,1-14.88,11.38c-6.61,3.63-14.66,6.37-23.4,5.23a36.19,36.19,0,0,1-25.13-16.5c-4.86-8.05-5.51-16.86-4.12-24.94,3-17.37,15.22-32.42,33.29-40.92a52.39,52.39,0,0,0-14.29,27.5c-1.38,8.07-.74,16.89,4.13,24.93A34.17,34.17,0,0,0,452,175.94Z"/><path class="cls-23" d="M461.74,140.83a34.54,34.54,0,0,0-6.16-17.48,24.72,24.72,0,0,0-7.95-7.47,11.44,11.44,0,0,0-6.95-1.72,8.14,8.14,0,0,0-4.61,2.71c-3.22,3.38-5.27,7.79-4.09,12.43.74,2.93,2.7,5.72,4.15,8.57a27.63,27.63,0,0,1,3.12,11.62c.15,4.95-1.23,9.69-.74,14.68a5.17,5.17,0,0,0,.57,2.12c.91,1.59,3.17,2.58,5.25,2.81A11.55,11.55,0,0,0,452.2,167a22.85,22.85,0,0,0,4.94-5.28,15,15,0,0,0,2.64-4,42.78,42.78,0,0,0,1.23-5.52A38.28,38.28,0,0,0,461.74,140.83Z"/><path class="cls-23" d="M456,132.66c-1.14-2.88-2.51-5.86-5.16-8.19-2.07-1.82-5.29-3.17-7.77-2.4s-3.16,3.57-2.55,6c.82,3.19,3.11,6.19,5.06,9.21a58.59,58.59,0,0,1,5,9.55c.49,1.19,1.2,2.62,2.7,3a3.11,3.11,0,0,0,3.23-1.46C459.45,144,457.93,137.64,456,132.66Z"/><path class="cls-3" d="M422.45,176a21.51,21.51,0,0,1-4.65-.24,17.32,17.32,0,0,1-4.18-1.2,21.86,21.86,0,0,1-12.35-21.82,22.7,22.7,0,0,1,2.54-8.36,25.2,25.2,0,0,1,12.52-11.45,23.18,23.18,0,0,1,8.44-1.82,19.64,19.64,0,0,1,7.74,1.42c.28.11.55.22.82.35a17.7,17.7,0,0,1,6.83,5.5,15.09,15.09,0,0,1,3,8.31,13.84,13.84,0,0,1-2.27,8.51,15.32,15.32,0,0,1-6.7,5.42,18.09,18.09,0,0,1-4.07,1.19,11.25,11.25,0,0,1-4.4-.05,8.37,8.37,0,0,1-6.31-5.92,7.17,7.17,0,0,1,3.08-7.83,6.14,6.14,0,0,1,7.84,1.48.47.47,0,0,1-.1.64.46.46,0,0,1-.6-.07h0a4.89,4.89,0,0,0-6.29-.71,5.33,5.33,0,0,0-1.87,5.9,6.15,6.15,0,0,0,4.77,4,11.8,11.8,0,0,0,6.67-1.38,12.27,12.27,0,0,0,5.08-4.49,10.33,10.33,0,0,0,1.37-6.36,11.53,11.53,0,0,0-2.44-6.08,13.38,13.38,0,0,0-5.33-4,14.49,14.49,0,0,0-5.75-1.13,18.29,18.29,0,0,0-7.56,1.61,20.29,20.29,0,0,0-9.86,9.38,17,17,0,0,0-1.14,13.11,16.82,16.82,0,0,0,5.24,7.74,14.08,14.08,0,0,0,3.29,2c3.87,1.7,8.78,1.17,13.35-.34a34.06,34.06,0,0,0,12.43-7.18,28.81,28.81,0,0,0,8-11.74,20.39,20.39,0,0,0,.19-13.74,23.16,23.16,0,0,0-4.24-7.31,24.38,24.38,0,0,0-4.26-4,33.08,33.08,0,0,0-13.52-5.73,42.62,42.62,0,0,0-29.34,5.14.43.43,0,0,1-.61-.16.45.45,0,0,1,.12-.59,42.69,42.69,0,0,1,30.33-7.46,36.57,36.57,0,0,1,15.24,5.65,27.79,27.79,0,0,1,7,6.75,26.22,26.22,0,0,1,3.4,6.16,24,24,0,0,1,1.63,8.41,26.36,26.36,0,0,1-1.37,8.4,34.07,34.07,0,0,1-9.07,14,38.71,38.71,0,0,1-14.28,8.41A32,32,0,0,1,422.45,176Z"/><path class="cls-24" d="M427.69,119.56a42.62,42.62,0,0,0-29.34,5.14.43.43,0,0,1-.61-.16.45.45,0,0,1,.12-.59,42.69,42.69,0,0,1,30.33-7.46,36.57,36.57,0,0,1,15.24,5.65,27.79,27.79,0,0,1,7,6.75c-1.66.05-3.33.17-5,.38a24.38,24.38,0,0,0-4.26-4A33.08,33.08,0,0,0,427.69,119.56Z"/><path class="cls-24" d="M417.8,175.72a17.32,17.32,0,0,1-4.18-1.2,21.86,21.86,0,0,1-12.35-21.82,22.7,22.7,0,0,1,2.54-8.36,25.2,25.2,0,0,1,12.52-11.45,23.18,23.18,0,0,1,8.44-1.82,19.64,19.64,0,0,1,7.74,1.42l-.49.19a46.58,46.58,0,0,0-6.23,3,18.29,18.29,0,0,0-7.56,1.61,20.29,20.29,0,0,0-9.86,9.38,17,17,0,0,0-1.14,13.11,16.82,16.82,0,0,0,5.24,7.74A29.31,29.31,0,0,0,417.8,175.72Z"/></g></g></g></svg>