<svg xmlns="http://www.w3.org/2000/svg" xmlns:xlink="http://www.w3.org/1999/xlink" viewBox="0 0 329.62 339.42"><defs><style>.cls-1{fill:none;}.cls-2{isolation:isolate;}.cls-3{fill:#f5d7ae;}.cls-10,.cls-12,.cls-14,.cls-16,.cls-19,.cls-26,.cls-3,.cls-9{opacity:0.5;}.cls-10,.cls-12,.cls-19,.cls-20,.cls-24,.cls-26,.cls-3,.cls-5,.cls-7,.cls-9{mix-blend-mode:multiply;}.cls-4,.cls-5,.cls-6,.cls-7{fill:#f5e4b0;}.cls-24,.cls-5{opacity:0.2;}.cls-25,.cls-6{opacity:0.26;}.cls-14,.cls-16,.cls-18,.cls-21,.cls-25,.cls-6{mix-blend-mode:screen;}.cls-7{opacity:0.63;}.cls-20,.cls-8,.cls-9{fill:#974c33;}.cls-10{fill:#f5c88c;}.cls-11{fill:#82412c;}.cls-12,.cls-14{fill:#803d26;}.cls-13{opacity:0.31;}.cls-15,.cls-19,.cls-24,.cls-25{fill:#a8553a;}.cls-16{fill:#db6e4b;}.cls-17,.cls-18,.cls-21{fill:#b55b3e;}.cls-18{opacity:0.18;}.cls-20{opacity:0.13;}.cls-21{opacity:0.38;}.cls-22{fill:#fcd79f;}.cls-23{clip-path:url(#clip-path);}.cls-26{fill:#edd488;}</style><clipPath id="clip-path" transform="translate(0 -75.38)"><rect class="cls-1" x="40.02" width="500" height="500"/></clipPath></defs><title>자산 1</title><g class="cls-2"><g id="레이어_2" data-name="레이어 2"><g id="OBJECTS"><path class="cls-3" d="M60.91,154.76c-3.61-16,2.41-32.86,11.69-46.4C79.74,97.94,89,88.78,100,82.75s24.15-8.81,36.59-6.62a31.91,31.91,0,0,1,10.64,3.64A27.41,27.41,0,0,1,159.38,96a38.6,38.6,0,0,1-.28,20.51c-4,14.56-19.28,23.2-31.15,32.52-8.24,6.46-17.57,12.3-28,13.19-11.2,1-22-3.88-32.58-7.54A13.33,13.33,0,0,0,60.91,154.76Z" transform="translate(0 -75.38)"/><path class="cls-4" d="M154.49,134.77A87,87,0,0,1,104.14,178a56.63,56.63,0,0,1-10.26,2.38c-1.2.16-2.4.26-3.6.31a28.74,28.74,0,0,1-12.38-2c-7.23-3-12.47-9.53-15.13-17A34.6,34.6,0,0,1,61,154l-.09-1c-.83-10.77,3-21.46,8.46-30.77a90,90,0,0,1,55.7-41.31c6.23-1.5,13.81-2.23,19.91.07a22.77,22.77,0,0,1,11.41,10.33C164.18,105.07,161.27,121.24,154.49,134.77Z" transform="translate(0 -75.38)"/><path class="cls-5" d="M124.89,168q-2,1.37-4.18,2.6l-1.24.71c-.74.43-1.5.83-2.25,1.23s-1.55.79-2.32,1.16l-.09.05c-.78.39-1.59.76-2.39,1.1-1,.47-2,.9-3.08,1.3q-1.19.5-2.43.93c-.91.34-1.82.66-2.76,1-8.5,2.75-18,4.1-26.24.65-10-4.18-16.16-14.94-17-25.71s3-21.45,8.46-30.78a88.91,88.91,0,0,1,6.64-9.7c.73-.91,1.46-1.82,2.22-2.71s1.75-2,2.66-3c.45-.47.88-.93,1.34-1.39a86.41,86.41,0,0,1,7.26-6.66c.4-.34.82-.68,1.24-1,.88-.71,1.77-1.39,2.68-2.06.48-.35,1-.7,1.44-1,1.55-1.08,3.11-2.12,4.71-3.11.43-.25.87-.53,1.3-.79l2-1.16C104,89,105,88.45,106.1,87.91s2.29-1.13,3.45-1.66c.55-.24,1.1-.49,1.66-.72l1.73-.73c.58-.24,1.16-.45,1.75-.68l.43-.16a89.1,89.1,0,0,0-27.47,28.88c-5.48,9.31-9.29,20-8.46,30.77s7,21.53,17,25.71c8.26,3.46,17.74,2.1,26.25-.66.36-.11.71-.22,1.07-.36Z" transform="translate(0 -75.38)"/><path class="cls-5" d="M124.91,168a85.26,85.26,0,0,1-20.76,10c-8.5,2.75-18,4.1-26.24.65-10-4.18-16.16-14.94-17-25.71s3-21.45,8.46-30.78a89.94,89.94,0,0,1,54.26-40.92A89.58,89.58,0,0,0,95.32,110.7c-5.47,9.31-9.29,20-8.45,30.77s7,21.54,17,25.72C110.45,170,117.86,169.64,124.91,168Z" transform="translate(0 -75.38)"/><path class="cls-6" d="M152.49,128.38A46.47,46.47,0,0,0,155.13,106a22.73,22.73,0,0,0-4.24-10.82c-1.53-1.94-3.68-3.58-6.15-3.71a10.35,10.35,0,0,0-6,2.13c-5,3.26-9.25,8-10.41,13.86-.73,3.69-.17,7.48-.15,11.24a39.31,39.31,0,0,1-2.73,14.62c-2.35,6-6.14,11.29-8.17,17.35a7.31,7.31,0,0,0-.49,2.68c.11,2.11,1.89,3.83,3.86,4.61a11.89,11.89,0,0,0,9-.58,35.19,35.19,0,0,0,7.65-5.13,25.33,25.33,0,0,0,4.7-4.17,72.39,72.39,0,0,0,4-6.3A64,64,0,0,0,152.49,128.38Z" transform="translate(0 -75.38)"/><path class="cls-6" d="M150.8,117.24c.31-3.71.44-7.6-1.06-11-1.16-2.66-3.74-5-6.62-4.71-3,.35-5,3.51-5.59,6.51-.79,4,0,8.14.44,12.21a70.72,70.72,0,0,1,.23,12.6c-.11,1.54-.11,3.42,1.21,4.21s2.88,0,4-1C148.57,131.64,150.27,123.66,150.8,117.24Z" transform="translate(0 -75.38)"/><path class="cls-7" d="M155.66,132.32a7.4,7.4,0,0,1-.94-.31,15.75,15.75,0,0,1-5.18-4,72.42,72.42,0,0,1-15.25-24,54.93,54.93,0,0,1-3.45-24.09,6.14,6.14,0,0,1,.75-.08c.95,8.1,2.71,16.19,6.51,23.4a88.07,88.07,0,0,0,5.91,9.27c4,5.68,8.05,11.49,13.35,15.82C156.84,129.63,156.27,131,155.66,132.32Z" transform="translate(0 -75.38)"/><path class="cls-7" d="M146.62,147.49c-1.22,1.64-2.51,3.23-3.85,4.77a19.72,19.72,0,0,1-8.08-4c-9.31-7-16.4-16.63-21.77-27a62.76,62.76,0,0,1-5.87-15.3,18.82,18.82,0,0,1-.8,2.17,5.38,5.38,0,0,1-2.12,2.75,3.94,3.94,0,0,1-2.88.27,7.5,7.5,0,0,1-2.61-1.36,20.42,20.42,0,0,1-5.59-6.71,50.06,50.06,0,0,1-2.4-5.27c.72-.57,1.46-1.13,2.19-1.67.89,1.83,1.85,3.63,2.85,5.38a11.29,11.29,0,0,0,2.07,2.81,3.67,3.67,0,0,0,6.1-1,9.76,9.76,0,0,0,.94-3.68,38.91,38.91,0,0,0,0-8.63c-.08-.76-.18-1.53-.2-2.29.88-.46,1.74-.9,2.63-1.33l.21,1.47a20.07,20.07,0,0,1,.74-1.92c.47-.23,1-.47,1.46-.68a39.45,39.45,0,0,0,2.16,16,74.41,74.41,0,0,0,4.89,10.33c4.12,7.61,8.4,15.19,14,21.82A51.57,51.57,0,0,0,146.62,147.49Z" transform="translate(0 -75.38)"/><path class="cls-7" d="M129.61,164.62c-1.26,1-2.56,1.9-3.87,2.8a24.92,24.92,0,0,1-2.53-1.52c-11.37-7.4-22.26-16.34-28.53-28.37a65.78,65.78,0,0,1-5.14-14,13.14,13.14,0,0,1-1.05,2.29,5.84,5.84,0,0,1-2.28,2.39,4.7,4.7,0,0,1-2.54.38,9.17,9.17,0,0,1-5.62-3.12,21.09,21.09,0,0,1-3.37-5.6,18.09,18.09,0,0,1-1.34-3.87c.69-1,1.4-1.9,2.12-2.84a30.45,30.45,0,0,1,2.63,4.2c1,2,1.86,4.1,3.44,5.66A3.73,3.73,0,0,0,85,124.36c1.45-.43,2.13-2.09,2.42-3.58a22.61,22.61,0,0,0,.42-4.85c-.53-2.8-1-5.63-1.3-8.45-.43-1.64-.94-3.26-1.49-4.87.94-.87,1.89-1.71,2.84-2.54,2.28,13.58,6.41,27,13.62,38.65C108.33,149.72,118,159.16,129.61,164.62Z" transform="translate(0 -75.38)"/><path class="cls-7" d="M106.44,177.24c-.76.29-1.52.54-2.29.79-.35.1-.69.22-1.06.32a44.8,44.8,0,0,1-23.09-17A56.29,56.29,0,0,1,72.38,146c0,.36,0,.71-.09,1.06a10.61,10.61,0,0,1-1,3.63,5.19,5.19,0,0,1-2.65,2.57,5.44,5.44,0,0,1-5.06-.9,10.76,10.76,0,0,1-2.77-3.15,41.59,41.59,0,0,1,.49-5.67,21.19,21.19,0,0,1,1.53,1.9,15.45,15.45,0,0,0,2.62,3.22,3.51,3.51,0,0,0,3.88.52c1.14-.73,1.49-2.21,1.63-3.57a27.6,27.6,0,0,0,.14-4.07,74,74,0,0,1-1.91-11.83c-.42-1.58-.89-3.15-1.38-4.7.12-.24.26-.47.38-.7a14.4,14.4,0,0,1,.87,1.46,24.05,24.05,0,0,1,.46-3.8c.53-.9,1.08-1.8,1.66-2.66,1.33,15.08,6.19,30,15,42.34a43.93,43.93,0,0,0,6.24,7.24A48.78,48.78,0,0,0,106.44,177.24Z" transform="translate(0 -75.38)"/><path class="cls-7" d="M126.19,97a6.25,6.25,0,0,1-3.32,2.43c-2.14.57-4.41-.41-6.14-1.78a15.3,15.3,0,0,1-5.54-12,.75.75,0,0,1,0-.15c1-.42,2-.83,3-1.22a17.5,17.5,0,0,0,3.56,7.75,5,5,0,0,0,3.07,1.84,4.43,4.43,0,0,0,4.08-2.44,13.16,13.16,0,0,0,1.24-4.85c.26-2,.51-4.07.75-6.12.83-.18,1.68-.32,2.55-.45a15,15,0,0,1,.27,2.16,20.64,20.64,0,0,1,0,5.09,20.42,20.42,0,0,1-.71,2.82c-.32,1.06-.64,2.11-1,3.14A14.82,14.82,0,0,1,126.19,97Z" transform="translate(0 -75.38)"/><path class="cls-8" d="M158.29,129.28a1.23,1.23,0,0,1-1.6.13,60.78,60.78,0,0,1-7.88-7.16c-.88-1-1.72-1.91-2.55-2.9a70.9,70.9,0,0,1-8-12.14,71.79,71.79,0,0,1-5.33-13.5,64.52,64.52,0,0,1-2.35-14.3,1.2,1.2,0,0,1,2.38-.23,83.41,83.41,0,0,0,3.15,13.56A81.29,81.29,0,0,0,149,117.21c.75,1,1.55,2,2.36,3a86.32,86.32,0,0,0,6.92,7.4A1.21,1.21,0,0,1,158.29,129.28Z" transform="translate(0 -75.38)"/><path class="cls-8" d="M147,149.16a1.23,1.23,0,0,1-1.53.28,63.49,63.49,0,0,1-15.05-11.87c-.72-.74-1.42-1.5-2.09-2.28-1.42-1.65-2.76-3.39-4.09-5.11a95.11,95.11,0,0,1-5.25-8.06,99.17,99.17,0,0,1-7.9-17.41,53.84,53.84,0,0,1-2.5-9.35,27.63,27.63,0,0,1,0-9.85,1.2,1.2,0,0,1,1.42-.92,1.19,1.19,0,0,1,1,1.24c-.32,6,1.71,11.75,4,17.42a131.45,131.45,0,0,0,8.07,16.52,98.19,98.19,0,0,0,9.21,13.43c.42.54.85,1.06,1.29,1.57a80.35,80.35,0,0,0,6.28,6.65,87,87,0,0,0,7,6l0,0A1.21,1.21,0,0,1,147,149.16Z" transform="translate(0 -75.38)"/><path class="cls-8" d="M115.72,83.17a38.08,38.08,0,0,0,3.48,5.61,10.6,10.6,0,0,0,1.84,2,1.14,1.14,0,0,0,.55.24c.16,0,.2,0,.12,0s.05,0,.26-.37.52-.93.76-1.39c.48-1,.94-2,1.36-3a53.58,53.58,0,0,0,2.07-6.46v0a1.22,1.22,0,0,1,1.49-.87,1.2,1.2,0,0,1,.9,1,21.73,21.73,0,0,1-.42,7.57A23.65,23.65,0,0,1,127,91.22c-.25.62-.46,1.15-.8,1.82a5.49,5.49,0,0,1-2.07,2.28,5.38,5.38,0,0,1-6-.66,8.16,8.16,0,0,1-1.63-1.74c-.41-.58-.74-1.13-1.08-1.71a15.78,15.78,0,0,1-2-7.51,1.24,1.24,0,0,1,1.25-1.22,1.23,1.23,0,0,1,1.07.65Z" transform="translate(0 -75.38)"/><path class="cls-8" d="M93.43,95.47a28,28,0,0,0,4.13,6.87,15.4,15.4,0,0,0,1.34,1.34,9,9,0,0,0,1.43,1,1.66,1.66,0,0,0,1,.26c.11,0,.2-.07.47-.47a8.18,8.18,0,0,0,.66-1.61,16.87,16.87,0,0,0,.47-1.86,24.35,24.35,0,0,0,.35-3.94,67.55,67.55,0,0,0-.67-8.26,1.2,1.2,0,0,1,2.36-.44A42.92,42.92,0,0,1,106.37,97a20.56,20.56,0,0,1-.26,4.55,18.71,18.71,0,0,1-.52,2.28,11.47,11.47,0,0,1-.94,2.33,4.43,4.43,0,0,1-1.05,1.26,3.62,3.62,0,0,1-1.74.77,4.83,4.83,0,0,1-3.09-.66,11.41,11.41,0,0,1-2-1.48,13.19,13.19,0,0,1-1.62-1.73,24.12,24.12,0,0,1-4-8,1.2,1.2,0,0,1,2.23-.86Z" transform="translate(0 -75.38)"/><path class="cls-8" d="M130.17,165.77a1.2,1.2,0,0,1-1.55.38h0a69.79,69.79,0,0,1-16.45-12A74.64,74.64,0,0,1,99.62,138a91.86,91.86,0,0,1-7.94-18.77A178.22,178.22,0,0,1,87,99.69a1.2,1.2,0,0,1,2.32-.59c2,6.34,4,12.69,6.18,18.89a113.4,113.4,0,0,0,8,17.83A83.18,83.18,0,0,0,108.8,144a87.51,87.51,0,0,0,6.19,7.42,90.35,90.35,0,0,0,14.86,12.68A1.2,1.2,0,0,1,130.17,165.77Z" transform="translate(0 -75.38)"/><path class="cls-8" d="M76.28,112.35a47.91,47.91,0,0,0,4.78,8.55,19.48,19.48,0,0,0,1.41,1.84,2.57,2.57,0,0,0,1.24.86.84.84,0,0,0,.79-.33,4,4,0,0,0,.83-1.57,23.73,23.73,0,0,0,.23-9.38c-.48-3.23-1.25-6.55-1.86-9.88v0a1.2,1.2,0,0,1,2.34-.53c.89,3.27,1.83,6.51,2.47,10a24.61,24.61,0,0,1-.11,10.76,7.19,7.19,0,0,1-1.54,2.88,4.31,4.31,0,0,1-1.67,1.12,3.89,3.89,0,0,1-2.11.13,5.57,5.57,0,0,1-2.94-1.87,19.35,19.35,0,0,1-1.64-2.22A36.85,36.85,0,0,1,74,113.17a1.2,1.2,0,0,1,2.25-.82Z" transform="translate(0 -75.38)"/><path class="cls-8" d="M107.66,178.2A36.15,36.15,0,0,1,98.78,175a40.43,40.43,0,0,1-7.75-5.4,52.56,52.56,0,0,1-11.25-14.94c-.12-.21-.22-.44-.32-.64a94,94,0,0,1-6.27-16.65c-.82-3-1.54-5.95-2.13-9s-1-6-1.38-9.11a1.23,1.23,0,0,1,1.06-1.33,1.21,1.21,0,0,1,1.33,1c.49,3,1.08,5.92,1.79,8.84s1.45,5.82,2.34,8.69A95.66,95.66,0,0,0,82.69,153a.26.26,0,0,0,.06.13,51,51,0,0,0,10.38,14.16,36.22,36.22,0,0,0,15.08,8.59h0a1.2,1.2,0,0,1-.56,2.34Z" transform="translate(0 -75.38)"/><path class="cls-8" d="M61.9,141.9a22,22,0,0,0,2.28,3.93,12.44,12.44,0,0,0,2.94,3.11,1.52,1.52,0,0,0,1.22.28c.26-.1.5-.4.68-1a14.32,14.32,0,0,0,.32-2.14c.06-.77.12-1.54.14-2.32.17-6.21-1.29-12.42-3.13-18.47a1.2,1.2,0,1,1,2.29-.71c1.89,6.16,3.46,12.6,3.3,19.25,0,.82-.07,1.65-.14,2.48a14.86,14.86,0,0,1-.4,2.6,4.55,4.55,0,0,1-.68,1.46,3.29,3.29,0,0,1-1.49,1.17,3.86,3.86,0,0,1-3.36-.47,8.89,8.89,0,0,1-2.08-1.82,23.23,23.23,0,0,1-1.58-2,24.65,24.65,0,0,1-2.5-4.38,1.2,1.2,0,1,1,2.19-1Z" transform="translate(0 -75.38)"/><path class="cls-9" d="M109.05,177.33a1.18,1.18,0,0,1-1.39.87A36.15,36.15,0,0,1,98.78,175a40.43,40.43,0,0,1-7.75-5.4,52.56,52.56,0,0,1-11.25-14.94c-.12-.21-.22-.44-.32-.64l3.23-1a.26.26,0,0,0,.06.13,51,51,0,0,0,10.38,14.16,36.22,36.22,0,0,0,15.08,8.59h0A1.18,1.18,0,0,1,109.05,177.33Z" transform="translate(0 -75.38)"/><path class="cls-9" d="M130.17,165.77a1.2,1.2,0,0,1-1.55.38h0a69.79,69.79,0,0,1-16.45-12,72.91,72.91,0,0,1-7.56-8.61c1.42-.5,2.8-1,4.2-1.57a87.51,87.51,0,0,0,6.19,7.42,90.35,90.35,0,0,0,14.86,12.68A1.2,1.2,0,0,1,130.17,165.77Z" transform="translate(0 -75.38)"/><path class="cls-9" d="M156.69,129.41a60.78,60.78,0,0,1-7.88-7.16c.77-.61,1.51-1.21,2.26-1.84a2.85,2.85,0,0,0,.26-.23,86.32,86.32,0,0,0,6.92,7.4,1.21,1.21,0,0,1,0,1.7A1.23,1.23,0,0,1,156.69,129.41Z" transform="translate(0 -75.38)"/><path class="cls-9" d="M147,149.16a1.23,1.23,0,0,1-1.53.28,63.49,63.49,0,0,1-15.05-11.87c-.72-.74-1.42-1.5-2.09-2.28,1.32-.67,2.63-1.36,3.92-2.09.42.54.85,1.06,1.29,1.57a80.35,80.35,0,0,0,6.28,6.65,87,87,0,0,0,7,6l0,0A1.21,1.21,0,0,1,147,149.16Z" transform="translate(0 -75.38)"/><path class="cls-7" d="M93.88,180.4c-1.2.16-2.4.26-3.6.31a50.49,50.49,0,0,0-27.51-19A34.6,34.6,0,0,1,61,154c11,1.84,21.1,8.64,27.74,17.72A53.14,53.14,0,0,1,93.88,180.4Z" transform="translate(0 -75.38)"/><polygon class="cls-10" points="201.41 278.21 199.36 280.33 277.03 339.42 329.62 269.17 326.28 267.96 201.41 278.21"/><polygon class="cls-11" points="326.28 267.96 320.13 277 281.42 333.88 281.41 333.89 281.41 333.9 281.37 333.87 277.95 331.49 248.39 310.91 204.73 280.51 201.42 278.21 246.82 212.68 249.5 214.55 323.83 266.25 326.28 267.96"/><polygon class="cls-12" points="246.81 212.68 249.89 226.32 214.72 276.05 201.41 278.21 246.81 212.68"/><polygon class="cls-12" points="326.28 267.96 312.91 270.77 278.86 320.05 281.41 333.89 326.28 267.96"/><g class="cls-13"><polygon class="cls-14" points="277.95 331.5 204.72 280.51 212.29 279.14 276.49 323.49 277.95 331.5"/><polygon class="cls-14" points="323.82 266.25 315.32 267.81 251.12 223.45 249.5 214.55 323.82 266.25"/></g><path class="cls-15" d="M248.37,299.32,212.5,350.74a.8.8,0,0,0,.2,1.11l66.17,46.06a.8.8,0,0,0,1.11-.2L315.41,346a.79.79,0,0,0-.2-1.1l-65.73-45.73A.8.8,0,0,0,248.37,299.32Z" transform="translate(0 -75.38)"/><path class="cls-16" d="M248.26,302.92c-.33.25-31.74,47.22-31.14,48.58s42.15,29.13,42.15,29.13-37.59-29-36.19-31.67S248.26,302.92,248.26,302.92Z" transform="translate(0 -75.38)"/><path class="cls-17" d="M299.59,362.84a37.56,37.56,0,0,0,4.05-8.78,15.8,15.8,0,0,0-.06-9.55,19.37,19.37,0,0,0-3.42-5.58c-7.18-8.83-17.33-15-28.21-18.35a19.54,19.54,0,0,0-5.69-1.07,8,8,0,0,0-5.38,1.85c-2.12,1.91-2.64,5.14-1.93,7.9a18.53,18.53,0,0,0,4.32,7.29c4.39,5,9.72,9.35,13.14,15.08,4.32,7.25,5.14,16.1,4.43,24.51-.16,1.79-.24,3.92,1.19,5,3.64,2.78,7.64-3.75,9.31-5.95A124.71,124.71,0,0,0,299.59,362.84Z" transform="translate(0 -75.38)"/><path class="cls-18" d="M288.36,332.11a11.09,11.09,0,0,0-4.3-1.32,3.91,3.91,0,0,0-3.74,2.07,5.35,5.35,0,0,0,.48,4.06,32.53,32.53,0,0,0,4,6.79,12.21,12.21,0,0,0,3.35,3.22,5.52,5.52,0,0,0,4.48.68,5.36,5.36,0,0,0,3.4-4.53C296.61,337.72,292.75,334.15,288.36,332.11Z" transform="translate(0 -75.38)"/><path class="cls-18" d="M291.28,350.32a3.41,3.41,0,0,0-2,2.62,7.06,7.06,0,0,0,.35,3.43,5,5,0,0,0,1.1,2.11,3.77,3.77,0,0,0,4.4.44,6.57,6.57,0,0,0,2.82-3.68c.55-1.58.79-4.44-1.18-5.2C295.63,349.62,292.36,349.94,291.28,350.32Z" transform="translate(0 -75.38)"/><path class="cls-19" d="M320.13,352.38l-38.71,56.88h-.05L278,406.87l-29.56-20.58c12.44-5.78,37.17-17.49,54.58-25.76h0c7.75-3.67,14-6.67,17.14-8.15Z" transform="translate(0 -75.38)"/><polygon class="cls-10" points="81.08 234.67 138.5 99.67 266.78 159.41 200.43 290.45 81.08 234.67"/><polygon class="cls-11" points="141.75 104.88 111.42 169.78 171.16 197.7 190.96 155.35 201.38 132.75 141.75 104.88"/><polygon class="cls-12" points="141.75 104.88 111.42 169.78 111.5 169.81 120.79 165.07 144.63 115.14 142.1 105.04 141.75 104.88"/><polygon class="cls-12" points="201.22 132.67 191.87 137.97 168.83 187.27 171 197.62 171.16 197.7 191.07 155.1 201.38 132.75 201.22 132.67"/><g class="cls-13"><polygon class="cls-14" points="168.41 196.41 167.22 190.71 119.12 168.23 113.98 170.97 168.41 196.41"/><polygon class="cls-14" points="144.07 105.96 145.42 112.44 193.52 134.92 199.36 131.8 144.07 105.96"/></g><path class="cls-15" d="M143.44,188.87l-24.29,51.52a.65.65,0,0,0,.18.88l49.59,23.47a.67.67,0,0,0,.8-.43l24-51.7a.65.65,0,0,0-.18-.88l-49.26-23.28A.65.65,0,0,0,143.44,188.87Z" transform="translate(0 -75.38)"/><path class="cls-16" d="M143.48,191.92c-.23.29-21.43,47-20.95,48s31.58,14.77,31.58,14.77-28.26-15.7-27.34-18.28S143.48,191.92,143.48,191.92Z" transform="translate(0 -75.38)"/><path class="cls-17" d="M182.77,230.46a45.13,45.13,0,0,0,2.64-8.32,15.11,15.11,0,0,0-.36-8,12.06,12.06,0,0,0-2.67-3.91c-5.52-5.77-13.1-8.61-21.1-8.92a11.93,11.93,0,0,0-4.17.42,7.47,7.47,0,0,0-3.84,2.8,8.7,8.7,0,0,0-1.13,7.09,11.41,11.41,0,0,0,3.38,5.13c3.35,3.22,7.37,5.61,10,9.65,3.38,5.1,4.28,12.35,4.05,19.58-.05,1.55,0,3.36,1,3.94,2.73,1.5,5.41-4.91,6.55-7.15Q180.26,236.73,182.77,230.46Z" transform="translate(0 -75.38)"/><path class="cls-18" d="M173.58,207.21a6.28,6.28,0,0,0-3.17-.11,4,4,0,0,0-2.64,2.6,4.68,4.68,0,0,0,.48,3.3,20.14,20.14,0,0,0,3.12,4.8,6.54,6.54,0,0,0,2.53,1.93,3.55,3.55,0,0,0,3.28-.46,6.24,6.24,0,0,0,2.31-4.6C179.76,210,176.83,207.92,173.58,207.21Z" transform="translate(0 -75.38)"/><path class="cls-18" d="M176.31,221.85a4,4,0,0,0-1.4,2.68,6.44,6.44,0,0,0,.37,2.8,3.28,3.28,0,0,0,.88,1.52c.84.7,2.22.32,3.2-.64a7.84,7.84,0,0,0,1.93-3.75c.34-1.45.42-3.92-1-4.1A9.39,9.39,0,0,0,176.31,221.85Z" transform="translate(0 -75.38)"/><polygon class="cls-11" points="201.35 132.73 171.02 197.63 230.76 225.56 250.56 183.2 260.98 160.6 201.35 132.73"/><polygon class="cls-12" points="260.82 160.53 251.47 165.83 228.43 215.12 230.6 225.48 230.76 225.56 250.68 182.95 260.98 160.6 260.82 160.53"/><g class="cls-13"><polygon class="cls-14" points="228.01 224.27 226.82 218.57 178.72 196.09 173.58 198.83 228.01 224.27"/><polygon class="cls-14" points="203.67 133.82 205.03 140.3 253.12 162.78 258.96 159.66 203.67 133.82"/></g><path class="cls-15" d="M203,216.73l-24.29,51.52a.65.65,0,0,0,.18.88l49.59,23.46a.65.65,0,0,0,.8-.42l24-51.7a.65.65,0,0,0-.18-.88l-49.26-23.28A.65.65,0,0,0,203,216.73Z" transform="translate(0 -75.38)"/><path class="cls-16" d="M203.08,219.78c-.23.28-21.43,47-21,48s31.58,14.76,31.58,14.76-28.26-15.69-27.34-18.27S203.08,219.78,203.08,219.78Z" transform="translate(0 -75.38)"/><path class="cls-17" d="M242.37,258.32A45.13,45.13,0,0,0,245,250a15.11,15.11,0,0,0-.36-8,12,12,0,0,0-2.67-3.91c-5.52-5.77-13.09-8.61-21.1-8.92a12,12,0,0,0-4.17.42,7.5,7.5,0,0,0-3.84,2.79,8.71,8.71,0,0,0-1.13,7.09,11.36,11.36,0,0,0,3.38,5.13c3.35,3.23,7.37,5.62,10,9.66,3.39,5.1,4.29,12.35,4.05,19.58-.05,1.54,0,3.35,1,3.94,2.73,1.49,5.42-4.91,6.55-7.16C238.84,266.6,240.7,262.49,242.37,258.32Z" transform="translate(0 -75.38)"/><path class="cls-18" d="M233.18,235.07A6.28,6.28,0,0,0,230,235a4,4,0,0,0-2.64,2.59,4.7,4.7,0,0,0,.48,3.31,20.08,20.08,0,0,0,3.12,4.79,6.53,6.53,0,0,0,2.54,1.94,3.56,3.56,0,0,0,3.27-.46,6.3,6.3,0,0,0,2.32-4.6C239.36,237.88,236.43,235.77,233.18,235.07Z" transform="translate(0 -75.38)"/><path class="cls-18" d="M235.91,249.71a4,4,0,0,0-1.39,2.68,6.3,6.3,0,0,0,.36,2.8,3.28,3.28,0,0,0,.88,1.52c.84.7,2.22.31,3.2-.65a7.85,7.85,0,0,0,1.93-3.74c.34-1.46.42-3.92-1-4.1A9.44,9.44,0,0,0,235.91,249.71Z" transform="translate(0 -75.38)"/><polygon class="cls-11" points="111.42 169.78 81.08 234.67 140.83 262.6 160.63 220.25 171.04 197.64 111.42 169.78"/><polygon class="cls-12" points="111.42 169.78 81.08 234.67 81.16 234.71 90.45 229.97 114.29 180.04 111.76 169.94 111.42 169.78"/><polygon class="cls-12" points="170.89 197.57 161.54 202.87 138.5 252.16 140.67 262.52 140.83 262.6 160.74 220 171.04 197.64 170.89 197.57"/><g class="cls-13"><polygon class="cls-14" points="138.08 261.31 136.89 255.61 88.79 233.13 83.65 235.87 138.08 261.31"/><polygon class="cls-17" points="113.74 170.86 115.09 177.34 163.19 199.82 169.03 196.7 113.74 170.86"/></g><path class="cls-15" d="M113.11,253.77,88.82,305.29a.65.65,0,0,0,.18.88l49.59,23.46a.65.65,0,0,0,.8-.42l24-51.7a.66.66,0,0,0-.18-.88L113.9,253.35A.64.64,0,0,0,113.11,253.77Z" transform="translate(0 -75.38)"/><path class="cls-16" d="M113.15,256.82c-.23.28-21.43,47-21,48s31.58,14.76,31.58,14.76-28.27-15.69-27.34-18.27S113.15,256.82,113.15,256.82Z" transform="translate(0 -75.38)"/><path class="cls-17" d="M152.44,295.36a45.13,45.13,0,0,0,2.64-8.32,15.1,15.1,0,0,0-.37-8,11.8,11.8,0,0,0-2.67-3.91c-5.51-5.77-13.09-8.61-21.1-8.92a12,12,0,0,0-4.17.42,7.52,7.52,0,0,0-3.83,2.79,8.77,8.77,0,0,0-1.14,7.1,11.48,11.48,0,0,0,3.39,5.12c3.35,3.23,7.36,5.62,10,9.66,3.38,5.1,4.28,12.35,4.05,19.58-.05,1.55,0,3.36,1,3.94,2.73,1.5,5.41-4.91,6.55-7.15C148.9,303.64,150.76,299.53,152.44,295.36Z" transform="translate(0 -75.38)"/><path class="cls-18" d="M143.24,272.11a6.24,6.24,0,0,0-3.16-.11,4,4,0,0,0-2.64,2.6,4.68,4.68,0,0,0,.48,3.3,19.85,19.85,0,0,0,3.11,4.79,6.44,6.44,0,0,0,2.54,1.94,3.55,3.55,0,0,0,3.28-.46,6.33,6.33,0,0,0,2.31-4.6C149.43,274.92,146.5,272.81,143.24,272.11Z" transform="translate(0 -75.38)"/><path class="cls-18" d="M146,286.75a4,4,0,0,0-1.4,2.68,6.3,6.3,0,0,0,.37,2.8,3.35,3.35,0,0,0,.87,1.52c.84.7,2.23.31,3.21-.65a7.71,7.71,0,0,0,1.92-3.74c.35-1.46.43-3.92-1-4.1A9.39,9.39,0,0,0,146,286.75Z" transform="translate(0 -75.38)"/><polygon class="cls-11" points="171.02 197.63 140.69 262.53 200.43 290.45 220.23 248.1 230.65 225.5 171.02 197.63"/><polygon class="cls-12" points="230.49 225.43 221.14 230.73 198.1 280.02 200.27 290.38 200.43 290.45 220.34 247.85 230.65 225.5 230.49 225.43"/><g class="cls-13"><polygon class="cls-14" points="197.68 289.17 196.49 283.47 148.39 260.99 143.25 263.73 197.68 289.17"/><polygon class="cls-17" points="173.34 198.72 174.69 205.2 222.79 227.68 228.63 224.56 173.34 198.72"/></g><path class="cls-15" d="M172.71,281.63l-24.29,51.51a.66.66,0,0,0,.18.89l49.59,23.46a.65.65,0,0,0,.8-.43l24-51.69a.65.65,0,0,0-.18-.88l-49.26-23.28A.65.65,0,0,0,172.71,281.63Z" transform="translate(0 -75.38)"/><path class="cls-16" d="M172.75,284.68c-.23.28-21.43,47-20.95,48s31.58,14.76,31.58,14.76-28.27-15.7-27.34-18.27S172.75,284.68,172.75,284.68Z" transform="translate(0 -75.38)"/><path class="cls-17" d="M212,323.22a45.13,45.13,0,0,0,2.64-8.32,15,15,0,0,0-.37-8,11.85,11.85,0,0,0-2.67-3.92c-5.51-5.76-13.09-8.6-21.1-8.91a11.89,11.89,0,0,0-4.16.41,7.52,7.52,0,0,0-3.84,2.8,8.75,8.75,0,0,0-1.14,7.09,11.51,11.51,0,0,0,3.39,5.13c3.35,3.23,7.36,5.62,10,9.66,3.38,5.09,4.28,12.34,4,19.58,0,1.54,0,3.35,1,3.94,2.73,1.49,5.41-4.92,6.55-7.16C208.5,331.5,210.37,327.39,212,323.22Z" transform="translate(0 -75.38)"/><path class="cls-18" d="M202.85,300a6.4,6.4,0,0,0-3.17-.12,4,4,0,0,0-2.64,2.6,4.67,4.67,0,0,0,.48,3.3,19.94,19.94,0,0,0,3.12,4.8,6.43,6.43,0,0,0,2.53,1.94,3.58,3.58,0,0,0,3.28-.46,6.33,6.33,0,0,0,2.31-4.6C209,302.78,206.1,300.67,202.85,300Z" transform="translate(0 -75.38)"/><path class="cls-18" d="M205.58,314.61a4,4,0,0,0-1.4,2.67,6.36,6.36,0,0,0,.37,2.81,3.28,3.28,0,0,0,.88,1.52c.84.69,2.22.31,3.2-.65a7.75,7.75,0,0,0,1.92-3.74c.35-1.46.43-3.92-1-4.1A9.39,9.39,0,0,0,205.58,314.61Z" transform="translate(0 -75.38)"/><ellipse class="cls-10" cx="26.75" cy="286.44" rx="15.97" ry="15.08" transform="translate(-202.22 36.89) rotate(-47.41)"/><path class="cls-8" d="M39.51,294.29A13.2,13.2,0,0,1,38,295.75a14.63,14.63,0,0,1-20-21.26,14.41,14.41,0,0,1,6.5-4.09,14.2,14.2,0,0,1,4.15-.63,14.44,14.44,0,0,1,10,3.85A14.63,14.63,0,0,1,39.51,294.29Z" transform="translate(0 -75.38)"/><path class="cls-20" d="M38,295.75a14.63,14.63,0,0,1-20-21.26,14.41,14.41,0,0,1,6.5-4.09,14.2,14.2,0,0,1,4.15-.63,18.49,18.49,0,0,0-5.24,7.92A13.86,13.86,0,0,0,25.2,290a15.08,15.08,0,0,0,9.42,5.38A22.1,22.1,0,0,0,38,295.75Z" transform="translate(0 -75.38)"/><path class="cls-20" d="M32.47,298.54A14.63,14.63,0,0,1,18,274.49a14.41,14.41,0,0,1,6.5-4.09c-.28.28-.55.59-.82.89a24.16,24.16,0,0,0-4.44,7,14.54,14.54,0,0,0-.85,8.16A15.11,15.11,0,0,0,26,296.17,23.29,23.29,0,0,0,32.47,298.54Z" transform="translate(0 -75.38)"/><path class="cls-21" d="M36.23,275.28c-1.1.13-1.82,1.2-2.23,2.22a10.85,10.85,0,0,0,.06,8.17c.59,1.41,1.76,2.84,3.28,2.76A3.66,3.66,0,0,0,40,286.62a9.52,9.52,0,0,0,1.28-7.36C40.76,277.44,38.17,275.07,36.23,275.28Z" transform="translate(0 -75.38)"/><path class="cls-10" d="M96.33,342.17a9.12,9.12,0,1,1,1.9-13.12A9.38,9.38,0,0,1,96.33,342.17Z" transform="translate(0 -75.38)"/><path class="cls-8" d="M97.54,340.93a8.24,8.24,0,0,1-1.06.72,8.84,8.84,0,1,1-5.64-16.4,8.58,8.58,0,0,1,2.53,0A8.74,8.74,0,0,1,99,328.52,8.84,8.84,0,0,1,97.54,340.93Z" transform="translate(0 -75.38)"/><path class="cls-20" d="M96.48,341.65a8.84,8.84,0,1,1-5.64-16.4,8.58,8.58,0,0,1,2.53,0,11.16,11.16,0,0,0-3.87,4.23,8.33,8.33,0,0,0-.09,7.53,9.08,9.08,0,0,0,5.11,4.1A13.15,13.15,0,0,0,96.48,341.65Z" transform="translate(0 -75.38)"/><path class="cls-20" d="M92.94,342.79a8.83,8.83,0,0,1-2.1-17.54c-.2.14-.39.3-.58.46A14.64,14.64,0,0,0,87,329.46a8.87,8.87,0,0,0-1.28,4.78,9.13,9.13,0,0,0,3.62,6.52A14.33,14.33,0,0,0,92.94,342.79Z" transform="translate(0 -75.38)"/><path class="cls-21" d="M97.39,329.28a1.91,1.91,0,0,0-1.55,1.11,6.61,6.61,0,0,0-.74,4.88c.22.89.78,1.86,1.7,2a2.19,2.19,0,0,0,1.73-.82,5.76,5.76,0,0,0,1.46-4.27C99.88,331,98.56,329.33,97.39,329.28Z" transform="translate(0 -75.38)"/><path class="cls-10" d="M296,258.56a6.68,6.68,0,1,1-3.8,8.93A6.88,6.88,0,0,1,296,258.56Z" transform="translate(0 -75.38)"/><path class="cls-8" d="M294.86,259.22a5.76,5.76,0,0,1,.88-.31,6.46,6.46,0,1,1,.93,12.65,6.51,6.51,0,0,1-1.79-.49,6.46,6.46,0,0,1,0-11.85Z" transform="translate(0 -75.38)"/><path class="cls-20" d="M295.74,258.91a6.46,6.46,0,1,1,.93,12.65,6.51,6.51,0,0,1-1.79-.49,8.11,8.11,0,0,0,3.53-2.26,6.13,6.13,0,0,0,1.47-5.32,6.7,6.7,0,0,0-2.84-3.85A9.8,9.8,0,0,0,295.74,258.91Z" transform="translate(0 -75.38)"/><path class="cls-20" d="M298.46,258.76a6.46,6.46,0,0,1-1.79,12.8,4.31,4.31,0,0,0,.49-.22,10.58,10.58,0,0,0,3-2,6.51,6.51,0,0,0,1.81-3.15,6.7,6.7,0,0,0-1.35-5.28A10.3,10.3,0,0,0,298.46,258.76Z" transform="translate(0 -75.38)"/><path class="cls-21" d="M292.79,267.49a1.41,1.41,0,0,0,1.3-.5,4.8,4.8,0,0,0,1.43-3.31,1.68,1.68,0,0,0-.83-1.7,1.61,1.61,0,0,0-1.38.26,4.18,4.18,0,0,0-1.83,2.74A2.62,2.62,0,0,0,292.79,267.49Z" transform="translate(0 -75.38)"/><path class="cls-22" d="M291.33,214.33a.87.87,0,0,1-.76-.78,14.43,14.43,0,0,1,.45-5.39,5.23,5.23,0,0,1,1.12-2.26,2.33,2.33,0,0,1,2.31-.73,2.21,2.21,0,0,1,1.43,1.75,4.05,4.05,0,0,1-.34,2.32,6,6,0,0,1,2.66.08,2.16,2.16,0,0,1,1.47,2,2.39,2.39,0,0,1-.39,1.06,3.55,3.55,0,0,1-1,1,7.5,7.5,0,0,1-3.47,1.07A13.85,13.85,0,0,1,291.33,214.33Z" transform="translate(0 -75.38)"/><path class="cls-22" d="M3,147.47a.81.81,0,0,1-1-.33,13.49,13.49,0,0,1-1.87-4.68,4.79,4.79,0,0,1,0-2.35,2.2,2.2,0,0,1,1.62-1.57,2.11,2.11,0,0,1,1.92.87,3.76,3.76,0,0,1,.68,2.07,5.7,5.7,0,0,1,2.25-1,2,2,0,0,1,2,1,2,2,0,0,1,.12,1,3.25,3.25,0,0,1-.42,1.31,7.07,7.07,0,0,1-2.44,2.33A13,13,0,0,1,3,147.47Z" transform="translate(0 -75.38)"/><g class="cls-23"><path class="cls-15" d="M241.16,107.43a89.92,89.92,0,0,0,17.79,67c6.63,8.54,15.16,16,25.48,19.23s22.6,1.43,30.16-6.28c6.26-6.39,8.51-15.71,9.09-24.63A87,87,0,0,0,302.09,100c-10.06-11.3-24-20-39.7-17.83A22.81,22.81,0,0,0,248.57,89C244.19,93.78,242.06,101.09,241.16,107.43Z" transform="translate(0 -75.38)"/><path class="cls-24" d="M322,139.78c.34,1.6.63,3.22.88,4.85.06.47.13,1,.19,1.42.13.84.22,1.69.31,2.54s.17,1.73.23,2.58v.1c.07.88.11,1.76.13,2.63.07,1.11.09,2.22.08,3.34,0,.87,0,1.73,0,2.61s-.06,1.93-.13,2.91c-.58,8.92-2.83,18.25-9.09,24.63-7.57,7.72-19.85,9.5-30.17,6.3S265.58,183,259,174.45a87.45,87.45,0,0,1-6.56-9.75c-.58-1-1.16-2-1.7-3.07s-1.2-2.36-1.77-3.57c-.27-.58-.54-1.16-.8-1.75a87.26,87.26,0,0,1-3.5-9.21c-.17-.49-.33-1-.47-1.52-.34-1.08-.64-2.16-.93-3.25-.15-.58-.29-1.15-.42-1.72-.44-1.84-.82-3.67-1.15-5.52-.08-.5-.17-1-.25-1.51q-.18-1.17-.33-2.31c-.16-1.2-.3-2.41-.4-3.62s-.21-2.54-.27-3.82c0-.6-.05-1.2-.06-1.8s0-1.25,0-1.88,0-1.25,0-1.89c0-.13,0-.29,0-.45A88.87,88.87,0,0,0,257,154c6.63,8.53,15.15,16,25.47,19.23s22.6,1.43,30.16-6.28c6.27-6.39,8.51-15.71,9.09-24.63,0-.37.06-.75.06-1.13S322,140.25,322,139.78Z" transform="translate(0 -75.38)"/><path class="cls-24" d="M322,139.76a85.42,85.42,0,0,1,1.66,23c-.58,8.92-2.83,18.25-9.09,24.63-7.57,7.72-19.85,9.5-30.17,6.3S265.58,183,259,174.45a89.88,89.88,0,0,1-18-65.54,89.53,89.53,0,0,0,16.89,37.18c6.63,8.53,15.15,16,25.47,19.22s22.6,1.44,30.18-6.28C318.51,153.93,321,146.93,322,139.76Z" transform="translate(0 -75.38)"/><path class="cls-25" d="M295.42,99.5a46.59,46.59,0,0,0-19.8-10.71A22.7,22.7,0,0,0,264,88.73c-2.36.71-4.68,2.1-5.71,4.34a10.32,10.32,0,0,0-.24,6.37c1.2,5.82,4,11.57,9,14.8,3.15,2,6.89,2.93,10.39,4.29A39.47,39.47,0,0,1,290,126.47c4.67,4.39,8.22,9.88,13.11,14a7.48,7.48,0,0,0,2.3,1.44c2,.68,4.27-.33,5.72-1.88a11.88,11.88,0,0,0,2.77-8.56,35,35,0,0,0-1.93-9,25.58,25.58,0,0,0-2.14-5.91,74.54,74.54,0,0,0-4.36-6.07A64.57,64.57,0,0,0,295.42,99.5Z" transform="translate(0 -75.38)"/><path class="cls-25" d="M284.44,97c-3.34-1.66-6.9-3.21-10.63-3.08-2.91.1-6.07,1.6-6.83,4.41s1.41,5.94,4,7.6c3.44,2.21,7.56,3,11.5,4.1a70.8,70.8,0,0,1,11.8,4.45c1.39.67,3.13,1.36,4.36.43s1-2.69.57-4.08C297,104.35,290.21,99.82,284.44,97Z" transform="translate(0 -75.38)"/></g><path class="cls-10" d="M57.76,186.94l-.66-.18c-11.2-2.83-24.44-1.43-35.41,9.2a29.76,29.76,0,0,0-8,13.08c-1.68,6.19-.86,13,.55,18.31,3.66,13.86,11.15,25.41,21.15,33.09a1.79,1.79,0,0,1-.75-.28,61,61,0,0,1-24.82-36.4,38.13,38.13,0,0,1-1.06-11.1,32,32,0,0,1,7.79-18.28,45,45,0,0,1,16.27-11.71,44,44,0,0,1,16.76-3.91,34.89,34.89,0,0,1,6.46.49A34.6,34.6,0,0,0,57.76,186.94Z" transform="translate(0 -75.38)"/><path class="cls-15" d="M95.13,246.05c-3.1,10.21-11.66,18.61-20.39,22.09s-17.54,2.67-25.28,0a49.69,49.69,0,0,1-14.12-7.68c-10-7.68-17.49-19.23-21.15-33.09C12.78,222,12,215.23,13.64,209A29.76,29.76,0,0,1,21.69,196c11-10.63,24.21-12,35.41-9.2l.66.18a50.49,50.49,0,0,1,27.51,19,60.36,60.36,0,0,1,8.53,16.15l.39,1.14C96.44,230.12,97.55,238.06,95.13,246.05Z" transform="translate(0 -75.38)"/><path class="cls-24" d="M85,205.58q1.17,1.53,2.25,3.18l.61,1c.37.57.72,1.16,1.07,1.76s.69,1.22,1,1.83l0,.07c.34.62.66,1.27,1,1.92.41.81.79,1.64,1.15,2.5.29.65.57,1.32.83,2s.59,1.51.86,2.29c2.5,7.12,3.88,15.51,1.33,24-3.1,10.21-11.66,18.61-20.39,22.09s-17.54,2.67-25.29,0a50.75,50.75,0,0,1-8.09-3.66c-.76-.44-1.52-.88-2.27-1.36s-1.67-1.1-2.49-1.7l-1.17-.87a53,53,0,0,1-5.63-5c-.29-.28-.58-.58-.85-.89-.6-.62-1.18-1.27-1.76-1.94-.3-.35-.59-.7-.88-1.07-.93-1.14-1.81-2.31-2.67-3.53-.22-.34-.45-.67-.68-1l-1-1.57c-.51-.83-1-1.67-1.48-2.52s-1-1.82-1.45-2.76c-.22-.44-.44-.88-.64-1.34s-.44-.93-.65-1.4-.4-1-.61-1.44l-.14-.35a52,52,0,0,0,24.31,18c7.74,2.69,16.55,3.5,25.28,0S83.87,241.83,87,231.63c2.56-8.46,1.17-16.83-1.33-23.95-.1-.3-.2-.6-.32-.89Z" transform="translate(0 -75.38)"/><path class="cls-24" d="M85,205.56A60.79,60.79,0,0,1,93.8,222.1c2.5,7.12,3.88,15.51,1.33,24-3.1,10.21-11.66,18.61-20.39,22.09s-17.54,2.67-25.29,0C32.81,262.33,20,247.78,14.54,228.57a52.3,52.3,0,0,0,24.78,18.6c7.74,2.69,16.55,3.49,25.28,0A34.17,34.17,0,0,0,85,205.56Z" transform="translate(0 -75.38)"/><path class="cls-25" d="M52,190.2a34.49,34.49,0,0,0-18.25,3.2A24.79,24.79,0,0,0,25,200a11.45,11.45,0,0,0-2.83,6.58,8.1,8.1,0,0,0,1.92,5c2.8,3.73,6.82,6.47,11.59,6.07,3-.25,6.09-1.72,9.14-2.69a27.71,27.71,0,0,1,12-1.17c4.91.66,9.36,2.79,14.36,3.13a5,5,0,0,0,2.18-.22c1.72-.63,3.07-2.7,3.64-4.71a11.55,11.55,0,0,0-.75-8.1,22.54,22.54,0,0,0-4.39-5.74,15.13,15.13,0,0,0-3.54-3.26,40.43,40.43,0,0,0-5.24-2.12A38.13,38.13,0,0,0,52,190.2Z" transform="translate(0 -75.38)"/><path class="cls-25" d="M43,194.55c-3,.66-6.2,1.52-8.93,3.76-2.13,1.74-4,4.7-3.64,7.27s3,3.7,5.47,3.49c3.29-.29,6.62-2,9.91-3.48A58.43,58.43,0,0,1,56,202.21c1.26-.29,2.78-.76,3.39-2.18a3.11,3.11,0,0,0-.92-3.42C54.74,193,48.2,193.43,43,194.55Z" transform="translate(0 -75.38)"/><path class="cls-4" d="M80.19,234.7a21.06,21.06,0,0,1-1,4.55,17.67,17.67,0,0,1-1.87,3.93,21.89,21.89,0,0,1-23.55,8.61A22.54,22.54,0,0,1,46,247.91a25.22,25.22,0,0,1-9.25-14.23,23.12,23.12,0,0,1-.41-8.62,19.62,19.62,0,0,1,2.67-7.4q.23-.39.48-.75A17.79,17.79,0,0,1,46,211.07a15.08,15.08,0,0,1,8.69-1.56,13.9,13.9,0,0,1,8,3.63,15.4,15.4,0,0,1,4.25,7.5,18.1,18.1,0,0,1,.51,4.21,11.52,11.52,0,0,1-.77,4.33,8.39,8.39,0,0,1-6.88,5.26,7.18,7.18,0,0,1-7.22-4.32,6.13,6.13,0,0,1,2.75-7.49.46.46,0,0,1,.61.2.45.45,0,0,1-.17.58h0A4.9,4.9,0,0,0,54,229.51a5.35,5.35,0,0,0,5.52,2.81,6.14,6.14,0,0,0,4.67-4.06,11.78,11.78,0,0,0-.26-6.81,12.34,12.34,0,0,0-3.6-5.74,10.31,10.31,0,0,0-6-2.4,11.6,11.6,0,0,0-6.4,1.41,13.44,13.44,0,0,0-4.81,4.61A14.51,14.51,0,0,0,41,224.82a18.49,18.49,0,0,0,.35,7.72A20.31,20.31,0,0,0,49,243.8a17,17,0,0,0,12.75,3.27,17.2,17.2,0,0,0,6.3-2.3,16.38,16.38,0,0,0,2.19-1.6,13.89,13.89,0,0,0,2.53-2.91c2.32-3.54,2.6-8.47,1.86-13.23a34.14,34.14,0,0,0-5-13.44,28.86,28.86,0,0,0-10.28-9.79,20.35,20.35,0,0,0-13.52-2.44,23.13,23.13,0,0,0-7.91,3,24.38,24.38,0,0,0-4.62,3.55,33,33,0,0,0-7.87,12.4,42.64,42.64,0,0,0,.27,29.78.44.44,0,0,1-.26.58.46.46,0,0,1-.56-.22,42.62,42.62,0,0,1-2.39-31.14,36.38,36.38,0,0,1,8.07-14.11,27.81,27.81,0,0,1,7.81-5.82A26,26,0,0,1,45,197a23.89,23.89,0,0,1,8.56-.24,26.82,26.82,0,0,1,8.07,2.73,34.13,34.13,0,0,1,12.32,11.24,38.69,38.69,0,0,1,6,15.47A31.84,31.84,0,0,1,80.19,234.7Z" transform="translate(0 -75.38)"/><path class="cls-26" d="M25.41,220.3a42.64,42.64,0,0,0,.27,29.78.44.44,0,0,1-.26.58.46.46,0,0,1-.56-.22,42.62,42.62,0,0,1-2.39-31.14,36.38,36.38,0,0,1,8.07-14.11,27.81,27.81,0,0,1,7.81-5.82q-.35,2.48-.45,5a24.38,24.38,0,0,0-4.62,3.55A33,33,0,0,0,25.41,220.3Z" transform="translate(0 -75.38)"/><path class="cls-26" d="M79.2,239.25a17.67,17.67,0,0,1-1.87,3.93,21.89,21.89,0,0,1-23.55,8.61A22.54,22.54,0,0,1,46,247.91a25.22,25.22,0,0,1-9.25-14.23,23.12,23.12,0,0,1-.41-8.62,19.62,19.62,0,0,1,2.67-7.4c0,.17.07.34.11.51a46.57,46.57,0,0,0,2,6.65,18.49,18.49,0,0,0,.35,7.72A20.31,20.31,0,0,0,49,243.8a17,17,0,0,0,12.75,3.27,17.2,17.2,0,0,0,6.3-2.3,16.38,16.38,0,0,0,2.19-1.6A29.27,29.27,0,0,0,79.2,239.25Z" transform="translate(0 -75.38)"/></g></g></g></svg>