<svg xmlns="http://www.w3.org/2000/svg" viewBox="0 0 89.27 17.24"><defs><style>.cls-1{fill:#21ccb7;}.cls-2{fill:#3cd3bd;}.cls-3{fill:#69e0cc;}.cls-4{fill:#ef679e;}.cls-5{fill:#f27cb1;}.cls-6{fill:#f297c4;}</style></defs><title>자산 2</title><g id="레이어_2" data-name="레이어 2"><g id="레이어_1-2" data-name="레이어 1"><path class="cls-1" d="M14.12,14.18a.9.9,0,0,1-.24.49,7.13,7.13,0,0,1-5.74,2.57,7.65,7.65,0,0,1-5.93-2.5A8.69,8.69,0,0,1,0,8.65,8.86,8.86,0,0,1,2.17,2.6,7.29,7.29,0,0,1,7.92,0a7.74,7.74,0,0,1,6,2.33.76.76,0,0,1,.23.46,7.06,7.06,0,0,1-.82,1.65,9.94,9.94,0,0,1-1,1.61.32.32,0,0,1-.23.09,3.14,3.14,0,0,1-.59-.47,6.49,6.49,0,0,0-1.24-.88,4.25,4.25,0,0,0-1.92-.47A3.36,3.36,0,0,0,5.53,5.61a4.63,4.63,0,0,0-1,3,4.68,4.68,0,0,0,1,3,3.33,3.33,0,0,0,2.76,1.32,4.34,4.34,0,0,0,1.93-.45,5.93,5.93,0,0,0,1.22-.82,2.59,2.59,0,0,1,.57-.44.32.32,0,0,1,.24.13c.12.14.46.62,1,1.46A8.22,8.22,0,0,1,14.12,14.18Z"/><path class="cls-2" d="M19.64,11.45c0,.57,0,1.42,0,2.55s0,2,0,2.54c0,.16-.1.26-.29.29a13.17,13.17,0,0,1-1.79.07,13.33,13.33,0,0,1-1.81-.07c-.17,0-.28-.08-.32-.15a2,2,0,0,1,0-.36c0-.53,0-1.35,0-2.43s0-1.89,0-2.44a43.11,43.11,0,0,0-.26-5.3c0-.12,0-.2,0-.24s.11-.24.32-.24.55,0,1,.07a9.76,9.76,0,0,0,1,.07q.34,0,1-.06c.45,0,.79,0,1,0s.28.07.28.23,0,.11,0,.22A48.37,48.37,0,0,0,19.64,11.45ZM20,2.74c0,1.36-.77,2-2.3,2A2.54,2.54,0,0,1,16,4.27a1.86,1.86,0,0,1-.7-1.53A1.85,1.85,0,0,1,16,1.24,2.49,2.49,0,0,1,17.65.7a2.43,2.43,0,0,1,1.58.55A1.84,1.84,0,0,1,20,2.74Z"/><path class="cls-3" d="M33.55,16.49a.33.33,0,0,1-.33.36c-.22,0-.79,0-1.71,0a13,13,0,0,1-1.83-.07.43.43,0,0,1-.35-.48c0-.37,0-.92,0-1.67s0-1.3,0-1.67,0-.72,0-1.3,0-1,0-1.29c0-1.07-.47-1.61-1.4-1.61a2.13,2.13,0,0,0-1.07.4c-.43.3-.65.59-.65.88v6.33a.38.38,0,0,1-.36.43c-.28,0-.84,0-1.68,0a13.08,13.08,0,0,1-1.78-.07c-.24,0-.37-.17-.37-.39,0-.61,0-1.53,0-2.75s0-2.15,0-2.77a17.82,17.82,0,0,0-.46-4.58,1.41,1.41,0,0,1,0-.18.25.25,0,0,1,.17-.25c.5-.06,1.15-.14,2-.26q1.86-.36,2.1-.36c.09,0,.15.26.2.79s.11.79.2.79c-.09,0,.33-.27,1.26-.82a5,5,0,0,1,2.43-.81,4.17,4.17,0,0,1,2.48.7,2.61,2.61,0,0,1,1.12,2.25v3.74c0,.51,0,1.27,0,2.28S33.55,16,33.55,16.49Z"/><path class="cls-3" d="M46.24,10.46c0,.79-.25,1.24-.76,1.35-.09,0-.89.1-2.43.26-.92.1-2.29.22-4.12.36a1.64,1.64,0,0,0,1,1.16,3.45,3.45,0,0,0,1.54.33,4.47,4.47,0,0,0,2.1-.56l.89-.56A3.39,3.39,0,0,1,45.29,14a4.65,4.65,0,0,1,.58,1.37q0,.09-.18.27a5.77,5.77,0,0,1-4.44,1.54,6.24,6.24,0,0,1-4.5-1.63A5.79,5.79,0,0,1,35,11.12,6.34,6.34,0,0,1,36.56,6.7a5.54,5.54,0,0,1,4.29-1.78,5.09,5.09,0,0,1,3.82,1.64A5.45,5.45,0,0,1,46.24,10.46Zm-4.1-.71a1.84,1.84,0,0,0-.51-1.28,1.68,1.68,0,0,0-1.24-.55,1.48,1.48,0,0,0-1.21.62,2.15,2.15,0,0,0-.45,1.35.29.29,0,0,0,.33.32,20.32,20.32,0,0,0,2.69-.27C42,9.9,42.14,9.84,42.14,9.75Z"/><path class="cls-4" d="M61.46,11.77a5,5,0,0,1-1.34,3.57c-1,1.09-2.82,1.63-5.39,1.63H53.05a38.67,38.67,0,0,1-5.14-.18c-.23-.05-.34-.17-.34-.36,0-.84,0-2.1.14-3.8s.15-3,.15-3.81,0-2.61-.14-5.11c0-.64-.07-1.6-.13-2.88V.66c0-.15.11-.24.37-.27s1.16,0,2.71,0c2.49,0,4,0,4.37,0a9.2,9.2,0,0,1,4.26.94A4.06,4.06,0,0,1,61.1,5.06a3.12,3.12,0,0,1-.42,1.47,6.22,6.22,0,0,1-.8,1.1c-.29.32-.43.47-.43.44s.1.14.3.26A3.13,3.13,0,0,1,61,9.82,4.62,4.62,0,0,1,61.46,11.77Zm-5-6.6a1.32,1.32,0,0,0-1-1.34,6.82,6.82,0,0,0-1.85-.17c-.85,0-1.27.06-1.27.18s0,.38,0,.68,0,.52,0,.67c0,.78.07,1.22.2,1.31a4.75,4.75,0,0,0,1.49.11Q56.43,6.61,56.43,5.17Zm.35,6.55a1.42,1.42,0,0,0-.88-1.43,5.08,5.08,0,0,0-1.83-.24,5.11,5.11,0,0,0-1.64.12,3.53,3.53,0,0,0-.13,1.43,3.75,3.75,0,0,0,.15,1.53,4.5,4.5,0,0,0,1.69.15,5.58,5.58,0,0,0,1.78-.2A1.33,1.33,0,0,0,56.78,11.72Z"/><path class="cls-5" d="M67.21,11.45q0,.86,0,2.55c0,1.13,0,2,0,2.54,0,.16-.1.26-.3.29a13,13,0,0,1-1.79.07,13,13,0,0,1-1.8-.07c-.18,0-.28-.08-.32-.15a1.3,1.3,0,0,1,0-.36c0-.53,0-1.35,0-2.43s0-1.89,0-2.44a43.11,43.11,0,0,0-.26-5.3,1.36,1.36,0,0,1,0-.24c0-.16.1-.24.31-.24s.56,0,1,.07a9.75,9.75,0,0,0,1,.07q.33,0,1-.06c.45,0,.79,0,1,0s.28.07.28.23a1.69,1.69,0,0,1,0,.22A48.59,48.59,0,0,0,67.21,11.45Zm.3-8.71c0,1.36-.76,2-2.3,2a2.53,2.53,0,0,1-1.62-.51,1.87,1.87,0,0,1-.71-1.53,1.86,1.86,0,0,1,.73-1.5,2.61,2.61,0,0,1,3.19,0A1.86,1.86,0,0,1,67.51,2.74Z"/><path class="cls-6" d="M77.31,13.39a9.41,9.41,0,0,1-.09,1.07,9.51,9.51,0,0,0-.09,1,.8.8,0,0,1-.07.43,1.36,1.36,0,0,1-.38.27,6.91,6.91,0,0,1-3.36.83c-2.25,0-3.38-.86-3.38-2.59,0-.52,0-1.29.06-2.33s0-1.81,0-2.32c0-.35-.19-.52-.59-.52h-.31c-.29,0-.44-.1-.44-.31s0-.32,0-.58,0-.45,0-.57,0-.42,0-.75,0-.59,0-.75.25-.24.75-.26c.28,0,.43-.09.45-.23a7.85,7.85,0,0,0,0-1.41c0-1,0-1.49,0-1.44,0-.91.09-1.36.26-1.36a4.41,4.41,0,0,1,.9.14q.68.15.93.18l1.8.22c.2,0,.3.08.3.2,0,.31,0,.78-.08,1.42S74,4.89,74,5.21s.11.58.34.58.68,0,1.24,0l1.25,0c.17,0,.26.06.26.17A8,8,0,0,1,77,6.7a8,8,0,0,0-.06.81c0,.19,0,.46,0,.82s0,.63,0,.82-.12.25-.34.25l-.79,0-.78,0h-.88c-.12,0-.18.18-.18.52v.83c0,.38,0,.65,0,.83a3,3,0,0,0,.22,1.36,1.37,1.37,0,0,0,1.25.51,3.81,3.81,0,0,0,.83-.14,3.72,3.72,0,0,1,.77-.13A.22.22,0,0,1,77.31,13.39Z"/><path class="cls-6" d="M89.27,10.46c0,.79-.25,1.24-.76,1.35-.08,0-.89.1-2.42.26-.93.1-2.3.22-4.13.36a1.64,1.64,0,0,0,1,1.16,3.48,3.48,0,0,0,1.54.33,4.47,4.47,0,0,0,2.1-.56l.89-.56A3.39,3.39,0,0,1,88.32,14a4.37,4.37,0,0,1,.58,1.37q0,.09-.18.27a5.77,5.77,0,0,1-4.44,1.54,6.24,6.24,0,0,1-4.5-1.63A5.79,5.79,0,0,1,78,11.12,6.34,6.34,0,0,1,79.59,6.7a5.54,5.54,0,0,1,4.29-1.78A5.09,5.09,0,0,1,87.7,6.56,5.45,5.45,0,0,1,89.27,10.46Zm-4.1-.71a1.84,1.84,0,0,0-.51-1.28,1.67,1.67,0,0,0-1.23-.55,1.48,1.48,0,0,0-1.22.62,2.15,2.15,0,0,0-.45,1.35.29.29,0,0,0,.33.32,20.59,20.59,0,0,0,2.7-.27C85,9.9,85.17,9.84,85.17,9.75Z"/></g></g></svg>