<svg xmlns="http://www.w3.org/2000/svg" viewBox="0 0 74.55 175.88"><defs><style>.cls-1{fill:#f0ddb2;}.cls-2{fill:#ee3a3d;}.cls-3{fill:#b32d2f;opacity:0.3;}.cls-4,.cls-5{fill:#fdfadb;}.cls-4{opacity:0.2;}</style></defs><title>자산 5</title><g id="레이어_2" data-name="레이어 2"><g id="OBJECTS"><path class="cls-1" d="M62.19,175.88h-.12A8.79,8.79,0,0,1,53.4,167c.05-3.44,1.16-84.55,3.4-119,.86-13.23-1.68-22.89-7.15-27.21S36.49,18,32.39,19.28C21.4,22.7,17.92,42.39,17.57,49A8.79,8.79,0,0,1,0,48.15C.09,46.61,2.13,10.29,27.16,2.49,39.94-1.5,51.78.1,60.52,7,67.72,12.64,76,24.55,74.35,49.15,72.13,83.11,71,166.37,71,167.21A8.79,8.79,0,0,1,62.19,175.88Z"/><path class="cls-2" d="M1.27,38.6s8.48,10,15.17,14.3c0,0-5.66,9.45-13.56,2.18C2.88,55.08-1.83,49.92,1.27,38.6Z"/><path class="cls-2" d="M7.09,20.93S9.82,32.43,19.26,38.6c0,0,1.65-7.43,4.28-11.21,0,0-5.87-4.47-7.1-18.89A36.62,36.62,0,0,0,7.09,20.93Z"/><path class="cls-2" d="M31.08,1.43s-2.9,6.12,1.31,17.85c0,0,9.63-1.76,12.19-.88,0,0-1.64-13.41,4.72-17C49.3,1.43,40.18-1.79,31.08,1.43Z"/><path class="cls-2" d="M53.1,24.85s4.06-12,11.81-13.63c0,0,5.6,6.63,7.2,13.63a30,30,0,0,0-16.2,7.5S54.35,26.68,53.1,24.85Z"/><path class="cls-2" d="M56.64,46.94s6-6.34,17.87-6.34l-.83,15.83s-6.58-5.9-17.78,5.48Z"/><path class="cls-2" d="M72.11,94.24s-7.91-2.81-17.38,8v11.11s6-9.12,17.42-7.41Z"/><path class="cls-2" d="M73.38,68.37S65,64.18,55.53,75l-.47,14S61.47,79,72.93,80.67Z"/><path class="cls-2" d="M71.86,119.61s-8.28-3.88-17.75,6.93l-.27,13.63s6.29-9.33,17.74-7.62Z"/><path class="cls-2" d="M71.08,148.06s-7.91-2.81-17.37,8v11.1s6-9.12,17.41-7.41Z"/><path class="cls-3" d="M59.46,165.42s4-117.26,4.76-126.82-5.14-27-21.95-29.4-26.89,12.33-30.44,22-5,19.41-3.5,21.75,3.66-1.42,7-17.52,16.8-20.52,27.35-18.7,17.2,11,16.41,24.17S54.92,142.59,55.9,147.73,56,178.32,59.46,165.42Z"/><path class="cls-4" d="M28.59,6.32A30.76,30.76,0,0,1,59.86,9.64C68.94,16.14,73,36,71.12,55.2s-.71,83.55-3.84,85-4.56-34.84-3.06-58.52,1.84-62-4.36-66.67C46.25,4.79,22.37,7,28.59,6.32Z"/><path class="cls-5" d="M25.08,6.32s14-9.53,29.07,0c16.38,10.36,17.32,22.92,17.36,36.4.06,16.06-2.65,9.15-2.41,4.22S71.46,27.77,63.44,17C57.3,8.8,51.78,6,43.4,4.81S21.17,10.67,25.08,6.32Z"/><path class="cls-5" d="M71.09,55.77s.58,7.82-1.25,8S69,53.58,71.09,55.77Z"/></g></g></svg>