<svg xmlns="http://www.w3.org/2000/svg" viewBox="0 0 88.35 189.25"><defs><style>.cls-1{fill:#dcd8c6;}.cls-2{fill:#f4efd7;}.cls-3{fill:#c0b1bc;}.cls-3,.cls-6{opacity:0.5;}.cls-4{fill:#81467d;}.cls-5{fill:#683761;}.cls-6{fill:#a28294;}.cls-7{fill:#fffaef;}.cls-8{fill:#5a2845;}.cls-9{fill:#fdfadb;opacity:0.1;}</style></defs><title>자산 8</title><g id="레이어_2" data-name="레이어 2"><g id="OBJECTS"><polygon class="cls-1" points="51.79 82.33 56.91 189 50.23 189.12 45.19 82.44 51.79 82.33"/><polygon class="cls-2" points="49.14 103.19 54.6 189.25 56.91 189 52.75 102.58 49.14 103.19"/><polygon class="cls-3" points="46.73 115.13 52.81 112.2 52.75 102.58 46.16 102.97 46.73 115.13"/><path class="cls-4" d="M57.76,85.47s12.24,12,10.88,14c-3.39,5-11.32,1.77-12.43,3.85s-8.1,8.08-10.58,7S39.2,103,36.82,103.9s-9.19,2.47-8.94-.78,5.16-17.24,12-18.79S57.76,85.47,57.76,85.47Z"/><path class="cls-4" d="M88.29,41.59A44.18,44.18,0,1,1,42,.06,44,44,0,0,1,88.29,41.59Z"/><path class="cls-5" d="M32.27,1.62S-5.88,23.09,14.05,60.52c9.58,18,15.13-4.83,19.63-3.82S41.87,75,49,72.59s7.06-21.06,12.5-17.26S60.35,72.42,65.18,72s9.48-10.86,13.34-8.56S71.9,85.22,46.32,87.47,2.5,70.16.44,50,5.06,9.37,32.27,1.62Z"/><path class="cls-6" d="M35.3,9S54,.85,62.72,7.64C74.8,17,85.26,36.74,78.18,40.16,55.5,51.12,26.48,10,35.3,9Z"/><path class="cls-5" d="M64.46,92.59h0a7.94,7.94,0,0,1-6.14-1.89c-2.7-2.44-5.69,7.72-8.39,8.46s-4.39-6-5.92-6.39S29.72,99.5,31,93.92s7.73-9.81,7.73-9.81,16.93-1.41,17.56-.86"/><path class="cls-7" d="M59.23,6.78s15,7.94,20.34,17.4S85,40,84,39.36,78.51,24.09,70.16,17.74,55.78,6.82,59.23,6.78Z"/><path class="cls-7" d="M86,42.75s.32,8-1.62,6.89S84.26,38.61,86,42.75Z"/><path class="cls-8" d="M29.09,84.59s-7.41-8.77-4.94-8l2.46.79s8.86,7.45,13.5,7,3.44-6,4.56-5.89,5.07,4.3,5.36,4.09a10.16,10.16,0,0,0,1-1.35s6.73-7,8.11-5.68-6.52,8.52-6.72,8.88,1.12.7,1.12.7,6.86-4.84,7.64-3.11-6.48,4.18-11.78,5.29S32.11,88.37,29.09,84.59Z"/><path class="cls-9" d="M30.9,10.62S5.78,22.89,15,49.75,66.82,79,75.4,59.19,71.36,0,30.9,10.62Z"/></g></g></svg>