<svg xmlns="http://www.w3.org/2000/svg" viewBox="0 0 102.26 91.97"><defs><style>.cls-1{fill:#324a1e;}.cls-2{fill:#e05c5a;}.cls-3{fill:#496b2c;}.cls-4{fill:#e07f7d;}.cls-5{fill:#598235;}.cls-6{fill:#913b3b;}</style></defs><title>자산 2</title><g id="레이어_2" data-name="레이어 2"><g id="OBJECTS"><path class="cls-1" d="M85,47.39h0a41.53,41.53,0,0,0,15.63-21L21.43,0a41.75,41.75,0,0,0,26.4,52.82,42,42,0,0,0,10.41,2.06l1.39,2.73s6.85.58,20.89-7.49A41.4,41.4,0,0,0,85,47.41Z"/><path class="cls-2" d="M90.11,30.07A41.75,41.75,0,1,1,10.89,3.65Z"/><path class="cls-3" d="M85.93,28.68A37.43,37.43,0,0,1,15.07,5.05l-4.18-1.4A41.75,41.75,0,1,0,90.11,30.07Z"/><polygon class="cls-4" points="10.89 3.65 21.43 0 100.64 26.42 90.11 30.07 10.89 3.65"/><polygon class="cls-5" points="21.43 0 10.89 3.65 15.07 5.04 25.31 1.29 21.43 0"/><polygon class="cls-5" points="100.64 26.42 95.66 24.76 85.94 28.68 90.11 30.07 100.64 26.42"/><path class="cls-6" d="M22,16.62c-1.58.32-3,0-3.12-.65s1-1.49,2.62-1.82,3,0,3.12.65S23.55,16.29,22,16.62Z"/><path class="cls-6" d="M30.75,20.79c-1,1.26-2.27,1.93-2.81,1.49s-.16-1.81.86-3.07,2.28-1.93,2.82-1.49S31.77,19.53,30.75,20.79Z"/><path class="cls-6" d="M24.1,27.74c-.6,1.5-1.61,2.51-2.25,2.26s-.68-1.69-.08-3.19,1.61-2.52,2.25-2.26S24.7,26.24,24.1,27.74Z"/><path class="cls-6" d="M34.85,27.76c0,1.62-.61,2.93-1.3,2.91s-1.24-1.33-1.21-3,.61-2.92,1.31-2.91S34.88,26.14,34.85,27.76Z"/><path class="cls-6" d="M40.41,19.64c.54,1.52.45,2.95-.2,3.18S38.59,22,38,20.49s-.46-2.95.2-3.19S39.86,18.11,40.41,19.64Z"/><path class="cls-6" d="M33.34,38.15c.55,1.52.46,3-.19,3.18S31.52,40.52,31,39s-.46-3,.19-3.18S32.8,36.62,33.34,38.15Z"/><path class="cls-6" d="M62.54,29.17c-.65-1.48-.66-2.91,0-3.19s1.67.7,2.32,2.18.67,2.92,0,3.19S63.19,30.66,62.54,29.17Z"/><path class="cls-6" d="M42.05,35.33c-.65-1.48-.66-2.91,0-3.19s1.68.7,2.33,2.18.66,2.91,0,3.19S42.7,36.81,42.05,35.33Z"/><path class="cls-6" d="M59.89,39.89c-1.44-.73-2.36-1.82-2-2.44s1.74-.53,3.19.2,2.36,1.82,2,2.44S61.34,40.62,59.89,39.89Z"/><path class="cls-6" d="M51.9,32.51c-1.59-.27-2.79-1-2.68-1.73s1.51-1,3.11-.74,2.79,1.05,2.67,1.73S53.5,32.79,51.9,32.51Z"/><path class="cls-6" d="M56,45.77c-1.58.31-3,0-3.12-.67s1-1.49,2.64-1.8,3,0,3.12.66S57.6,45.45,56,45.77Z"/><path class="cls-6" d="M73.39,37.92c-1.37.85-2.79,1.06-3.15.47s.45-1.76,1.83-2.61,2.79-1.07,3.15-.48S74.77,37.06,73.39,37.92Z"/><path class="cls-6" d="M49.55,25.52c-1.37.85-2.79,1.06-3.15.47s.45-1.76,1.83-2.61,2.79-1.07,3.15-.48S50.93,24.66,49.55,25.52Z"/><path class="cls-6" d="M43.88,44.82c-1.38.85-2.79,1.07-3.15.48s.45-1.76,1.83-2.62,2.78-1.06,3.15-.47S45.26,44,43.88,44.82Z"/><path class="cls-1" d="M93.19,65.71h0a46,46,0,0,0,9.07-27.51H9.79A46.25,46.25,0,0,0,67.69,83l2.42,2.39s7.4-1.79,19.32-15.19a46.23,46.23,0,0,0,3.73-4.41Z"/><path class="cls-2" d="M92.47,45.73A46.24,46.24,0,1,1,0,45.73Z"/><path class="cls-3" d="M87.6,45.73a41.46,41.46,0,0,1-82.73,0H0a46.24,46.24,0,1,0,92.47,0Z"/><polygon class="cls-4" points="0 45.73 9.79 38.2 102.26 38.2 92.47 45.73 0 45.73"/><polygon class="cls-5" points="9.79 38.2 0 45.73 4.87 45.73 14.32 38.2 9.79 38.2"/><polygon class="cls-5" points="102.26 38.2 96.45 38.2 87.6 45.73 92.47 45.73 102.26 38.2"/><path class="cls-6" d="M16.17,55.47c-1.55.9-3.12,1.08-3.51.42s.57-1.93,2.12-2.83,3.12-1.09,3.51-.42S17.72,54.57,16.17,55.47Z"/><path class="cls-6" d="M26.87,56.77c-.63,1.68-1.72,2.83-2.44,2.56s-.8-1.85-.17-3.53S26,53,26.7,53.24,27.5,55.09,26.87,56.77Z"/><path class="cls-6" d="M22.31,66.41c-.1,1.79-.81,3.2-1.58,3.16s-1.3-1.54-1.19-3.33.81-3.2,1.58-3.16S22.42,64.62,22.31,66.41Z"/><path class="cls-6" d="M33.62,62.66c.54,1.71.38,3.29-.35,3.52s-1.77-1-2.31-2.68-.38-3.28.35-3.51S33.08,61,33.62,62.66Z"/><path class="cls-6" d="M36.61,52.18c1.1,1.42,1.51,2.94.91,3.42s-2-.29-3.1-1.7S32.9,51,33.51,50.49,35.5,50.77,36.61,52.18Z"/><path class="cls-6" d="M35.67,74.1c1.11,1.41,1.51,2.94.91,3.42s-2-.29-3.1-1.7-1.51-2.94-.91-3.41S34.56,72.69,35.67,74.1Z"/><path class="cls-6" d="M63.2,54.44c-1.2-1.33-1.72-2.82-1.15-3.34s2,.15,3.21,1.48S67,55.4,66.41,55.92,64.4,55.77,63.2,54.44Z"/><path class="cls-6" d="M43.83,68.09c-1.2-1.33-1.71-2.82-1.14-3.34s2,.14,3.21,1.48,1.71,2.82,1.14,3.34S45,69.42,43.83,68.09Z"/><path class="cls-6" d="M64.17,66.63c-1.77-.26-3.12-1.09-3-1.85s1.64-1.16,3.42-.9,3.12,1.09,3,1.85S66,66.89,64.17,66.63Z"/><path class="cls-6" d="M53.19,61.68c-1.77.28-3.3-.12-3.42-.88s1.23-1.6,3-1.87,3.3.12,3.42.88S55,61.41,53.19,61.68Z"/><path class="cls-6" d="M62.16,74.16c-1.56.89-3.14,1.06-3.52.4s.58-1.93,2.14-2.82,3.13-1.06,3.51-.39S63.71,73.28,62.16,74.16Z"/><path class="cls-6" d="M77.66,59.83c-1.15,1.38-2.55,2.1-3.15,1.6s-.14-2,1-3.38,2.56-2.1,3.15-1.61S78.81,58.45,77.66,59.83Z"/><path class="cls-6" d="M48.27,55.15c-1.14,1.38-2.55,2.1-3.14,1.61s-.14-2,1-3.39,2.56-2.09,3.15-1.6S49.42,53.78,48.27,55.15Z"/><path class="cls-6" d="M49.08,77.42c-1.15,1.38-2.56,2.1-3.15,1.61s-.14-2,1-3.39,2.55-2.1,3.14-1.61S50.22,76,49.08,77.42Z"/></g></g></svg>