<svg xmlns="http://www.w3.org/2000/svg" xmlns:xlink="http://www.w3.org/1999/xlink" viewBox="0 0 104.55 99.99"><defs><style>.cls-1{fill:url(#무제_그라디언트_95);}.cls-2{fill:#ef5451;}.cls-3{fill:#f95d77;}.cls-3,.cls-5,.cls-6{opacity:0.3;}.cls-4{fill:#fdfadb;opacity:0.2;}.cls-5{fill:#ef6579;}.cls-6{fill:#f26868;}.cls-7{fill:#f3eac7;}</style><linearGradient id="무제_그라디언트_95" x1="-0.42" y1="49.95" x2="104.2" y2="49.95" gradientTransform="translate(0.38 0.04)" gradientUnits="userSpaceOnUse"><stop offset="0" stop-color="#fff"/><stop offset="0" stop-color="#f69da3"/><stop offset="0.19" stop-color="#f0a3a9"/><stop offset="0.46" stop-color="#dfb5b8"/><stop offset="0.77" stop-color="#c2d2d2"/><stop offset="1" stop-color="#a8edea"/></linearGradient></defs><title>자산 9</title><g id="레이어_2" data-name="레이어 2"><g id="OBJECTS"><ellipse class="cls-1" cx="52.27" cy="49.99" rx="52.31" ry="49.94" transform="translate(-6.39 7.67) rotate(-7.91)"/><path class="cls-2" d="M51.91,88.21c-13.59,0-28-6.45-36-22.45-9.47-19-4.89-34.57.61-44.29A56.68,56.68,0,0,1,30.82,4.83a1.17,1.17,0,0,1,1.38,1.9,55.17,55.17,0,0,0-13.71,16c-7.56,13.39-7.73,27.53-.51,42C27.55,83.9,47,88.51,62.1,84.56c15.28-4,24.69-15.93,24-30.36C85,32.51,73.73,25.17,67.12,22.72c-9.36-3.46-20.46-1.43-26.4,4.83C34,34.67,33.17,47.41,38.91,56c4.69,7,12.4,9,21.16,5.62,4.42-1.72,6.56-4.93,6-9-.59-4.54-4.33-9-7.84-9.43-2.67-.32-4.13,2.08-4.89,4.13a1.16,1.16,0,0,1-1.5.69,1.17,1.17,0,0,1-.7-1.5c2-5.42,5.47-5.87,7.35-5.65,4.55.51,9.18,5.87,9.91,11.46.67,5.2-2.06,9.41-7.51,11.52-9.87,3.84-18.6,1.47-24-6.49C30.64,47.86,31.57,33.8,39,25.94c6.56-6.91,18.72-9.19,28.91-5.41,7.15,2.64,19.32,10.52,20.48,33.55.78,15.59-9.31,28.45-25.72,32.75A42.58,42.58,0,0,1,51.91,88.21Z"/><path class="cls-3" d="M2.79,40.49s-8.45,35,24.31,51.78,68-5.93,66.56-20.39S62.09,61.5,49.55,58.21C36.13,54.68,7.48,14.56,2.79,40.49Z"/><path class="cls-4" d="M98.49,35.56S85.57,3.39,59.58,4.27,40.44,27,59.58,42,106.33,56.6,98.49,35.56Z"/><path class="cls-5" d="M5.94,47.36s-4.74-29,20.7-29.79,80.05,57.29,58.25,69.85S12.41,104.9,5.94,47.36Z"/><path class="cls-6" d="M12.27,20.39S-5.82,55.22,13.53,79.57s59.1,17.63,71.71,6.29-2.35,4.57-31.45,4S-1.68,73.36,12.27,20.39Z"/><path class="cls-7" d="M89.74,22.9S79.31,5.78,50.59,4.37c-21.36-1.05-19.13,7-2.58,6.94C84.4,11.13,98.94,39.25,89.74,22.9Z"/><path class="cls-7" d="M96.73,31.82S105.36,49.08,99.85,50,93.71,24.79,96.73,31.82Z"/></g></g></svg>