<svg xmlns="http://www.w3.org/2000/svg" viewBox="0 0 90.23 81.62"><defs><style>.cls-1{fill:#5faeb3;}.cls-2{fill:#6fccd1;}.cls-3{fill:#68bfc4;}.cls-4{fill:#8cd9de;}</style></defs><title>자산 3</title><g id="레이어_2" data-name="레이어 2"><g id="OBJECTS"><path class="cls-1" d="M90.21,48.12V17L0,33.44V65H.11c.42,1.47,2.11,2.79,4.71,3.44L56,81.22c4.1,1,8.91,0,10.74-2.3L89.52,50.29A2.84,2.84,0,0,0,90.21,48.12Z"/><path class="cls-2" d="M70.78,20.55l-22.2,4V79.38L56,81.22c4.1,1,8.91,0,10.74-2.3l4.07-5.11Z"/><polygon class="cls-3" points="25.37 73.58 38.3 76.81 38.3 26.47 25.37 28.82 25.37 73.58"/><polygon class="cls-2" points="8.62 69.4 15.09 71.02 15.09 30.69 8.62 31.87 8.62 69.4"/><polygon class="cls-3" points="78.31 64.36 84.77 56.25 84.77 18 78.31 19.18 78.31 64.36"/><path class="cls-4" d="M85.41,13.17,34.27.4c-4.11-1-8.92,0-10.75,2.3L.71,31.33c-1.83,2.3,0,5,4.11,6L56,50.12c4.1,1,8.91,0,10.74-2.31L89.52,19.18C91.35,16.89,89.51,14.19,85.41,13.17Z"/><path class="cls-2" d="M74.76,16.36,37.13,7c-3-.76-6.56,0-7.9,1.69L12.44,29.73c-1.34,1.69,0,3.67,3,4.42l37.63,9.4c3,.75,6.56,0,7.9-1.7L77.79,20.79C79.13,19.1,77.78,17.12,74.76,16.36Z"/></g></g></svg>