<svg xmlns="http://www.w3.org/2000/svg" viewBox="0 0 118.12 134.88"><defs><style>.cls-1{fill:#85c63a;}.cls-2{fill:#ffc217;}.cls-3,.cls-5{fill:#f9f8f3;}.cls-3,.cls-4{opacity:0.5;}</style></defs><title>자산 2</title><g id="레이어_2" data-name="레이어 2"><g id="Object"><path class="cls-1" d="M81.1.24c-8.63,2.37-3.35,12.53-.22,17.1C85.42,24,96.86,36.42,106.24,39c8.74,2.42,15.15-3.89,10.09-10.14a103.86,103.86,0,0,0-10.49-10.12c-3.18-2.59-5.8-5.48-8.69-8.25C93.8,7.31,87.71-1.57,81.1.24Z"/><path class="cls-2" d="M34.85,134.63c9.66-2.53,3.78-12.93.43-17.39a63.42,63.42,0,0,0-7.43-8.11c-2.51-2.34-5.63-4.09-7-7.34-2.89-6.92-9.75-7.34-16-4.45C.7,99.27-1.7,104.81,1.43,108.71a79.09,79.09,0,0,0,9,8.51c2.89,2.26,5.3,4.89,8,7.44C21.72,127.68,27.78,136.48,34.85,134.63Z"/><path class="cls-2" d="M76.5,4.19S57.65,14.87,76,31.31s21.61,11.6,21.62,23.21c0,0,17.18-7.49,7-19S78.22,16.22,76.5,4.19Z"/><path class="cls-1" d="M68.21,15.27S49.36,26,67.67,42.39,89.28,54,89.28,65.59c0,0,17.19-7.48,7.06-19S69.93,27.29,68.21,15.27Z"/><path class="cls-2" d="M59.92,26.34S41.07,37,59.38,53.46,81,65.06,81,76.67c0,0,17.19-7.49,7.06-19S61.64,38.36,59.92,26.34Z"/><path class="cls-1" d="M51.63,37.42S32.78,48.1,51.09,64.54,72.7,76.14,72.7,87.74c0,0,17.19-7.48,7-19S53.35,49.44,51.63,37.42Z"/><path class="cls-2" d="M43.51,47.71S24.66,58.39,43,74.83,64.58,86.42,64.58,98c0,0,17.19-7.48,7.06-19S45.23,59.73,43.51,47.71Z"/><path class="cls-1" d="M35.22,58.78S16.37,69.46,34.68,85.9s21.61,11.6,21.61,23.21c0,0,17.19-7.49,7.06-19S36.94,70.81,35.22,58.78Z"/><path class="cls-2" d="M26.6,69.88S7.76,80.56,26.07,97s21.61,11.6,21.61,23.21c0,0,17.18-7.48,7-19S28.32,81.9,26.6,69.88Z"/><path class="cls-1" d="M18.31,81s-18.85,10.68-.54,27.12,21.61,11.6,21.62,23.21c0,0,17.18-7.49,7-19S20,93,18.31,81Z"/><path class="cls-3" d="M86.56,9c1.92,1.53,1.62,5.09-.66,8L25.05,93.22c-2.28,2.86-5.68,3.94-7.6,2.41h0c-1.92-1.53-1.62-5.09.66-7.95L79,11.4c2.28-2.86,5.68-3.93,7.6-2.41Z"/><g class="cls-4"><path class="cls-5" d="M8.43,111.12c6.39,0,6.4-9.93,0-9.93s-6.4,9.93,0,9.93Z"/></g></g></g></svg>