<svg xmlns="http://www.w3.org/2000/svg" xmlns:xlink="http://www.w3.org/1999/xlink" viewBox="0 0 159.38 157.35"><defs><style>.cls-1{fill:none;}.cls-2{clip-path:url(#clip-path);}.cls-3{fill:#ff5a77;}.cls-4{fill:#fdb917;}.cls-5{fill:#fcec5e;}.cls-6{fill:#85c63a;}.cls-7{fill:#25b7f1;}.cls-8{opacity:0.5;}.cls-9{fill:#f9f8f3;}</style><clipPath id="clip-path"><path class="cls-1" d="M133.32,86.73c4.1-15-1-31-10.25-43.13-17.39-22.81-52.69-24.12-73.54-7-17,14-22.83,39.78-11.4,58.93,5.57,9.34,15.8,17.91,25.22,23.11s20,7.51,30.56,5.34C112.32,120.24,128.38,104.77,133.32,86.73Z"/></clipPath></defs><title>자산 3</title><g id="레이어_2" data-name="레이어 2"><g id="Object"><g class="cls-2"><path class="cls-3" d="M133.32,86.73c4.1-15-1-31-10.25-43.13-17.39-22.81-52.69-24.12-73.54-7-17,14-22.83,39.78-11.4,58.93,5.57,9.34,15.8,17.91,25.22,23.11s20,7.51,30.56,5.34C112.32,120.24,128.38,104.77,133.32,86.73Z"/><path class="cls-4" d="M12.41,61.91c1.07-.1,2.11-.06,3.18-.14,2.29-.15-.81-.28.59,0a41.41,41.41,0,0,1,6.36,1.78A81,81,0,0,1,33.83,69.7a105.63,105.63,0,0,1,10.78,7.94q5.05,4.22,9.8,8.79c16.3,15.74,21.35,37.55,29.1,58.07,2.37,6.27,8.38,10.56,15.26,8.67,6-1.65,11-9,8.67-15.26C98,113,91.1,87.14,71.19,68.16a167.42,167.42,0,0,0-26-20.64c-9.5-6-21.24-11.54-32.77-10.42C5.74,37.75,0,42.34,0,49.51c0,6.2,5.7,13.05,12.41,12.4Z"/><path class="cls-5" d="M11.5,26.39C34.79,41.3,56.89,58.45,74.31,80.11A153.62,153.62,0,0,1,85,95.76c1.75,3,3.51,5.95,5.11,9,1.25,2.36,3.5,7.13,3.93,8.17s2.18,5.93,3,8.45q1.47,4.83,2.48,9.79c1.5,7.5,2,17.09,7.82,22.65,4.75,4.49,12.67,4.9,17.38,0,7.4-7.7,5.94-20.33,3.89-29.93a121.74,121.74,0,0,0-7.62-22.81C114.7,86.71,105.75,74,95.25,62.37c-20.81-23-47.85-41.48-77.43-51-9.13-2.93-13.94,10.13-6.32,15Z"/><path class="cls-6" d="M33.11,19.59C43.23,21.33,53,28.36,60.71,34.86A195.14,195.14,0,0,1,84.47,59.2,251.06,251.06,0,0,1,106.2,90.14c3.64,6,7,12.21,10.25,18.49,3.12,6.1,6.93,11.86,8.06,18.72s9.6,10.65,15.77,9c7.07-1.95,10.31-9,8.95-15.77-1.69-8.43-6.5-15.66-10.61-23C134.93,90.88,131.12,84.34,127,78a230.3,230.3,0,0,0-28-35C82.11,25.76,59.19,4.54,33.11,10.38c-4.43,1-4.69,8.41,0,9.21Z"/><path class="cls-7" d="M62.11,11c15,18.23,32.88,33.71,48.26,51.6a140.66,140.66,0,0,1,17.47,25.07c2.56,4.76,4.87,9.56,6.93,14.51,2.51,6,5.56,13,12.22,15a9.26,9.26,0,0,0,9-2.38c3.06-3,3.33-6,3.4-9.7a35.16,35.16,0,0,0-1.2-11.08,93.69,93.69,0,0,0-7.43-17C145,66.6,137.27,57,129.19,48.29a212.85,212.85,0,0,0-27.1-24.7c-10-7.59-20.94-14-30.72-21.87C64.81-3.57,56.71,4.42,62.11,11Z"/></g><g class="cls-8"><path class="cls-9" d="M52,73c.14-12.3,4-22.91,15.17-29.14,9.63-5.36,22-6.42,31.74-.88,7.25,4.11,13.77-7.06,6.52-11.17-13.81-7.83-31.1-6.74-44.79.88C45.41,41.16,39.2,56.23,39,73c-.1,8.32,12.84,8.33,12.93,0Z"/></g><g class="cls-8"><path class="cls-9" d="M49.48,98.05H50a6.67,6.67,0,0,0,4.58-1.9,6.47,6.47,0,0,0,0-9.14A6.76,6.76,0,0,0,50,85.11h-.54A6.65,6.65,0,0,0,44.91,87a6.47,6.47,0,0,0,0,9.14,6.74,6.74,0,0,0,4.57,1.9Z"/></g></g></g></svg>