<svg xmlns="http://www.w3.org/2000/svg" viewBox="0 0 165.81 57.44"><defs><style>.cls-1{fill:#fcb82e;}.cls-2{fill:none;}.cls-3{fill:#f3eac7;}.cls-4{fill:#c44a1f;}.cls-4,.cls-8{opacity:0.1;}.cls-5,.cls-6{fill:#fdfadb;}.cls-5{opacity:0.3;}.cls-7{fill:#f6ca10;}.cls-8{fill:#af4119;}</style></defs><title>자산 6</title><g id="레이어_2" data-name="레이어 2"><g id="OBJECTS"><path class="cls-1" d="M127.93,29.48c0-10.34,9.54-17.17,21-18.72,16.33-2.2,12.48,6.08,16.33,9.91,3.32,3.31-9.47,4-9.47,8.81S168,38.54,164.7,41.83c-3.84,3.9-2.48,10-15.77,6.36C137.89,45.14,127.93,39.81,127.93,29.48Z"/><path class="cls-2" d="M143.29,12l1,3.15-4.76,5.09,7.35-1.72,5.8,7.38.59-8.52L159.87,16l-6-3.1V10.4c10.59,0,8,6.89,11.4,10.27s-9.47,4-9.47,8.81S168,38.54,164.7,41.83c-3.84,3.9-2.48,10-15.77,6.36-1-.26-1.93-.55-2.87-.85l1.56-3,9.38.4-6.09-6,3.21-5.91-6.28,2.56-6.45-5.57,1.41,7.68-5.86,3.94,6.44,2.67.26,2.4c-8.74-3.23-15.71-8.38-15.71-17S134.5,14.73,143.29,12Z"/><path class="cls-3" d="M159.87,16l-6.57,1.41-.59,8.52-5.8-7.38-7.35,1.72,4.76-5.09-1-3.15a34.24,34.24,0,0,1,5.64-1.24,34.8,34.8,0,0,1,4.93-.36v2.47Z"/><path class="cls-3" d="M136.94,41.43l5.86-3.94-1.41-7.68,6.45,5.57,6.28-2.56-3.21,5.91,6.09,6-9.38-.4-1.56,3c-.82-.27-1.62-.54-2.42-.84l-.26-2.4Z"/><path class="cls-4" d="M133.71,19.27S144.54,15.7,147,16.63s-3.56,16-1.54,18S150.8,45.26,147.56,45s-11.87-5.14-12.14-6.41S135.41,24.11,133.71,19.27Z"/><path class="cls-5" d="M141.09,14.3s17.1-4.87,18.78.83c1,3.25-2.45,7.4-7,7.75S133.94,15,141.09,14.3Z"/><path class="cls-6" d="M148.57,12.7s15.11-.91,12,3.93C159.53,18.23,141.32,12.55,148.57,12.7Z"/><path class="cls-1" d="M37.88,29.48c0-10.34-9.54-17.17-21-18.72C.55,8.56,4.4,16.84.55,20.67-2.78,24,10,24.68,10,29.48S-2.15,38.54,1.1,41.83c3.85,3.9,2.49,10,15.78,6.36C27.92,45.14,37.88,39.81,37.88,29.48Z"/><path class="cls-2" d="M22.52,12l-1,3.15,4.76,5.09L18.9,18.52,13.1,25.9l-.59-8.52L5.94,16l6-3.1V10.4c-10.6,0-8,6.89-11.4,10.27s9.47,4,9.47,8.81S-2.15,38.54,1.1,41.83c3.85,3.9,2.49,10,15.78,6.36,1-.26,1.93-.55,2.87-.85l-1.56-3-9.38.4,6.09-6-3.21-5.91L18,35.38l6.45-5.57L23,37.49l5.86,3.94L22.43,44.1l-.27,2.4c8.75-3.23,15.72-8.38,15.72-17S31.31,14.73,22.52,12Z"/><path class="cls-3" d="M5.94,16l6.57,1.41.59,8.52,5.8-7.38,7.35,1.72-4.76-5.09,1-3.15a34.24,34.24,0,0,0-5.64-1.24A34.9,34.9,0,0,0,12,10.4v2.47Z"/><path class="cls-3" d="M28.87,41.43,23,37.49l1.41-7.68L18,35.38l-6.28-2.56,3.21,5.91-6.09,6,9.38-.4,1.56,3c.82-.27,1.62-.54,2.41-.84l.27-2.4Z"/><path class="cls-4" d="M32.1,19.27S21.27,15.7,18.84,16.63s3.56,16,1.54,18S15,45.26,18.25,45s11.87-5.14,12.14-6.41S30.4,24.11,32.1,19.27Z"/><path class="cls-5" d="M24.72,14.3s-17.1-4.87-18.78.83c-1,3.25,2.45,7.4,7,7.75S31.87,15,24.72,14.3Z"/><path class="cls-6" d="M17.24,12.7s-15.11-.91-12,3.93C6.28,18.23,24.49,12.55,17.24,12.7Z"/><path class="cls-7" d="M56.42,0h54.35c29.43,0,33.51,56.67-5.32,57.3-11.85.19-36.15.2-41.79,0C24.8,55.77,19.91,2.88,56.42,0Z"/><path class="cls-2" d="M127.36,18.6l2.18,8L124,22.7l-7.56,3.94,3.14-7.15-4.79-5.18,6.87-1.12L124,6.63,125.86,14l4.7-.45C126.88,5.7,120.1,0,110.77,0h-1.18l0,4.7,6.09,3.39-7.53.61-.55,7.93-4.27-7.22-8.3.83,4.79-4.8L98,0h-34l-1.9,1.8,4.52,6.53-7.85-3-6,5.83.74-6.74L49,1.43A24.12,24.12,0,0,0,34.07,14.3l1.23,1.55,6.87-1.17-5.49,5.19L41.2,26.4l-7.85-3-1.74,1.71a31.3,31.3,0,0,0,5.26,18l2.49-.25,2.19-6.71,4.33,5.46,6.87-1.17-5.5,5.19,4.53,6.53-7.85-3-.8.78a34.15,34.15,0,0,0,20.53,7.29c1.7.07,5.09.11,9.32.14l-4.35-5.17-8,2.18,3.94-5.52-3.94-7.55,7.15,3.13,5.18-4.79L74,46.58l6.56,2.33-7.32,1.84.64,6.67c6.63,0,15.06,0,22.31,0l-7.56-3.24,8.08-2.77-.34-6.71,4.55,5,8.22-2.23-4.58,6.32,2.05,3.47c10.15-.47,17.24-4.88,21.61-11.06L123.16,45l-5.8,7.38-.58-8.52-6.58-1.41,6-3.1,0-8.52,4.91,6.06,6.8-1.88-2.16,6.62L129,45.1c5.54-8.72,6-20.5,2.32-29.84Zm-64,16.54L57.88,31.2l-7.55,3.94L53.46,28l-4.79-5.18,6.88-1.12,2.33-6.56,1.84,7.32,7.92-.76-6.42,5.4ZM77.6,22.88,77,14.36,70.44,13l6-3.1,0-8.52,4.92,6.06,6.8-1.88L86,12.13l4.76,5.09L83.41,15.5Zm18,14.17-5.8,7.38-.58-8.52L82.65,34.5l6-3.1,0-8.52,4.91,6.06,6.8-1.88L98.2,33.68,103,38.77Z"/><path class="cls-2" d="M106.16,0h-4.92l2.46,1.61Z"/><path class="cls-3" d="M80.6,48.91,74,46.58,72.92,39.7l-5.18,4.79-7.15-3.13,3.94,7.55-3.94,5.52,8-2.18L73,57.42h.94l-.64-6.67Z"/><polygon class="cls-3" points="59.73 22.45 57.88 15.13 55.55 21.69 48.67 22.81 53.46 27.99 50.33 35.14 57.88 31.2 63.4 35.14 61.22 27.09 67.64 21.69 59.73 22.45"/><path class="cls-3" d="M124,6.63l-2.34,6.56-6.87,1.12,4.79,5.18-3.14,7.15L124,22.7l5.52,3.94-2.18-8,4-3.34c-.24-.6-.49-1.18-.76-1.76l-4.7.45Z"/><path class="cls-3" d="M51.78,52.17l-4.53-6.53,5.5-5.19-6.87,1.17-4.33-5.46-2.19,6.71-2.49.25A31,31,0,0,0,43.13,50l.8-.78Z"/><path class="cls-3" d="M41.2,26.4l-4.52-6.53,5.49-5.19L35.3,15.85,34.07,14.3a27.14,27.14,0,0,0-2.46,10.85l1.74-1.71Z"/><path class="cls-3" d="M52.87,11.2l6-5.83,7.85,3L62.15,1.8,64.05,0H56.42A32.54,32.54,0,0,0,49,1.43l4.62,3Z"/><path class="cls-3" d="M95,10.24l8.3-.83,4.27,7.22.55-7.93,7.53-.61L109.57,4.7l0-4.7h-3.43L103.7,1.61,101.24,0H98L99.8,5.44Z"/><polygon class="cls-3" points="90.76 17.22 86 12.13 88.16 5.51 81.36 7.39 76.44 1.33 76.47 9.85 70.44 12.95 77.02 14.36 77.6 22.88 83.41 15.5 90.76 17.22"/><path class="cls-3" d="M127.91,35l-6.8,1.88-4.91-6.06,0,8.52-6,3.1,6.58,1.41.58,8.52,5.8-7.38,5.1,1.19c.26-.36.5-.72.74-1.09l-3.25-3.47Z"/><polygon class="cls-3" points="100.36 27.06 93.56 28.94 88.65 22.88 88.68 31.4 82.65 34.5 89.23 35.91 89.81 44.43 95.61 37.05 102.97 38.77 98.2 33.68 100.36 27.06"/><path class="cls-3" d="M109.18,47.46,101,49.69l-4.55-5,.34,6.71-8.08,2.77,7.56,3.24c3.45,0,6.63-.06,9.22-.1l1.2,0-2.05-3.47Z"/><path class="cls-4" d="M37,12.36s-7.07,25.27,6.47,35.26S105,59.6,118,51.54s6.91-12.12-17.14-11.31S43.37-8.1,37,12.36Z"/><path class="cls-5" d="M65.07,6S120.73.12,126.2,8.11s4.83,30.44-16,26S49.52,7.25,65.07,6Z"/><path class="cls-8" d="M38.44,35.14s.5,13.4,18,17.84,33.74,2.39,44.81,2.93c12.86.62,21.2-5.74,21.82-7.35s-32.25,4.81-49.78,2.19C50.39,47.34,36.85,29.47,38.44,35.14Z"/><path class="cls-6" d="M69.09,3.64s35-.37,37.13,1.34S98,7.76,83.4,7.57,54.25,4.58,69.09,3.64Z"/><path class="cls-6" d="M112.78,4.27s11.1-.92,11.55,3.6S103.42,5.82,112.78,4.27Z"/></g></g></svg>