<svg xmlns="http://www.w3.org/2000/svg" viewBox="0 0 77.39 83.21"><defs><style>.cls-1{fill:#ffd194;}.cls-2{fill:#ffbd66;}.cls-3{fill:#fff;}.cls-4{fill:#ff9a14;}.cls-5{fill:#db8411;}</style></defs><title>자산 1</title><g id="레이어_2" data-name="레이어 2"><g id="OBJECTS"><path class="cls-1" d="M38.7,83.21A150.8,150.8,0,0,0,68,80.35,11.71,11.71,0,0,0,77.24,67C73.25,42.16,58,18.24,47.92,4.65a11.48,11.48,0,0,0-18.45,0C19.39,18.24,4.14,42.16.15,67a11.71,11.71,0,0,0,9.21,13.4A150.65,150.65,0,0,0,38.7,83.21Z"/><path class="cls-2" d="M64.74,31.36a245.58,245.58,0,0,1-26,1.37,245.77,245.77,0,0,1-26.05-1.37C7,42.2,2.16,54.46.15,67a11.71,11.71,0,0,0,9.21,13.4A150.65,150.65,0,0,0,38.7,83.21,150.8,150.8,0,0,0,68,80.35,11.71,11.71,0,0,0,77.24,67C75.23,54.46,70.37,42.2,64.74,31.36Z"/><path class="cls-3" d="M36.82,10.25c2.91,2.31.81,11.48-4.67,20.48S19.87,45.14,17,42.82s-.81-11.48,4.67-20.47S33.92,7.94,36.82,10.25Z"/><path class="cls-4" d="M74.84,56.25A243.71,243.71,0,0,1,38.7,58.91,243.85,243.85,0,0,1,2.55,56.25,94.36,94.36,0,0,0,.15,67a11.71,11.71,0,0,0,9.21,13.4A150.65,150.65,0,0,0,38.7,83.21,150.8,150.8,0,0,0,68,80.35,11.71,11.71,0,0,0,77.24,67,94.36,94.36,0,0,0,74.84,56.25Z"/><path class="cls-5" d="M72.84,65.24c-3.53-22-17.05-43.17-26-55.22a10,10,0,0,0-3.46-2.95C51,20.47,59.83,40,61.22,59.38a10.59,10.59,0,0,1-9.36,11.35A136.47,136.47,0,0,1,25.17,71,137.79,137.79,0,0,1,4.42,67.53a10.33,10.33,0,0,0,8.26,9.58,134.07,134.07,0,0,0,26,2.53,134.07,134.07,0,0,0,26-2.53A10.37,10.37,0,0,0,72.84,65.24Z"/></g></g></svg>