<svg xmlns="http://www.w3.org/2000/svg" viewBox="0 0 112.62 139.13"><defs><style>.cls-1{fill:none;stroke:#fad2cd;stroke-linecap:round;stroke-linejoin:round;stroke-width:5.3px;}.cls-2{fill:#ff5a77;}.cls-3{fill:#fee72f;}.cls-4{fill:#5cd8e5;}.cls-5{fill:#fad2cd;}.cls-6{opacity:0.5;}.cls-7{fill:#f9f8f3;}</style></defs><title>자산 1</title><g id="레이어_2" data-name="레이어 2"><g id="Object"><line class="cls-1" x1="59.87" y1="58.36" x2="2.65" y2="136.48"/><path class="cls-2" d="M110.4,57.63c3.64-13.31-.88-27.52-9.09-38.28C85.87-.9,54.55-2.06,36,13.15,21,25.55,15.77,48.46,25.91,65.45c4.95,8.29,14,15.9,22.39,20.51S66,92.63,75.42,90.71C91.76,87.37,106,73.64,110.4,57.63Z"/><path class="cls-3" d="M81.47,15.81l-.08-.12.32,2.42,0-.19a3.68,3.68,0,0,0-.17-2.25,3.43,3.43,0,1,0-2.24,4.66l.19,0L77.11,20l.11.07a3.1,3.1,0,0,0,4.25-4.24Z"/><path class="cls-4" d="M60.39,26c6.25,0,6.26-9.72,0-9.72S54.12,26,60.39,26Z"/><path class="cls-4" d="M92,38.66c2.86,0,2.87-4.45,0-4.45s-2.87,4.45,0,4.45Z"/><path class="cls-3" d="M48.8,9.75A3.79,3.79,0,0,0,52.55,6a3.75,3.75,0,0,0-7.5,0A3.82,3.82,0,0,0,48.8,9.75Z"/><path class="cls-4" d="M97.24,20c4.26,0,4.26-6.62,0-6.62S93,20,97.24,20Z"/><path class="cls-3" d="M108.58,46.12c4.68,0,4.68-7.26,0-7.26s-4.68,7.26,0,7.26Z"/><path class="cls-4" d="M68,6l.29,0A2.76,2.76,0,0,0,71,3.28L71,3a4,4,0,0,0-.41-1.52A2.84,2.84,0,0,0,69.16.24a3,3,0,0,0-3.3.62,3.13,3.13,0,0,0-.77,2.93A3.11,3.11,0,0,0,68,6Z"/><path class="cls-3" d="M75.61,46c3.91,0,3.92-6.09,0-6.09S71.68,46,75.61,46Z"/><path class="cls-4" d="M98.51,56.81a3.18,3.18,0,1,0-3.18-3.18,3.21,3.21,0,0,0,3.18,3.18Z"/><path class="cls-3" d="M46.71,27.39a1.73,1.73,0,0,0,0-3.45,1.73,1.73,0,0,0,0,3.45Z"/><path class="cls-4" d="M95.17,68.06a1.44,1.44,0,0,0,0-2.87,1.44,1.44,0,0,0,0,2.87Z"/><path class="cls-4" d="M109.61,62.85l.34,0a2.65,2.65,0,0,0,2.46-1.65,2.67,2.67,0,0,0-.56-2.94,2.79,2.79,0,0,0-2.61-.7,2.74,2.74,0,0,0-2,2.6l0,.35a2.4,2.4,0,0,0,2.31,2.31Z"/><path class="cls-5" d="M70.7,31.94c4,0,4-6.15,0-6.15s-4,6.15,0,6.15Z"/><path class="cls-5" d="M86.52,10.1c2.9,0,2.9-4.51,0-4.51s-2.91,4.51,0,4.51Z"/><path class="cls-5" d="M99,31.09c3.35,0,3.36-5.21,0-5.21s-3.36,5.21,0,5.21Z"/><path class="cls-5" d="M36.76,14l-.1-.35c-1.51-5.63-8.8,1.95-3.28,3.29l.35.08a2.48,2.48,0,0,0,3-3Z"/><path class="cls-5" d="M109.32,70l-.06-.27v1.5a3.49,3.49,0,0,0-.16-2,2.9,2.9,0,0,0-1.27-1.49l0,0A3.1,3.1,0,0,0,103.55,72l0,0a3,3,0,0,0,1.49,1.27,3.35,3.35,0,0,0,2,.16h-1.5l.28.06A2.85,2.85,0,0,0,109.32,70Z"/><path class="cls-5" d="M61.09,45.69c2.79,0,2.79-4.33,0-4.33s-2.8,4.33,0,4.33Z"/><g class="cls-6"><path class="cls-7" d="M57.33,9C44.93,12.85,34.8,20.51,30.61,33.2a40.15,40.15,0,0,0-1.8,17.87c.61,4.61,3,12.59,8.82,12.29A3.27,3.27,0,0,0,40.69,61c1.09-3.85-2.09-8.09-2.62-12a38.4,38.4,0,0,1,1-13.5c2.24-9.62,10.84-19,19.77-23,2.06-.92.6-4.3-1.53-3.63Z"/></g><g class="cls-6"><path class="cls-7" d="M45,74.29a5.44,5.44,0,0,0,3.7-1.53,5.24,5.24,0,0,0,0-7.4A5.49,5.49,0,0,0,45,63.83a5.24,5.24,0,0,0-5.23,5.23,5.3,5.3,0,0,0,1.54,3.7A5.4,5.4,0,0,0,45,74.29Z"/></g></g></g></svg>